<svg width="17" height="15" viewBox="0 0 17 15" fill="none" xmlns="http://www.w3.org/2000/svg">
<path fill-rule="evenodd" clip-rule="evenodd" d="M8.90175 14.5195L16.709 7.75315C16.7839 7.68025 16.7839 7.54108 16.709 7.46818L8.90175 0.628893C8.81941 0.555994 8.73707 0.555994 8.66221 0.628893L7.79391 1.46392C7.74151 1.51694 7.74151 1.59647 7.80139 1.64948L13.7298 6.83197H1.64841C1.16935 6.82534 0.765137 7.25611 0.765137 7.68025C0.765137 8.11102 1.16935 8.38937 1.64841 8.38937H13.5726L7.80139 13.5652C7.74151 13.6182 7.74151 13.7044 7.80139 13.7574L8.66221 14.5195C8.74455 14.5924 8.81941 14.5924 8.90175 14.5195Z" fill="#0A0A0B"/>
</svg>
