<svg width="131" height="110" viewBox="0 0 131 110" fill="none" xmlns="http://www.w3.org/2000/svg">
<g clip-path="url(#clip0_118_137)">
<path d="M20.3997 35.2671C26.2997 32.0671 32.7997 29.9671 39.4997 29.0671C40.6997 28.8671 40.6997 27.0671 39.4997 27.1671C32.4997 28.0671 25.6997 30.2671 19.4997 33.5671C18.3997 34.2671 19.3997 35.8671 20.3997 35.2671Z" fill="#F2CF3D"/>
<path d="M21.0002 52.4672C28.6002 49.1672 36.1002 45.8672 43.7002 42.5672C44.8002 42.0672 43.8002 40.4672 42.8002 40.9672C35.2002 44.2672 27.7002 47.5672 20.1002 50.8672C19.0002 51.3672 19.9002 52.9672 21.0002 52.4672Z" fill="#F2CF3D"/>
<path d="M25.9995 69.9671C32.7995 68.5671 39.3995 66.5671 45.7995 63.8671C46.8995 63.3671 46.3995 61.5671 45.2995 62.0671C38.8995 64.7671 32.2995 66.7671 25.4995 68.1671C24.2995 68.4671 24.7995 70.2671 25.9995 69.9671Z" fill="#F2CF3D"/>
<path d="M29.1002 90.4671C35.3002 90.0671 41.4002 89.5671 47.5002 88.7671C48.7002 88.6671 48.7002 86.7671 47.5002 86.8671C41.4002 87.6671 35.2002 88.1671 29.1002 88.5671C27.9002 88.6671 27.9002 90.5671 29.1002 90.4671Z" fill="#F2CF3D"/>
<path d="M79.6002 21.7671C87.0002 21.2671 94.4002 20.2671 101.6 18.8671C102.8 18.6671 102.3 16.8671 101.1 17.0671C94.0002 18.4671 86.8002 19.3671 79.6002 19.8671C78.4002 19.9671 78.4002 21.8671 79.6002 21.7671Z" fill="#F2CF3D"/>
<path d="M83.9 41.1671C91.9 40.2671 100 39.5671 108 39.0671C109.2 38.9671 109.2 37.0671 108 37.1671C99.9 37.7671 91.9 38.4671 83.9 39.2671C82.7 39.4671 82.7 41.2671 83.9 41.1671Z" fill="#F2CF3D"/>
<path d="M86.1998 57.9672C92.8998 57.7672 99.5998 57.1672 106.3 56.1672C107.5 55.9672 107 54.1672 105.8 54.3672C99.2998 55.2672 92.7998 55.8672 86.1998 56.0672C84.9998 56.0672 84.9998 57.9672 86.1998 57.9672Z" fill="#F2CF3D"/>
<path d="M86.1998 75.3672C93.7998 75.2672 101.3 75.5672 108.9 76.1672C110.1 76.2672 110.1 74.3672 108.9 74.2672C101.4 73.6672 93.7998 73.3672 86.1998 73.4672C84.9998 73.5672 84.9998 75.3672 86.1998 75.3672Z" fill="#F2CF3D"/>
<path d="M64.5997 91.8671C63.2997 78.4671 61.9997 64.9671 60.6997 51.5671C60.0997 44.9671 59.3997 38.2671 58.7997 31.6671C58.4997 28.3671 58.1997 25.0671 57.8997 21.6671C57.6997 19.7671 56.9997 13.3671 60.7997 14.4671C60.3997 13.9671 59.9997 13.3671 59.5997 12.8671C61.1997 26.2671 62.7997 39.7671 64.4997 53.1671C65.2997 59.8671 66.0997 66.4671 66.8997 73.1671C67.2997 76.4671 67.6997 79.8671 68.0997 83.1671C68.2997 84.8671 68.5997 86.5671 68.6997 88.2671C68.6997 88.7671 68.5997 92.4671 67.4997 91.4671C65.8997 89.9671 63.4997 92.3671 65.0997 93.8671C66.8997 95.4671 69.6997 95.0671 71.0997 93.1671C73.0997 90.4671 71.7997 86.2671 71.3997 83.2671C70.4997 75.4671 69.4997 67.7671 68.5997 59.9671C66.6997 44.2671 64.7997 28.6671 62.8997 12.9671C62.7997 12.1671 62.3997 11.5671 61.6997 11.3671C58.9997 10.5671 56.3997 12.0671 55.1997 14.5671C53.7997 17.4671 54.4997 20.9671 54.7997 24.0671C55.4997 31.5671 56.1997 39.0671 56.8997 46.5671C58.2997 61.6671 59.7997 76.8671 61.1997 91.9671C61.3997 93.9671 64.7997 93.9671 64.5997 91.8671Z" fill="#00929D"/>
<path d="M59.7003 12.8672C75.1003 4.76717 93.1003 2.06717 110.2 5.36717C112.1 5.76717 114.3 5.96717 116 6.76717C118.1 7.76717 118 10.4672 118.3 12.5672C118.9 17.4672 119.4 22.4672 120 27.3672C121.2 37.3672 122.3 47.2672 123.5 57.2672C124.8 68.3672 126.1 79.4672 127.4 90.4672C127.8 89.9672 128.2 89.3672 128.6 88.8672C110.3 92.6672 91.3003 92.8672 72.8003 89.5672C70.7003 89.1672 69.8003 92.4672 71.9003 92.7672C91.0003 96.2672 110.5 96.0672 129.5 92.0672C130.2 91.9672 130.8 91.1672 130.7 90.4672C128.2 69.0672 125.7 47.6672 123.2 26.1672C122.6 20.9672 122 15.8672 121.4 10.6672C121.2 8.86717 120.9 6.96717 119.7 5.46717C118.4 3.86717 116.4 3.26717 114.5 2.76717C105.7 0.567172 96.4003 0.0671724 87.4003 0.967172C77.1003 2.06717 67.2003 5.06717 58.0003 9.86717C56.1003 10.9672 57.8003 13.8672 59.7003 12.8672Z" fill="#00929D"/>
<path d="M55.6004 11.3672C42.9004 9.26719 29.9004 9.46719 17.2004 12.1672C14.1004 12.7672 11.0004 13.6672 8.00044 14.5672C5.50044 15.3672 2.40044 16.0672 0.900442 18.4672C-0.499558 20.7672 0.100442 23.8672 0.200442 26.4672C0.400442 29.8672 0.600442 33.2672 0.900442 36.7672C2.10044 50.0672 4.20044 63.3672 7.30044 76.3672C8.80044 82.9672 10.6004 89.4672 12.6004 95.8672C13.6004 99.0672 14.6004 102.167 15.7004 105.267C16.5004 107.567 17.6004 109.767 20.3004 109.967C21.9004 110.067 23.5004 109.467 25.0004 108.867C26.8004 108.267 28.5004 107.667 30.3004 107.067C34.0004 105.767 37.8004 104.567 41.5004 103.267C49.1004 100.667 56.7004 98.0672 64.3004 95.5672C66.3004 94.8672 65.5004 91.6672 63.4004 92.3672C51.4004 96.4672 39.3004 100.567 27.3004 104.667C25.9004 105.167 24.5004 105.667 23.1004 106.067C21.7004 106.567 20.1004 107.167 19.3004 105.467C18.1004 102.867 17.4004 100.067 16.5004 97.3672C14.6004 91.5672 12.9004 85.5672 11.4004 79.6672C8.60044 67.6672 6.40044 55.5672 5.00044 43.3672C4.30044 37.3672 3.80044 31.3672 3.50044 25.3672C3.40044 24.0672 3.20044 22.6672 3.40044 21.2672C3.60044 19.6672 4.80044 19.1672 6.20044 18.6672C9.00044 17.6672 11.9004 16.8672 14.7004 16.1672C27.7004 12.9672 41.4004 12.3672 54.6004 14.6672C56.9004 14.9672 57.8004 11.7672 55.6004 11.3672Z" fill="#00929D"/>
<path d="M60.1997 12.9671C59.0997 17.0671 57.5997 21.0671 55.7997 24.9671C55.2997 26.0671 56.8997 26.9671 57.3997 25.8671C59.2997 21.8671 60.7997 17.6671 61.9997 13.3671C62.2997 12.2671 60.4997 11.7671 60.1997 12.9671Z" fill="#00929D"/>
<path d="M60.4 18.2672C59.8 23.2672 58.8 28.2672 57.6 33.1672C57.3 34.3672 59.1 34.8672 59.4 33.6672C60.7 28.5672 61.6 23.4672 62.3 18.2672C62.4 17.0672 60.5 17.0672 60.4 18.2672Z" fill="#00929D"/>
<path d="M61.4001 23.9672C60.2001 30.5672 59.1001 37.1672 58.2001 43.7672C58.0001 44.9672 59.8001 45.4672 60.0001 44.2672C60.9001 37.6672 62.0001 31.0672 63.2001 24.4672C63.4001 23.2672 61.6001 22.7672 61.4001 23.9672Z" fill="#00929D"/>
<path d="M61.9004 35.5672C60.8004 40.8672 59.7004 46.0671 58.6004 51.3671C58.4004 52.5672 60.2004 53.0672 60.4004 51.8671C61.5004 46.5671 62.6004 41.3672 63.7004 36.0672C63.9004 34.8672 62.1004 34.3672 61.9004 35.5672Z" fill="#00929D"/>
<path d="M63.9002 42.2671C62.9002 48.2671 61.4002 54.1671 59.2002 59.8671C58.8002 60.9671 60.6002 61.4671 61.0002 60.3671C63.1002 54.6671 64.7002 48.7671 65.7002 42.7671C65.9002 41.5671 64.1002 41.0671 63.9002 42.2671Z" fill="#00929D"/>
<path d="M65.3999 48.1671C63.6999 54.3671 62.1999 60.5671 60.9999 66.7671C60.7999 67.9671 62.5999 68.4671 62.7999 67.2671C63.9999 60.9671 65.4999 54.7671 67.1999 48.6671C67.4999 47.4671 65.6999 47.0671 65.3999 48.1671Z" fill="#00929D"/>
<path d="M65.1 62.9671C64.7 68.3671 63.7 73.6671 62.1 78.7671C61.7 79.9671 63.6 80.3671 63.9 79.2671C65.5 73.9671 66.5 68.4671 67 62.9671C67.1 61.7671 65.2 61.7671 65.1 62.9671Z" fill="#00929D"/>
<path d="M65.7997 69.8672C65.4997 75.7672 64.7997 81.6672 63.7997 87.5672C63.5997 88.7672 65.3997 89.2672 65.5997 88.0672C66.5997 82.0672 67.2997 75.9672 67.5997 69.8672C67.7997 68.6672 65.8997 68.6672 65.7997 69.8672Z" fill="#00929D"/>
<path d="M66.9001 79.5672C66.4001 84.1672 66.0001 88.7672 65.5001 93.4672C65.4001 94.6672 67.2001 94.6672 67.4001 93.4672C67.9001 88.8672 68.3001 84.2672 68.8001 79.5672C68.9001 78.4672 67.0001 78.4672 66.9001 79.5672Z" fill="#00929D"/>
</g>
<defs>
<clipPath id="clip0_118_137">
<rect width="130.7" height="109.4" fill="white" transform="translate(0 0.567139)"/>
</clipPath>
</defs>
</svg>
