<svg width="35" height="34" viewBox="0 0 35 34" fill="none" xmlns="http://www.w3.org/2000/svg">
<path d="M33.5423 16.8955L34.2856 17.5644L34.8876 16.8955L34.2856 16.2266L33.5423 16.8955ZM18.851 31.7266C18.4816 32.1371 18.5149 32.7694 18.9254 33.1389C19.336 33.5083 19.9683 33.475 20.3377 33.0644L19.5944 32.3955L18.851 31.7266ZM0.723633 16.8955V17.8955H33.5423V16.8955V15.8955H0.723633V16.8955ZM33.5423 16.8955L34.2856 16.2266L20.3377 0.726598L19.5944 1.39551L18.851 2.06442L32.7989 17.5644L33.5423 16.8955ZM33.5423 16.8955L32.7989 16.2266L18.851 31.7266L19.5944 32.3955L20.3377 33.0644L34.2856 17.5644L33.5423 16.8955Z" fill="white"/>
</svg>
