<svg width="25" height="25" viewBox="0 0 25 25" fill="none" xmlns="http://www.w3.org/2000/svg">
<g clip-path="url(#clip0_199_26813)">
<path d="M12.4458 2.67383C6.9258 2.67383 2.4458 7.15383 2.4458 12.6738C2.4458 18.1938 6.9258 22.6738 12.4458 22.6738C17.9658 22.6738 22.4458 18.1938 22.4458 12.6738C22.4458 7.15383 17.9658 2.67383 12.4458 2.67383ZM12.4458 20.6738C8.0358 20.6738 4.4458 17.0838 4.4458 12.6738C4.4458 8.26383 8.0358 4.67383 12.4458 4.67383C16.8558 4.67383 20.4458 8.26383 20.4458 12.6738C20.4458 17.0838 16.8558 20.6738 12.4458 20.6738ZM17.0358 8.25383L10.4458 14.8438L7.8558 12.2638L6.4458 13.6738L10.4458 17.6738L18.4458 9.67383L17.0358 8.25383Z" fill="#FFF9F5"/>
</g>
<defs>
<clipPath id="clip0_199_26813">
<rect width="24" height="24" fill="white" transform="translate(0.445801 0.673828)"/>
</clipPath>
</defs>
</svg>
