<svg width="123" height="156" viewBox="0 0 123 156" fill="none" xmlns="http://www.w3.org/2000/svg">
<g clip-path="url(#clip0_118_179)">
<path d="M46.8885 26.1532C46.2584 27.7603 46.0204 29.4466 46.1943 31.1138C46.3689 32.2712 48.2125 32.2349 48.0576 30.9795C47.9224 29.6261 48.1011 28.2339 48.5739 26.9011C48.9874 25.8623 47.3217 25.0164 46.8885 26.1532Z" fill="#F2CF3D"/>
<path d="M75.1991 44.1033C75.0591 45.8092 74.9191 47.5152 74.897 49.143C74.8558 50.3588 76.6203 50.7146 76.7595 49.5185C76.8995 47.8125 77.0394 46.1065 77.0616 44.4788C77.1027 43.263 75.3383 42.9072 75.1991 44.1033Z" fill="#F2CF3D"/>
<path d="M56.1453 50.5649C55.9675 51.4471 55.7698 52.4274 55.5919 53.3096C55.3547 54.4859 57.2172 54.8615 57.4544 53.6852C57.6323 52.8029 57.83 51.8227 58.0079 50.9404C58.2451 49.7641 56.3825 49.3885 56.1453 50.5649Z" fill="#F2CF3D"/>
<path d="M85.7247 60.2013C85.9966 61.8883 85.7784 63.4765 85.2661 65.0054C84.8328 66.1422 86.6953 66.5178 87.1286 65.381C87.6804 63.656 87.8402 61.852 87.588 60.067C87.4133 58.9096 85.5698 58.9459 85.7247 60.2013Z" fill="#F2CF3D"/>
<path d="M56.9901 74.7079C56.6145 76.5704 56.2587 78.3349 55.8832 80.1974C55.646 81.3738 57.5085 81.7493 57.7457 80.573C58.1212 78.7105 58.477 76.946 58.8526 75.0835C59.0898 73.9072 57.2273 73.5316 56.9901 74.7079Z" fill="#F2CF3D"/>
<path d="M37.1522 93.6608C36.8162 95.3273 36.4801 96.9937 36.1639 98.5622C35.9267 99.7385 37.7892 100.114 38.0264 98.9377C38.3624 97.2713 38.6984 95.6048 39.0147 94.0364C39.2519 92.86 37.3894 92.4845 37.1522 93.6608Z" fill="#F2CF3D"/>
<path d="M57.2101 96.8892C56.58 98.4963 56.342 100.183 56.6139 101.87C56.7886 103.027 58.6519 102.893 58.4773 101.735C58.2441 100.362 58.305 99.0482 58.8758 97.7351C59.309 96.5983 57.6434 95.7524 57.2101 96.8892Z" fill="#F2CF3D"/>
<path d="M77.0311 100.784C77.2058 101.941 77.3805 103.099 77.4374 104.334C77.6121 105.492 79.4754 105.357 79.3007 104.2C79.126 103.042 78.9514 101.885 78.8945 100.649C78.7198 99.4921 76.8565 99.6265 77.0311 100.784Z" fill="#F2CF3D"/>
<path d="M79.4337 32.2057C81.0985 33.5615 81.3491 36.3664 82.0913 38.2502C82.9704 40.4677 83.9474 42.705 85.062 44.766C87.2517 49.084 90.1284 53.0305 93.3 56.5263C94.8858 58.2743 96.7269 59.7676 98.1949 61.5938C99.5649 63.4003 99.4834 65.3221 98.9703 67.3609C97.9441 71.4385 95.9771 75.1224 97.2648 79.3605C98.0506 78.4988 98.8562 77.5391 99.6421 76.6775C95.6814 76.0829 91.8189 75.5081 87.8385 75.0115C85.8582 74.7142 83.8779 74.4169 81.9956 74.1394C80.4074 73.9212 78.5646 73.4476 76.9171 73.5234C74.0142 73.7542 72.5588 76.4191 72.9271 79.1457C73.2954 81.8723 75.233 84.4052 76.9753 86.3888C80.9682 91.3764 85.8458 95.0122 87.4639 101.153C89.0235 107.078 88.0328 113.509 87.0231 119.529C87.8476 118.981 88.6722 118.433 89.4968 117.885C74.1065 114.782 58.6372 112.071 43.0295 110.046C39.2452 109.589 35.4806 109.034 31.6765 108.675C29.8725 108.515 27.9902 108.237 26.1862 108.078C25.6961 107.979 24.2446 108.094 23.9118 107.721C23.5008 107.23 23.7775 105.858 23.7783 105.348C24.1018 99.1903 24.6032 92.1505 29.1212 87.4508C33.5215 82.8294 40.2309 81.428 44.4944 76.4729C48.3848 71.8507 48.7668 65.909 44.8126 61.2352C41.2497 57.1503 36.135 54.6908 33.5342 49.8819C30.6402 44.5037 31.2775 38.3075 34.0706 33.056C37.1784 27.2558 42.3044 22.5767 47.8011 19.0945C53.1999 15.5925 59.2642 12.8368 65.6589 11.984C64.9151 11.1199 64.2494 10.3736 63.5056 9.50952C62.5741 15.6465 61.5447 21.7637 60.6133 27.9007C60.3959 28.979 61.0804 30.1371 62.2568 30.3743C65.2371 30.7713 68.2965 30.7761 71.3362 30.8789C73.5916 30.8236 77.2787 30.751 79.4337 32.2057C81.5887 33.6603 84.3391 30.6445 82.2038 29.0918C76.7381 25.3373 69.0674 26.953 62.8126 26.0999C63.3605 26.9244 63.9083 27.749 64.4561 28.5735C65.3875 22.4366 66.417 16.3193 67.3484 10.1824C67.4875 8.98628 66.5682 7.47474 65.195 7.70791C53.2095 9.47369 41.0982 16.4167 33.6502 26.0343C29.9361 30.7941 27.1422 36.5555 27.3286 42.7139C27.5538 49.1861 30.8399 54.6433 35.7364 58.691C39.8496 62.0707 46.06 66.1793 42.4028 72.1747C38.8634 78.0918 31.1144 79.5897 26.4003 84.2499C21.5683 88.9883 20.2432 96.066 19.8407 102.616C19.6793 105.439 18.7511 109.537 21.7686 111.267C23.2382 112.074 25.062 112.135 26.768 112.275C28.8661 112.494 30.9642 112.714 32.9445 113.011C51.572 115.237 70.1395 118.267 88.5686 121.983C89.6468 122.2 90.805 121.515 91.0422 120.339C91.9333 114.908 92.7856 109.163 92.0688 103.612C91.3519 98.0607 89.0056 93.5071 85.2467 89.3827C83.3083 87.3597 81.2522 85.4149 79.4514 83.2156C78.6292 82.2337 77.8269 81.1538 77.2601 79.9174C77.0451 79.466 76.83 79.0145 76.9289 78.5244C76.989 77.7204 76.9494 77.9165 77.6949 77.7608C78.3424 77.5853 79.3811 77.9988 80.0673 78.1371C80.9496 78.315 81.7536 78.3751 82.6358 78.553C84.322 78.791 86.1063 79.0488 87.7925 79.2868C91.459 79.8221 95.1256 80.3573 98.7921 80.8926C100.38 81.1109 101.677 79.7401 101.169 78.2096C99.9401 74.1873 103.046 69.9168 103.444 65.9167C103.864 60.7987 100.142 58.008 96.9706 54.5121C93.5247 50.8589 90.6093 46.5986 88.263 42.045C87.1682 39.886 86.2109 37.5507 85.4496 35.2549C84.6686 33.0572 84.1232 30.703 82.2038 29.0918C80.1864 27.4608 77.4162 30.5747 79.4337 32.2057Z" fill="#00929D"/>
<path d="M18.1117 117.263C17.8539 119.047 18.1637 121.558 17.4356 123.145C16.8648 124.458 15.8063 124.143 14.6299 123.906C11.395 123.253 8.39653 121.935 5.20117 121.086C4.14264 120.771 2.94495 121.652 2.72752 122.73C1.95664 126.553 1.18577 130.376 0.395123 134.297C0.177696 135.375 0.862277 136.533 2.0386 136.771C17.3712 139.148 32.6831 142.134 48.1343 143.923C55.801 144.857 63.4685 145.281 71.2735 145.528C78.9607 145.854 86.8243 146.318 93.9383 149.486C95.1534 150.038 96.6056 149.412 96.8823 148.04C97.4548 145.707 97.7331 143.315 97.9134 140.903C98.0146 138.883 98.0961 136.961 96.3332 135.586C94.7466 134.348 92.2952 134.363 90.4326 133.988C87.9622 133.592 85.4918 133.196 83.0411 132.701C83.5889 133.526 84.1367 134.35 84.6846 135.175C85.238 132.43 85.7132 129.568 86.2666 126.823C86.5434 125.451 85.4272 124.409 84.1133 124.349C63.4429 124.159 42.8746 121.44 22.8004 116.27C20.2715 115.658 19.4611 119.677 21.99 120.289C42.3582 125.518 63.3384 128.219 84.3227 128.369C83.5788 127.505 82.9132 126.759 82.1693 125.895C81.6158 128.64 81.1406 131.502 80.5872 134.247C80.3698 135.325 81.0543 136.483 82.2307 136.72C85.5834 137.295 89.0341 137.888 92.3868 138.462C93.171 138.62 93.5046 138.484 93.8564 139.269C94.1299 139.936 93.7946 141.092 93.6563 141.779C93.4965 143.583 93.1408 145.347 92.785 147.112C93.8056 146.603 94.7084 146.173 95.729 145.665C84.5777 140.764 72.1622 141.627 60.2787 140.863C48.0032 140.02 35.847 138.079 23.8086 136.06C16.9072 134.872 9.90776 133.665 2.98657 132.575C3.5344 133.4 4.08223 134.224 4.63005 135.049C5.40093 131.226 6.17181 127.403 6.96245 123.482C6.1379 124.03 5.31334 124.577 4.48879 125.125C8.25255 126.19 12.1325 128.197 16.0939 128.281C18.1335 128.285 19.9787 127.228 20.9424 125.485C22.201 123.29 21.9505 120.485 22.2288 118.093C22.3506 115.465 18.3315 114.655 18.1117 117.263Z" fill="#00929D"/>
<path d="M11.3328 125.587C10.7399 128.528 10.1469 131.469 9.5539 134.41C9.31671 135.586 11.1792 135.961 11.4164 134.785C12.0094 131.844 12.6024 128.903 13.1954 125.963C13.3345 124.767 11.57 124.411 11.3328 125.587Z" fill="#00929D"/>
<path d="M16.8809 126.4C16.7583 129.538 16.3416 132.616 15.5328 135.615C15.1976 136.772 17.0601 137.148 17.3953 135.991C18.2437 132.796 18.6801 129.619 18.7443 126.266C18.7854 125.05 16.9221 125.184 16.8809 126.4Z" fill="#00929D"/>
<path d="M24.7148 120.941C23.7249 126.862 22.637 132.763 21.6471 138.684C21.4099 139.861 23.2724 140.236 23.5096 139.06C24.4995 133.139 25.5874 127.237 26.5774 121.316C26.7165 120.12 24.8738 119.647 24.7148 120.941Z" fill="#00929D"/>
<path d="M32.2062 121.227C30.8241 127.069 29.4421 132.911 28.0601 138.753C27.8229 139.93 29.5874 140.285 29.9226 139.129C31.3046 133.287 32.6867 127.445 34.0687 121.602C34.3059 120.426 32.5414 120.07 32.2062 121.227Z" fill="#00929D"/>
<path d="M37.3592 124C36.3314 129.098 35.2838 134.293 34.2559 139.391C34.0187 140.567 35.8813 140.943 36.1185 139.766C37.1463 134.669 38.1939 129.473 39.2217 124.376C39.4589 123.2 37.5964 122.824 37.3592 124Z" fill="#00929D"/>
<path d="M42.9056 126.853C41.4272 131.655 40.3211 136.635 39.6071 141.694C39.4679 142.89 41.2324 143.246 41.4696 142.069C42.1836 137.011 43.2699 132.129 44.7681 127.228C45.0053 126.052 43.2408 125.696 42.9056 126.853Z" fill="#00929D"/>
<path d="M49.0457 125.745C48.0772 130.548 47.1284 135.253 46.1599 140.057C45.9227 141.233 47.7852 141.608 48.0224 140.432C48.9909 135.629 49.9397 130.923 50.9083 126.12C51.1454 124.944 49.2829 124.568 49.0457 125.745Z" fill="#00929D"/>
<path d="M59.5 124.486C57.9029 129.877 56.3059 135.268 54.8069 140.678C54.4717 141.835 56.3342 142.21 56.6694 141.054C58.2665 135.663 59.8635 130.272 61.3625 124.862C61.5997 123.686 59.8352 123.33 59.5 124.486Z" fill="#00929D"/>
<path d="M64.1639 127.161C63.9022 131.495 63.1502 135.73 62.2023 139.925C61.8671 141.082 63.7296 141.457 64.0648 140.301C65.1108 136.125 65.7647 131.87 66.0264 127.536C66.0676 126.321 64.3031 125.965 64.1639 127.161Z" fill="#00929D"/>
<path d="M70.3602 127.798C69.4312 132.406 68.5219 136.915 67.5929 141.522C67.3557 142.698 69.2183 143.074 69.4555 141.898C70.3845 137.29 71.2937 132.781 72.2227 128.174C72.4599 126.997 70.5974 126.622 70.3602 127.798Z" fill="#00929D"/>
<path d="M76.556 128.435C75.3329 132.983 74.5999 137.63 74.1808 142.238C74.0417 143.434 75.9042 143.81 76.0434 142.614C76.3842 137.888 77.1954 133.359 78.4185 128.811C78.6557 127.635 76.8912 127.279 76.556 128.435Z" fill="#00929D"/>
<path d="M82.4319 133.701C81.5646 136.484 81.0894 139.347 81.1044 142.308C81.0632 143.524 82.9265 143.39 82.9677 142.174C83.0112 139.428 83.4469 136.762 84.2944 134.076C84.5316 132.9 82.7671 132.544 82.4319 133.701Z" fill="#00929D"/>
<path d="M88.901 135.005C88.4646 138.182 88.0281 141.358 87.6114 144.436C87.4723 145.633 89.2367 145.988 89.4739 144.812C89.9104 141.636 90.3469 138.459 90.7636 135.381C90.9027 134.185 89.0402 133.809 88.901 135.005Z" fill="#00929D"/>
</g>
<defs>
<clipPath id="clip0_118_179">
<rect width="97.2" height="139" fill="white" transform="translate(27.4746) rotate(11.4002)"/>
</clipPath>
</defs>
</svg>
