<svg width="62" height="57" viewBox="0 0 62 57" fill="none" xmlns="http://www.w3.org/2000/svg">
<path d="M31.3665 26.372C38.3688 26.372 44.0749 20.6659 44.0749 13.6637C44.0749 6.66136 38.3688 0.955322 31.3665 0.955322C24.3642 0.955322 18.6582 6.66136 18.6582 13.6637C18.6582 20.6659 24.3642 26.372 31.3665 26.372ZM31.3665 3.49699C36.9709 3.49699 41.5332 8.05928 41.5332 13.6637C41.5332 19.268 36.9709 23.8303 31.3665 23.8303C25.7622 23.8303 21.1999 19.268 21.1999 13.6637C21.1999 8.05928 25.7622 3.49699 31.3665 3.49699Z" fill="#FDFEFF"/>
<path d="M31.3662 14.9344C32.0652 14.9344 32.6371 15.5063 32.6371 16.2052C32.6371 16.9042 32.0652 17.476 31.3662 17.476C30.8579 17.476 30.4004 17.171 30.1971 16.7135C29.9175 16.0654 29.1677 15.7731 28.5196 16.0527C27.8714 16.3323 27.5791 17.0821 27.8587 17.7302C28.2908 18.7215 29.1041 19.4458 30.0827 19.8017V20.7167C30.0827 21.4156 30.6546 21.9875 31.3535 21.9875C32.0525 21.9875 32.6243 21.4156 32.6243 20.7167V19.8017C34.0985 19.2806 35.166 17.8827 35.166 16.2179C35.166 14.121 33.4504 12.4054 31.3535 12.4054C30.6546 12.4054 30.0827 11.8335 30.0827 11.1346C30.0827 10.4356 30.6546 9.86375 31.3535 9.86375C31.811 9.86375 32.2304 10.1052 32.4591 10.4992C32.815 11.1092 33.5902 11.3125 34.2002 10.9567C34.8102 10.6008 35.0135 9.82563 34.6577 9.21563C34.2002 8.42771 33.4631 7.86854 32.6243 7.56354V6.62313C32.6243 5.92417 32.0525 5.35229 31.3535 5.35229C30.6546 5.35229 30.0827 5.92417 30.0827 6.62313V7.53813C28.6085 8.05917 27.541 9.45709 27.541 11.1219C27.5537 13.2188 29.2693 14.9344 31.3662 14.9344Z" fill="#FDFEFF"/>
<path d="M50.4284 42.8927C53.9359 42.8927 56.7826 40.046 56.7826 36.5385C56.7826 33.031 53.9359 30.1843 50.4284 30.1843C46.9209 30.1843 44.0742 33.031 44.0742 36.5385C44.0742 40.046 46.9209 42.8927 50.4284 42.8927ZM50.4284 32.726C52.5253 32.726 54.2409 34.4416 54.2409 36.5385C54.2409 38.6354 52.5253 40.351 50.4284 40.351C48.3315 40.351 46.6159 38.6354 46.6159 36.5385C46.6159 34.4416 48.3315 32.726 50.4284 32.726Z" fill="#FDFEFF"/>
<path d="M52.9704 44.1633H47.887C45.1039 44.1633 42.5623 45.4596 40.8975 47.5819C39.2708 45.4977 36.7418 44.1633 33.9079 44.1633H28.8245C25.9906 44.1633 23.4616 45.4977 21.835 47.5819C20.1702 45.4596 17.6285 44.1633 14.8454 44.1633H9.76204C4.85663 44.1633 0.866211 48.1537 0.866211 53.0592V55.6008C0.866211 56.2998 1.43809 56.8717 2.13704 56.8717H21.1995H22.4704H40.262H41.5329H60.5954C61.2943 56.8717 61.8662 56.2998 61.8662 55.6008V53.0592C61.8662 48.1537 57.8758 44.1633 52.9704 44.1633ZM3.40788 53.0592C3.40788 49.5517 6.25454 46.705 9.76204 46.705H14.8454C17.2218 46.705 19.3568 48.0267 20.4498 50.0981C20.1193 51.0258 19.9287 52.0171 19.9287 53.0592V54.33H3.40788V53.0592ZM22.4704 54.33V53.0592C22.4704 49.5517 25.317 46.705 28.8245 46.705H33.9079C37.4154 46.705 40.262 49.5517 40.262 53.0592V54.33H22.4704ZM59.3245 54.33H42.8037V53.0592C42.8037 52.0171 42.6131 51.0258 42.2827 50.0981C43.3756 48.0267 45.5106 46.705 47.887 46.705H52.9704C56.4779 46.705 59.3245 49.5517 59.3245 53.0592V54.33Z" fill="#FDFEFF"/>
<path d="M12.3034 42.8927C15.8109 42.8927 18.6576 40.046 18.6576 36.5385C18.6576 33.031 15.8109 30.1843 12.3034 30.1843C8.79589 30.1843 5.94922 33.031 5.94922 36.5385C5.94922 40.046 8.79589 42.8927 12.3034 42.8927ZM12.3034 32.726C14.4003 32.726 16.1159 34.4416 16.1159 36.5385C16.1159 38.6354 14.4003 40.351 12.3034 40.351C10.2065 40.351 8.49089 38.6354 8.49089 36.5385C8.49089 34.4416 10.2065 32.726 12.3034 32.726Z" fill="#FDFEFF"/>
<path d="M25.0117 36.5385C25.0117 40.046 27.8584 42.8927 31.3659 42.8927C34.8734 42.8927 37.7201 40.046 37.7201 36.5385C37.7201 33.031 34.8734 30.1843 31.3659 30.1843C27.8584 30.1843 25.0117 33.031 25.0117 36.5385ZM35.1784 36.5385C35.1784 38.6354 33.4628 40.351 31.3659 40.351C29.269 40.351 27.5534 38.6354 27.5534 36.5385C27.5534 34.4416 29.269 32.726 31.3659 32.726C33.4628 32.726 35.1784 34.4416 35.1784 36.5385Z" fill="#FDFEFF"/>
</svg>
