<svg width="213" height="267" viewBox="0 0 213 267" fill="none" xmlns="http://www.w3.org/2000/svg">
<g clip-path="url(#clip0_118_511)">
<path d="M18.2485 44.0389C18.1926 43.9396 18.1565 43.8292 18.1601 43.6964C18.1732 42.9307 18.1864 42.1649 18.1995 41.3992C18.2216 41.0206 18.5229 40.7201 18.9015 40.7421C19.28 40.7642 19.5806 41.0656 19.5585 41.4441C19.5342 42.19 19.5211 42.9558 19.5079 43.7215C19.5057 44.0889 19.1845 44.4006 18.8171 44.3984C18.5912 44.3688 18.3603 44.2374 18.2485 44.0389Z" fill="#00929D"/>
<path d="M97.4635 224.276L97.1839 223.779C96.9938 223.442 97.1065 223.039 97.4439 222.848C97.7813 222.658 98.1848 222.771 98.3749 223.108L98.6545 223.605C99.2919 224.736 99.9517 225.907 100.631 227.067C100.81 227.385 100.709 227.808 100.371 227.998C100.034 228.188 99.6306 228.076 99.4404 227.738C98.772 226.598 98.101 225.407 97.4635 224.276ZM94.9646 219.748C94.2438 218.375 93.523 217.003 92.8333 215.64C92.663 215.291 92.8067 214.896 93.1243 214.717C93.4729 214.547 93.8875 214.68 94.0466 215.008C94.7252 216.352 95.4348 217.704 96.1555 219.077C96.3456 219.414 96.2131 219.829 95.8645 219.999C95.5581 220.198 95.1547 220.085 94.9646 219.748ZM101.799 231.692C101.62 231.374 101.732 230.971 102.039 230.772C102.365 230.562 102.769 230.675 102.979 231.001C103.745 232.269 104.565 233.585 105.385 234.901C105.595 235.228 105.494 235.651 105.156 235.841C104.83 236.051 104.407 235.949 104.217 235.612C103.397 234.296 102.588 232.999 101.799 231.692ZM90.8261 211.567C90.8149 211.547 90.8149 211.547 90.8038 211.527C90.1425 210.121 89.4813 208.716 88.8735 207.358C88.7343 207.018 88.8668 206.604 89.2266 206.453C89.5665 206.314 89.9811 206.447 90.1316 206.806C90.7394 208.164 91.3808 209.581 92.0506 210.955C92.2209 211.304 92.0772 211.699 91.7286 211.869C91.3886 212.008 91.0051 211.884 90.8261 211.567ZM106.672 239.459C106.493 239.141 106.585 238.749 106.892 238.55C107.218 238.34 107.641 238.442 107.84 238.748C108.647 239.994 109.486 241.299 110.346 242.593C110.556 242.919 110.474 243.331 110.148 243.541C109.822 243.751 109.41 243.669 109.2 243.343C108.34 242.049 107.5 240.744 106.694 239.499C106.694 239.499 106.683 239.479 106.672 239.459ZM111.703 247.136C111.524 246.819 111.617 246.427 111.924 246.228C112.25 246.018 112.662 246.1 112.872 246.426C113.687 247.64 114.566 248.923 115.426 250.217C115.636 250.543 115.554 250.955 115.248 251.154C114.922 251.364 114.51 251.282 114.311 250.976C113.42 249.673 112.572 248.399 111.745 247.165C111.726 247.176 111.714 247.156 111.703 247.136ZM87.0959 203.182C87.0847 203.162 87.0735 203.142 87.0511 203.103C86.4606 201.683 85.8788 200.233 85.3504 198.831C85.2111 198.491 85.3945 198.074 85.7457 197.954C86.0856 197.815 86.5028 197.999 86.6222 198.35C87.1506 199.752 87.7212 201.182 88.3117 202.602C88.451 202.942 88.2874 203.348 87.9474 203.487C87.6273 203.615 87.2636 203.48 87.0959 203.182ZM116.863 254.716C116.695 254.418 116.788 254.026 117.063 253.818C117.378 253.589 117.801 253.69 118.02 253.985C118.889 255.248 119.757 256.511 120.634 257.743C120.853 258.038 120.762 258.481 120.467 258.7C120.172 258.918 119.729 258.828 119.51 258.533C118.642 257.27 117.753 256.018 116.885 254.756C116.885 254.756 116.874 254.736 116.863 254.716ZM35.882 110.333C35.7925 110.174 35.6919 109.995 35.6024 109.836C35.4123 109.499 35.5448 109.084 35.8624 108.906C36.1998 108.715 36.6032 108.828 36.7934 109.165C37.5427 110.495 38.3118 111.814 39.0697 113.113C39.2797 113.439 39.1472 113.854 38.8408 114.053C38.5034 114.243 38.0999 114.13 37.9011 113.824C37.2215 112.664 36.5418 111.504 35.882 110.333ZM33.4227 105.782L33.4116 105.762C32.702 104.41 32.0209 103.016 31.3709 101.63C31.2006 101.281 31.3443 100.886 31.6929 100.716C32.0415 100.546 32.4363 100.689 32.6066 101.038C33.2454 102.404 33.9463 103.787 34.6249 105.131C34.7952 105.48 34.6515 105.874 34.3339 106.053C34.0163 106.232 33.6017 106.1 33.4227 105.782ZM40.3165 117.693C40.1375 117.375 40.2303 116.983 40.5368 116.784C40.863 116.574 41.2863 116.676 41.4851 116.982C42.3026 118.248 43.1623 119.541 44.0393 120.773C44.2692 121.088 44.1677 121.512 43.8725 121.73C43.5772 121.949 43.1341 121.859 42.9155 121.563C42.0471 120.301 41.1675 119.018 40.3388 117.733C40.3277 117.713 40.3277 117.713 40.3165 117.693ZM83.8358 194.611C83.8135 194.571 83.7911 194.532 83.7799 194.512C83.2688 193.048 82.8086 191.581 82.3596 190.134C82.2601 189.772 82.4658 189.394 82.817 189.275C83.1793 189.176 83.5567 189.381 83.6761 189.732C84.1139 191.159 84.594 192.615 85.0939 194.059C85.2133 194.41 85.0187 194.807 84.6676 194.927C84.3363 195.035 83.9924 194.889 83.8358 194.611ZM29.494 97.5094C29.4828 97.4895 29.4716 97.4697 29.4604 97.4498C28.8501 96.0416 28.2484 94.6024 27.689 93.1917C27.5497 92.8517 27.7133 92.4458 28.0731 92.2953C28.413 92.1561 28.819 92.3196 28.9694 92.6794C29.5289 94.0902 30.1194 95.5096 30.7185 96.8979C30.8577 97.2379 30.714 97.6326 30.3654 97.8029C30.0255 97.9421 29.6617 97.8071 29.494 97.5094ZM45.5553 125.228C45.3875 124.93 45.4605 124.549 45.7359 124.341C46.0311 124.123 46.463 124.193 46.7015 124.477C47.5984 125.698 48.5462 126.916 49.4915 128.083C49.73 128.367 49.6906 128.808 49.3755 129.038C49.0914 129.276 48.6508 129.237 48.421 128.922C47.4646 127.735 46.5366 126.505 45.6087 125.276C45.5777 125.267 45.5665 125.248 45.5553 125.228ZM26.1037 88.9855C26.0813 88.9458 26.0701 88.926 26.0478 88.8863C25.528 87.4532 25.0368 85.9779 24.5567 84.5224C24.4373 84.1713 24.6319 83.774 24.9942 83.6745C25.3454 83.5551 25.7426 83.7496 25.8422 84.112C26.311 85.5476 26.7911 87.003 27.3109 88.4361C27.4303 88.7873 27.2555 89.1733 26.8957 89.3238C26.6041 89.4096 26.2603 89.2634 26.1037 88.9855ZM81.1478 185.848C81.1255 185.809 81.0919 185.749 81.0782 185.678C80.6887 184.198 80.3079 182.687 79.9892 181.193C79.9095 180.819 80.1463 180.45 80.4999 180.382C80.8734 180.302 81.2422 180.539 81.3107 180.893C81.6493 182.375 81.9879 183.858 82.3972 185.327C82.4968 185.69 82.291 186.067 81.9088 186.178C81.606 186.244 81.2932 186.106 81.1478 185.848ZM51.2853 132.381C51.1288 132.103 51.1819 131.733 51.4374 131.537C51.7214 131.298 52.1509 131.318 52.4005 131.622C53.3855 132.767 54.4015 133.92 55.4262 135.043C55.6845 135.316 55.6649 135.745 55.3921 136.003C55.1192 136.262 54.6898 136.242 54.4315 135.969C53.4068 134.847 52.3598 133.685 51.3636 132.52C51.3301 132.46 51.3077 132.421 51.2853 132.381ZM23.2742 80.2503C23.2518 80.2106 23.2183 80.151 23.2158 80.1001C22.8064 78.631 22.4058 77.1308 22.0163 75.6505C21.9168 75.2881 22.1535 74.9194 22.5159 74.8198C22.8782 74.7203 23.247 74.9571 23.3465 75.3194C23.7049 76.7911 24.1143 78.2602 24.5236 79.7294C24.6231 80.0917 24.4174 80.4692 24.0551 80.5687C23.7436 80.6657 23.4308 80.5282 23.2742 80.2503ZM57.4755 139.144C57.3301 138.886 57.3746 138.547 57.5879 138.323C57.8608 138.064 58.279 138.064 58.5572 138.326C59.6104 139.406 60.7144 140.484 61.816 141.511C62.0942 141.772 62.1056 142.21 61.8439 142.488C61.5823 142.767 61.1442 142.778 60.866 142.516C59.7533 141.47 58.6492 140.392 57.5848 139.292C57.5625 139.252 57.5091 139.204 57.4755 139.144ZM79.1534 176.878C79.1199 176.818 79.095 176.728 79.0813 176.657C78.8022 175.141 78.5629 173.602 78.3657 172.092C78.3171 171.727 78.5849 171.367 78.9498 171.318C79.3146 171.269 79.6747 171.537 79.7234 171.902C79.9093 173.392 80.1685 174.92 80.4252 176.397C80.5049 176.77 80.2371 177.13 79.8722 177.179C79.5806 177.265 79.2988 177.136 79.1534 176.878ZM21.0391 71.3632C21.0055 71.3037 20.972 71.2441 20.9583 71.1734C20.6395 69.6793 20.3295 68.1543 20.0814 66.6465C20.0018 66.273 20.2696 65.9129 20.6344 65.8643C21.0079 65.7846 21.368 66.0524 21.4167 66.4173C21.6846 67.9138 21.9834 69.419 22.291 70.8932C22.3707 71.2667 22.1339 71.6355 21.7604 71.7152C21.4973 71.7588 21.1845 71.6213 21.0391 71.3632ZM64.1432 145.456C64.009 145.217 64.0336 144.89 64.2271 144.676C64.4888 144.398 64.9157 144.367 65.1827 144.608C66.3239 145.613 67.485 146.606 68.6746 147.557C68.9615 147.788 69.004 148.235 68.7733 148.522C68.5427 148.808 68.0959 148.851 67.8091 148.62C66.6393 147.658 65.4472 146.656 64.2948 145.632C64.2414 145.583 64.1768 145.515 64.1432 145.456ZM77.9284 167.788C77.8837 167.709 77.8588 167.618 77.8538 167.516C77.7162 165.972 77.6096 164.437 77.5341 162.911C77.5053 162.535 77.8153 162.203 78.1827 162.205C78.5587 162.177 78.8903 162.487 78.8881 162.854C78.9524 164.361 79.059 165.896 79.194 167.389C79.2228 167.765 78.9438 168.105 78.5678 168.134C78.3246 168.166 78.0626 168.026 77.9284 167.788ZM19.4492 62.3218C19.4045 62.2424 19.3908 62.1717 19.3659 62.0811C19.1576 60.551 18.9691 59.0097 18.803 57.5081C18.7742 57.1321 19.0334 56.803 19.3982 56.7544C19.7742 56.7256 20.1033 56.9847 20.152 57.3496C20.3181 58.8512 20.4953 60.3726 20.7123 61.8717C20.761 62.2365 20.513 62.5854 20.1283 62.6453C19.8454 62.7001 19.5834 62.56 19.4492 62.3218ZM71.2549 151.255C71.1207 151.017 71.1366 150.72 71.299 150.498C71.5185 150.191 71.9541 150.129 72.2608 150.348C73.1834 151.058 74.1457 151.745 75.0968 152.412C75.3923 152.611 75.668 152.822 75.9635 153.022C76.2702 153.241 76.3524 153.666 76.133 153.972C75.9135 154.279 75.4891 154.361 75.1824 154.142C74.8869 153.942 74.5914 153.742 74.3157 153.532C73.3534 152.845 72.3911 152.158 71.4573 151.429C71.3642 151.403 71.2996 151.335 71.2549 151.255ZM77.5262 158.627C77.4703 158.527 77.4342 158.417 77.4378 158.284C77.433 156.744 77.4679 155.181 77.5563 153.667C77.5783 153.289 77.8909 153.008 78.2694 153.03C78.648 153.052 78.9287 153.365 78.9066 153.743C78.8773 154.387 78.8393 155.063 78.8211 155.727C79.0319 155.451 79.4364 155.38 79.7208 155.56C81.0158 156.373 82.3306 157.175 83.6119 157.917C83.9273 158.106 84.0604 158.528 83.8521 158.854C83.6637 159.17 83.2418 159.303 82.9153 159.094C81.6029 158.343 80.2769 157.521 78.9707 156.688C78.8863 156.631 78.8329 156.583 78.7881 156.503C78.7761 157.086 78.7641 157.668 78.7633 158.27C78.7611 158.637 78.4709 158.957 78.0725 158.946C77.8603 158.987 77.6492 158.845 77.5262 158.627ZM18.5183 53.1968C18.4736 53.1174 18.4375 53.007 18.4325 52.9052C18.3259 51.3701 18.2591 49.8126 18.2146 48.2948C18.2056 47.9076 18.507 47.607 18.8831 47.5782C19.2703 47.5693 19.5708 47.8706 19.5996 48.2467C19.6441 49.7645 19.7196 51.2909 19.815 52.8062C19.8438 53.1823 19.5536 53.5027 19.1776 53.5315C18.8835 53.5664 18.6413 53.4152 18.5183 53.1968ZM77.9716 149.484C77.9045 149.365 77.8771 149.224 77.8807 149.091C78.0286 147.543 78.2385 146.013 78.4596 144.502C78.5128 144.133 78.8675 143.88 79.2374 143.934C79.6073 143.987 79.8595 144.341 79.8064 144.711C79.5741 146.202 79.384 147.721 79.2336 149.218C79.1917 149.608 78.8679 149.869 78.4782 149.827C78.2834 149.806 78.0723 149.663 77.9716 149.484ZM86.7267 161.079C86.6149 160.88 86.6135 160.646 86.725 160.426C86.9023 160.091 87.3043 159.969 87.6594 160.135C89.0201 160.833 90.4006 161.519 91.7563 162.115C92.1002 162.262 92.2531 162.672 92.0871 163.027C91.9408 163.371 91.5302 163.524 91.1751 163.358C89.797 162.722 88.3967 162.047 87.0248 161.329C86.8895 161.275 86.7938 161.198 86.7267 161.079ZM79.3802 140.427C79.3019 140.288 79.2633 140.127 79.3153 139.941C79.6382 138.425 80.012 136.907 80.4193 135.449C80.5233 135.076 80.9004 134.864 81.2529 134.979C81.6253 135.083 81.8378 135.46 81.7226 135.813C81.324 137.24 80.9589 138.727 80.6559 140.232C80.5717 140.593 80.217 140.845 79.8558 140.761C79.6385 140.7 79.4697 140.586 79.3802 140.427ZM95.0855 164.868C94.9849 164.69 94.9748 164.486 95.0467 164.289C95.1929 163.945 95.5812 163.752 95.9251 163.898C97.3601 164.45 98.8039 164.97 100.214 165.431C100.567 165.546 100.759 165.934 100.644 166.287C100.529 166.639 100.141 166.832 99.788 166.717C98.3468 166.247 96.8832 165.738 95.437 165.167C95.2818 165.124 95.1638 165.007 95.0855 164.868ZM81.85 131.583C81.7606 131.424 81.7195 131.212 81.7913 131.015C82.3004 129.551 82.8603 128.085 83.465 126.698C83.6112 126.354 84.0107 126.182 84.3658 126.348C84.7097 126.494 84.8825 126.893 84.7164 127.248C84.1316 128.624 83.5691 130.039 83.0687 131.472C82.9535 131.824 82.5652 132.017 82.2015 131.882C82.0463 131.839 81.9283 131.722 81.85 131.583ZM103.815 167.691C103.736 167.552 103.707 167.359 103.739 167.184C103.823 166.823 104.189 166.591 104.561 166.695C106.048 167.06 107.544 167.394 108.995 167.649C109.376 167.722 109.617 168.056 109.544 168.438C109.471 168.819 109.136 169.06 108.755 168.987C107.273 168.723 105.726 168.392 104.228 168.007C104.053 167.975 103.904 167.849 103.815 167.691ZM85.4533 123.172C85.3414 122.974 85.34 122.739 85.4516 122.519C86.1692 121.147 86.9489 119.793 87.7622 118.498C87.9705 118.171 88.3837 118.069 88.7102 118.278C89.0368 118.486 89.119 118.91 88.9305 119.226C88.1458 120.478 87.3748 121.802 86.677 123.163C86.4997 123.498 86.0977 123.62 85.7426 123.454C85.616 123.368 85.5204 123.291 85.4533 123.172ZM112.84 169.274C112.773 169.155 112.745 169.014 112.749 168.881C112.771 168.502 113.115 168.23 113.504 168.272C114.272 168.336 115.072 168.409 115.829 168.453C116.555 168.489 117.301 168.513 118.036 168.517C118.403 168.52 118.715 168.841 118.712 169.208C118.71 169.575 118.389 169.887 118.022 169.885C117.287 169.88 116.51 169.848 115.764 169.823C114.976 169.77 114.168 169.729 113.389 169.645C113.14 169.576 112.94 169.453 112.84 169.274ZM90.344 115.422C90.2098 115.184 90.2257 114.887 90.3881 114.665C91.3168 113.436 92.3076 112.224 93.3431 111.091C93.6048 110.813 94.0317 110.782 94.3099 111.043C94.5881 111.305 94.6194 111.732 94.3577 112.01C93.3619 113.12 92.3997 114.29 91.4796 115.488C91.2601 115.795 90.8246 115.857 90.5179 115.638C90.4533 115.57 90.3887 115.501 90.344 115.422ZM122.004 169.341C121.959 169.262 121.934 169.171 121.929 169.069C121.9 168.693 122.179 168.353 122.555 168.324C124.06 168.209 125.559 167.992 127.035 167.735C127.409 167.656 127.758 167.904 127.837 168.277C127.917 168.651 127.669 169 127.296 169.079C125.779 169.358 124.218 169.558 122.674 169.696C122.389 169.7 122.127 169.559 122.004 169.341ZM96.4752 108.62C96.3186 108.343 96.363 108.004 96.6074 107.788C97.7497 106.752 98.9653 105.753 100.237 104.854C100.532 104.635 100.964 104.705 101.194 105.02C101.412 105.316 101.342 105.748 101.027 105.977C99.7951 106.855 98.608 107.811 97.5252 108.813C97.2524 109.072 96.823 109.052 96.5646 108.779C96.5199 108.7 96.4975 108.66 96.4752 108.62ZM131.012 167.692C130.989 167.652 130.956 167.592 130.953 167.542C130.854 167.179 131.059 166.802 131.422 166.702C132.88 166.273 134.315 165.804 135.695 165.236C136.035 165.097 136.441 165.26 136.591 165.62C136.731 165.96 136.567 166.366 136.207 166.517C134.777 167.087 133.313 167.598 131.804 168.03C131.501 168.096 131.168 167.97 131.012 167.692ZM103.923 103.274C103.733 102.936 103.865 102.522 104.183 102.343C105.544 101.602 106.938 100.921 108.378 100.319C108.718 100.18 109.123 100.344 109.263 100.684C109.402 101.024 109.238 101.429 108.898 101.569C107.499 102.148 106.144 102.807 104.823 103.525C104.516 103.724 104.113 103.611 103.923 103.274ZM139.513 164.262C139.323 163.924 139.456 163.51 139.793 163.32C140.031 163.185 140.269 163.051 140.508 162.917C141.579 162.313 142.618 161.65 143.614 160.958C143.909 160.739 144.352 160.829 144.571 161.124C144.801 161.44 144.719 161.852 144.404 162.081C143.368 162.796 142.29 163.482 141.179 164.108C140.921 164.253 140.682 164.387 140.424 164.533C140.107 164.712 139.692 164.579 139.513 164.262ZM112.38 99.7643C112.357 99.7246 112.335 99.6849 112.321 99.6141C112.222 99.2518 112.427 98.8744 112.779 98.755C114.256 98.3146 115.779 97.9537 117.315 97.6634C117.689 97.5837 118.038 97.8317 118.117 98.2052C118.197 98.5787 117.949 98.9276 117.576 99.0073C116.11 99.2839 114.627 99.6225 113.189 100.04C112.849 100.18 112.525 100.022 112.38 99.7643ZM147.017 159.014C146.86 158.736 146.925 158.386 147.149 158.181C148.263 157.188 149.321 156.095 150.286 154.976C150.536 154.678 150.963 154.647 151.241 154.908C151.539 155.159 151.57 155.586 151.309 155.864C150.296 157.036 149.198 158.151 148.036 159.198C147.763 159.457 147.322 159.417 147.064 159.144C147.062 159.094 147.039 159.054 147.017 159.014ZM121.388 98.1148C121.343 98.0355 121.307 97.925 121.302 97.8232C121.273 97.4472 121.563 97.1268 121.939 97.098C123.494 96.9803 125.054 96.9643 126.608 97.0303C126.987 97.0523 127.267 97.3649 127.265 97.7323C127.243 98.1108 126.93 98.3915 126.563 98.3893C125.091 98.3295 123.562 98.3541 122.058 98.4693C121.753 98.4844 121.511 98.3332 121.388 98.1148ZM152.968 152.079C152.845 151.86 152.852 151.595 152.984 151.364C153.78 150.131 154.5 148.81 155.135 147.432C155.282 147.088 155.692 146.935 156.047 147.101C156.391 147.247 156.544 147.658 156.378 148.013C155.725 149.453 154.957 150.828 154.112 152.114C153.904 152.44 153.48 152.523 153.153 152.314C153.1 152.266 153.024 152.178 152.968 152.079ZM130.527 98.5094C130.449 98.3705 130.421 98.229 130.454 98.054C130.507 97.6841 130.861 97.4319 131.231 97.485C132.784 97.7347 134.311 98.0774 135.792 98.5244C136.164 98.6284 136.357 99.0167 136.242 99.3692C136.138 99.7416 135.749 99.9343 135.397 99.8191C133.978 99.3894 132.513 99.064 131.011 98.8119C130.797 98.8021 130.617 98.6682 130.527 98.5094ZM156.822 143.788C156.733 143.629 156.703 143.437 156.755 143.251C157.184 141.832 157.561 140.365 157.824 138.883C157.897 138.502 158.252 138.249 158.613 138.334C158.994 138.407 159.246 138.761 159.162 139.123C158.881 140.667 158.508 142.185 158.049 143.646C157.934 143.998 157.557 144.211 157.204 144.096C157.049 144.052 156.9 143.927 156.822 143.788ZM139.286 101.106C139.185 100.927 139.164 100.704 139.256 100.495C139.402 100.151 139.813 99.9985 140.156 100.145C141.585 100.778 142.98 101.535 144.286 102.368C144.612 102.577 144.695 103.001 144.506 103.316C144.298 103.643 143.874 103.725 143.558 103.537C142.305 102.752 140.984 102.032 139.617 101.416C139.471 101.342 139.353 101.225 139.286 101.106ZM158.468 134.78C158.401 134.661 158.384 134.54 158.388 134.407C158.487 132.913 158.474 131.403 158.39 129.908C158.361 129.532 158.651 129.212 159.027 129.183C159.403 129.154 159.724 129.444 159.752 129.82C159.839 131.367 159.835 132.938 159.738 134.483C159.716 134.862 159.384 135.153 159.025 135.12C158.791 135.122 158.58 134.979 158.468 134.78ZM157.944 125.635C157.91 125.576 157.885 125.485 157.872 125.414C157.615 123.938 157.257 122.466 156.799 121.05C156.679 120.699 156.885 120.322 157.236 120.202C157.588 120.083 157.965 120.289 158.096 120.66C158.556 122.126 158.917 123.649 159.207 125.185C159.287 125.559 159.019 125.919 158.654 125.967C158.351 126.033 158.089 125.893 157.944 125.635ZM147.016 106.008C146.882 105.77 146.907 105.442 147.1 105.228C147.351 104.93 147.777 104.899 148.056 105.161C149.228 106.174 150.354 107.291 151.382 108.465C151.62 108.749 151.6 109.178 151.316 109.417C151.032 109.655 150.603 109.635 150.364 109.351C149.391 108.226 148.318 107.157 147.199 106.193C147.083 106.127 147.05 106.067 147.016 106.008ZM155.207 116.926C155.196 116.906 155.185 116.886 155.185 116.886C154.546 115.52 153.828 114.199 153.022 112.954C152.812 112.627 152.913 112.204 153.22 112.005C153.546 111.795 153.969 111.897 154.168 112.203C155.008 113.508 155.76 114.889 156.421 116.295C156.591 116.643 156.428 117.049 156.099 117.208C155.759 117.348 155.375 117.224 155.207 116.926Z" fill="#00929D"/>
<path d="M122.144 262.279C121.976 261.981 122.069 261.589 122.344 261.382C122.639 261.163 123.071 261.233 123.301 261.549L124.618 263.422C124.817 263.728 124.766 264.149 124.451 264.379C124.156 264.597 123.724 264.527 123.494 264.212L122.177 262.339C122.166 262.319 122.155 262.299 122.144 262.279Z" fill="#00929D"/>
</g>
<defs>
<clipPath id="clip0_118_511">
<rect width="246.741" height="104.484" fill="white" transform="translate(91.0298) rotate(60.6027)"/>
</clipPath>
</defs>
</svg>
