<svg width="38" height="40" viewBox="0 0 38 40" fill="none" xmlns="http://www.w3.org/2000/svg">
<g clip-path="url(#clip0_186_10287)">
<path d="M8.17774 18.8178L26.6304 25.1231C27.2342 25.382 27.9141 25.4008 28.5313 25.1757C29.1485 24.9505 29.6565 24.4984 29.9518 23.9115C30.2289 23.31 30.257 22.6234 30.0301 22.0013C29.8031 21.3791 29.3395 20.8719 28.7402 20.5901L10.2876 14.2848C9.68218 14.0253 9.00046 14.0071 8.38213 14.2341C7.76379 14.461 7.25567 14.9159 6.96191 15.5054C6.68486 16.1069 6.65674 16.7935 6.88368 17.4157C7.11063 18.0378 7.57424 18.545 8.17352 18.8269L8.17774 18.8178Z" fill="#FFE66C"/>
<path d="M23.5944 9.20504L27.6679 17.4212C27.9106 18.0313 28.3687 18.5311 28.9555 18.8257C29.2529 18.9656 29.5751 19.0452 29.9034 19.06C30.2318 19.0747 30.5598 19.0244 30.8686 18.9117C31.1773 18.7991 31.4608 18.6264 31.7025 18.4037C31.9442 18.181 32.1394 17.9126 32.2769 17.6141C32.4222 17.3184 32.5047 16.9958 32.5194 16.6666C32.534 16.3375 32.4804 16.0088 32.362 15.7014L28.3339 7.50629C28.0804 6.88309 27.6057 6.37542 27.001 6.0807C26.3986 5.80498 25.7126 5.77448 25.0882 5.99564C24.4658 6.22476 23.9593 6.69093 23.6795 7.29231C23.5387 7.58942 23.4587 7.91165 23.4441 8.2401C23.4295 8.56855 23.4806 8.89661 23.5944 9.20504Z" fill="#FFE66C"/>
<path d="M18.1172 36.1394L26.3696 32.0828C27.0045 31.8288 27.5188 31.3424 27.8079 30.7227C28.0849 30.1212 28.1131 29.4346 27.8861 28.8125C27.6592 28.1903 27.1956 27.6831 26.5963 27.4013C26.2985 27.2597 25.9751 27.18 25.6456 27.167C25.3161 27.1539 24.9874 27.2078 24.6793 27.3253L16.4311 31.3728C15.8194 31.6192 15.3186 32.0802 15.0224 32.6694C14.8825 32.9669 14.8029 33.289 14.7881 33.6174C14.7734 33.9457 14.8237 34.2737 14.9364 34.5825C15.049 34.8913 15.2217 35.1747 15.4444 35.4164C15.6671 35.6582 15.9355 35.8534 16.234 35.9909C16.8173 36.288 17.4946 36.3414 18.1172 36.1394Z" fill="#FFE66C"/>
</g>
<defs>
<clipPath id="clip0_186_10287">
<rect width="25.32" height="31.68" fill="white" transform="translate(14.1357 0.0930176) rotate(24.959)"/>
</clipPath>
</defs>
</svg>
