<svg width="153" height="149" viewBox="0 0 153 149" fill="none" xmlns="http://www.w3.org/2000/svg">
<g clip-path="url(#clip0_118_227)">
<path d="M94.6089 130.526C94.6089 132.226 94.9089 133.826 95.5089 135.426C95.9089 136.526 97.7089 136.026 97.3089 134.926C96.7089 133.526 96.5089 132.026 96.4089 130.526C96.5089 129.326 94.6089 129.226 94.6089 130.526Z" fill="#F2CF3D"/>
<path d="M79.5089 134.426C80.1089 134.426 80.8089 134.426 81.4089 134.426C82.6089 134.426 82.6089 132.526 81.4089 132.526C80.8089 132.526 80.1089 132.526 79.5089 132.526C78.3089 132.626 78.3089 134.426 79.5089 134.426Z" fill="#F2CF3D"/>
<path d="M83.2085 132.026C83.2085 133.326 83.2085 134.526 83.2085 135.826C83.2085 137.026 85.1085 137.026 85.1085 135.826C85.1085 134.526 85.1085 133.326 85.1085 132.026C85.0085 130.826 83.2085 130.826 83.2085 132.026Z" fill="#F2CF3D"/>
<path d="M85.1089 126.326C85.1089 127.126 85.1089 127.926 85.1089 128.626C85.1089 129.826 87.0089 129.826 87.0089 128.626C87.0089 128.326 87.0089 128.126 87.0089 127.826C87.0089 126.626 85.1089 126.626 85.1089 127.826C85.1089 128.126 85.1089 128.326 85.1089 128.626C85.1089 129.826 87.0089 129.826 87.0089 128.626C87.0089 127.826 87.0089 127.026 87.0089 126.326C87.0089 125.126 85.1089 125.126 85.1089 126.326Z" fill="#F2CF3D"/>
<path d="M80.9088 126.526C81.0088 127.326 81.2088 128.026 81.3088 128.826C81.4088 129.326 82.0088 129.626 82.5088 129.526C83.0088 129.426 83.2088 128.826 83.2088 128.326C83.1088 127.526 82.9088 126.826 82.8088 126.026C82.7088 125.526 82.1088 125.226 81.6088 125.326C81.0088 125.526 80.8088 126.026 80.9088 126.526Z" fill="#F2CF3D"/>
<path d="M88.5089 124.726C88.5089 125.626 88.6089 126.526 88.9089 127.426C89.5089 127.226 90.1089 127.126 90.7089 126.926C90.6089 126.626 90.5089 126.326 90.4089 126.026C90.2089 125.526 89.8089 125.226 89.2089 125.326C88.7089 125.426 88.4089 126.026 88.5089 126.526C88.6089 126.826 88.7089 127.126 88.8089 127.426C89.0089 127.926 89.4089 128.226 90.0089 128.126C90.5089 128.026 90.8089 127.426 90.7089 126.926C90.5089 126.226 90.4089 125.526 90.4089 124.726C90.4089 123.526 88.6089 123.526 88.5089 124.726Z" fill="#F2CF3D"/>
<path d="M93.5087 124.726C93.4087 125.926 93.7087 127.226 94.3087 128.226C94.9087 129.226 96.5087 128.326 95.9087 127.326C95.4087 126.526 95.2087 125.626 95.3087 124.726C95.4087 123.526 93.5087 123.626 93.5087 124.726Z" fill="#F2CF3D"/>
<path d="M97.6089 127.026C97.6089 128.826 97.6089 130.626 97.6089 132.326C97.6089 133.526 99.5089 133.526 99.5089 132.326C99.5089 130.526 99.5089 128.726 99.5089 127.026C99.5089 125.826 97.6089 125.826 97.6089 127.026Z" fill="#F2CF3D"/>
<path d="M94.6086 137.226C94.8086 138.226 94.7086 139.226 94.4086 140.226C94.1086 141.426 95.9086 141.926 96.2086 140.726C96.6086 139.426 96.6086 138.126 96.4086 136.726C96.2086 135.526 94.4086 136.026 94.6086 137.226Z" fill="#F2CF3D"/>
<path d="M92.3088 135.826C92.5088 137.326 92.4088 138.726 92.1088 140.126C91.8088 141.326 93.6088 141.826 93.9088 140.626C94.3088 139.026 94.4088 137.426 94.2088 135.826C94.0088 134.626 92.1088 134.626 92.3088 135.826Z" fill="#F2CF3D"/>
<path d="M90.1086 137.426C89.8086 138.626 89.6086 139.826 89.7086 141.126C89.8086 142.326 91.6086 142.326 91.6086 141.126C91.5086 140.026 91.6086 139.026 91.9086 137.926C92.2086 136.826 90.4086 136.326 90.1086 137.426Z" fill="#F2CF3D"/>
<path d="M83.0085 141.526C82.9085 142.526 83.0085 143.526 83.2085 144.426C83.5085 145.626 85.3085 145.126 85.0085 143.926C84.8085 143.126 84.8085 142.326 84.8085 141.526C84.8085 141.026 84.3085 140.626 83.9085 140.626C83.4085 140.526 83.1085 141.026 83.0085 141.526Z" fill="#F2CF3D"/>
<path d="M79.3088 140.426C79.0088 141.826 78.6088 143.026 77.9088 144.226C78.5088 144.426 79.0088 144.726 79.6088 144.926C79.8088 144.326 79.9088 143.726 80.1088 143.126C80.4088 141.926 78.6088 141.426 78.3088 142.626C78.1088 143.226 78.0088 143.826 77.8088 144.426C77.5088 145.426 79.0088 146.126 79.5088 145.126C80.2088 143.726 80.8088 142.326 81.1088 140.826C81.3088 139.826 79.5088 139.326 79.3088 140.426Z" fill="#F2CF3D"/>
<path d="M75.2085 143.526C75.0085 144.326 75.5085 145.126 76.2085 145.426C76.7085 145.626 77.2085 145.226 77.4085 144.726C77.5085 144.226 77.2085 143.726 76.7085 143.526C76.8085 143.626 76.9085 143.626 76.8085 143.526L76.9085 143.626C76.8085 143.526 77.0085 143.826 76.9085 143.626C76.9085 143.526 76.9085 143.626 76.9085 143.726C76.9085 143.626 76.9085 143.626 76.9085 143.726C76.9085 143.826 76.9085 143.826 76.9085 143.726C76.9085 143.926 76.9085 143.926 76.9085 143.826C77.0085 143.326 76.7085 142.826 76.2085 142.626C75.9085 142.826 75.4085 143.026 75.2085 143.526Z" fill="#F2CF3D"/>
<path d="M91.2085 133.926C91.0085 135.326 91.1085 136.626 91.4085 138.026C91.6085 139.226 93.5085 138.726 93.2085 137.526C92.9085 136.326 92.9085 135.126 93.1085 133.926C93.2085 133.426 92.6085 133.026 92.2085 133.026C91.6085 132.926 91.3085 133.426 91.2085 133.926Z" fill="#F2CF3D"/>
<path d="M96.9086 126.326C97.1086 129.226 96.7086 132.026 95.8086 134.826C95.4086 135.926 97.2086 136.426 97.6086 135.326C98.6086 132.426 99.0086 129.426 98.8086 126.326C98.7086 125.126 96.8086 125.126 96.9086 126.326Z" fill="#F2CF3D"/>
<path d="M91.4086 133.126C91.2086 135.626 91.1086 138.226 90.9086 140.726C90.8086 141.926 92.7086 141.926 92.8086 140.726C93.0086 138.226 93.1086 135.626 93.3086 133.126C93.3086 131.926 91.5086 131.926 91.4086 133.126Z" fill="#F2CF3D"/>
<path d="M87.7085 135.126C87.3085 136.926 87.2085 138.826 87.3085 140.726C87.4085 141.926 89.3085 141.926 89.2085 140.726C89.1085 139.026 89.1085 137.326 89.5085 135.626C89.8085 134.526 88.0085 134.026 87.7085 135.126Z" fill="#F2CF3D"/>
<path d="M84.7085 135.826C84.7085 137.426 84.7085 139.126 84.7085 140.726C84.7085 141.926 86.6085 141.926 86.6085 140.726C86.6085 139.126 86.6085 137.426 86.6085 135.826C86.6085 134.626 84.7085 134.626 84.7085 135.826Z" fill="#F2CF3D"/>
<path d="M81.5085 134.626C81.5085 136.926 81.3085 139.126 80.8085 141.226C80.5085 142.426 82.3085 142.926 82.6085 141.726C83.2085 139.426 83.4085 137.026 83.4085 134.626C83.3085 133.426 81.5085 133.426 81.5085 134.626Z" fill="#F2CF3D"/>
<path d="M76.3086 131.626C76.4086 134.926 76.6086 138.226 76.7086 141.526C76.7086 142.726 78.6086 142.726 78.6086 141.526C78.5086 138.226 78.3086 134.926 78.2086 131.626C78.2086 130.426 76.3086 130.426 76.3086 131.626Z" fill="#F2CF3D"/>
<path d="M78.7085 126.626C78.7085 130.926 79.1085 135.226 79.9085 139.526C80.1085 140.726 81.9085 140.226 81.7085 139.026C80.9085 134.926 80.6085 130.826 80.6085 126.626C80.5085 125.426 78.7085 125.426 78.7085 126.626Z" fill="#F2CF3D"/>
<path d="M82.7089 128.526C82.6089 131.626 82.9089 134.726 83.5089 137.826C83.6089 138.526 84.6089 138.726 85.1089 138.226C85.4089 137.926 85.7089 137.526 86.0089 137.226C86.8089 136.326 85.5089 135.026 84.7089 135.926C84.4089 136.226 84.1089 136.626 83.8089 136.926C84.3089 137.026 84.8089 137.226 85.4089 137.326C84.8089 134.426 84.6089 131.526 84.7089 128.526C84.6089 127.326 82.7089 127.326 82.7089 128.526Z" fill="#F2CF3D"/>
<path d="M86.9088 127.426C87.1088 130.826 87.3088 134.326 87.6088 137.726C87.7088 138.926 89.5088 138.926 89.5088 137.726C89.3088 134.326 89.1088 130.826 88.8088 127.426C88.6088 126.226 86.8088 126.226 86.9088 127.426Z" fill="#F2CF3D"/>
<path d="M90.4088 127.826C90.7088 129.826 90.8088 131.926 90.8088 133.926C90.8088 135.326 90.4088 136.826 91.3088 137.926C91.6088 138.226 92.1088 138.226 92.4088 138.026C92.9088 137.726 93.0088 137.426 93.1088 136.826C93.1088 136.426 92.8088 136.026 92.4088 135.926C92.3088 135.926 92.3088 135.926 92.2088 135.926C91.0088 135.526 90.6088 137.426 91.7088 137.726C91.8088 137.726 91.8088 137.726 91.9088 137.726C91.7088 137.426 91.4088 137.126 91.2088 136.826C91.2088 136.926 91.2088 137.026 91.2088 137.126C91.4088 136.826 91.5088 136.626 91.7088 136.326C91.6088 136.326 91.6088 136.426 91.5088 136.426C91.9088 136.426 92.3088 136.526 92.6088 136.526C92.4088 136.326 92.6088 135.326 92.6088 134.926C92.6088 134.126 92.6088 133.226 92.6088 132.426C92.6088 130.826 92.4088 129.326 92.2088 127.726C92.1088 126.626 90.2088 126.626 90.4088 127.826Z" fill="#F2CF3D"/>
<path d="M93.6087 127.326C94.3087 131.526 94.7087 135.726 94.6087 140.026C94.6087 141.226 96.5087 141.226 96.5087 140.026C96.5087 135.626 96.2087 131.226 95.4087 126.826C95.2087 125.626 93.4087 126.126 93.6087 127.326Z" fill="#F2CF3D"/>
<path d="M83.9087 41.0257C85.2087 40.7257 86.5087 41.0257 87.6087 41.8257C88.6087 42.5257 89.5087 40.9257 88.5087 40.2257C87.0087 39.2257 85.2087 38.9257 83.4087 39.3257C82.2087 39.5257 82.7087 41.3257 83.9087 41.0257Z" fill="#F2CF3D"/>
<path d="M100.409 46.1257C101.509 46.6257 102.309 47.5257 102.809 48.6257C103.009 49.1257 103.709 49.2257 104.109 48.9257C104.609 48.6257 104.609 48.1257 104.409 47.6257C103.809 46.2257 102.709 45.1257 101.309 44.4257C100.809 44.2257 100.309 44.3257 100.009 44.7257C99.8087 45.3257 99.9087 45.9257 100.409 46.1257Z" fill="#F2CF3D"/>
<path d="M111.509 58.5259C111.809 59.2259 112.009 60.0259 112.109 60.8259C112.209 61.3259 112.509 61.7259 113.009 61.7259C113.509 61.7259 114.009 61.3259 113.909 60.8259C113.809 59.7259 113.509 58.6259 113.009 57.5259C112.809 57.0259 112.109 56.9259 111.709 57.2259C111.309 57.5259 111.209 58.1259 111.509 58.5259Z" fill="#F2CF3D"/>
<path d="M109.709 79.4258C109.309 81.0258 108.609 82.5258 107.609 84.0258C106.909 85.0258 108.509 85.9258 109.209 84.9258C110.209 83.4258 111.009 81.7258 111.409 79.9258C111.809 78.7258 110.009 78.2258 109.709 79.4258Z" fill="#F2CF3D"/>
<path d="M75.0089 50.4258C75.9089 50.5258 76.7089 50.8258 77.4089 51.4258C78.3089 52.2258 79.6089 50.9258 78.7089 50.1258C77.6089 49.2258 76.4089 48.7258 75.0089 48.6258C73.8089 48.4258 73.8089 50.2258 75.0089 50.4258Z" fill="#F2CF3D"/>
<path d="M90.6086 57.7259C91.0086 58.1259 91.4086 58.6259 91.6086 59.1259C91.8086 59.6259 92.2086 59.9259 92.8086 59.8259C93.3086 59.7259 93.6086 59.1259 93.5086 58.6259C93.2086 57.8259 92.7086 57.0259 92.0086 56.4259C91.0086 55.5259 89.7086 56.8259 90.6086 57.7259Z" fill="#F2CF3D"/>
<path d="M96.9089 72.8257C96.8089 75.1257 96.3089 77.3257 95.2089 79.4257C94.7089 80.5257 96.3089 81.4257 96.8089 80.3257C98.0089 77.9257 98.6089 75.4258 98.7089 72.7258C98.8089 71.6258 96.9089 71.6257 96.9089 72.8257Z" fill="#F2CF3D"/>
<path d="M77.5088 133.526C77.5088 134.326 77.5088 135.026 77.5088 135.826C77.5088 137.026 79.4088 137.026 79.4088 135.826C79.4088 135.026 79.4088 134.326 79.4088 133.526C79.3088 132.326 77.5088 132.326 77.5088 133.526Z" fill="#F2CF3D"/>
<path d="M78.2086 128.826C78.2086 128.226 77.3086 128.226 77.3086 128.826C77.8086 134.726 78.3086 140.726 78.9086 146.626C78.9086 147.226 79.8086 147.226 79.8086 146.626C79.3086 140.726 78.7086 134.726 78.2086 128.826Z" fill="#00929D"/>
<path d="M84.3089 139.926C83.7089 135.826 83.2089 131.826 82.6089 127.726C82.5089 127.126 81.7089 127.426 81.8089 127.926C82.4089 132.026 82.9089 136.026 83.5089 140.126C83.5089 140.726 84.4089 140.426 84.3089 139.926Z" fill="#00929D"/>
<path d="M88.2088 140.226C87.5088 135.226 86.8088 130.126 86.0088 125.126C85.9088 124.526 85.1088 124.826 85.2088 125.326C85.9088 130.326 86.6088 135.426 87.4088 140.426C87.5088 141.026 88.3088 140.826 88.2088 140.226Z" fill="#00929D"/>
<path d="M92.1089 141.926C91.1089 135.726 90.6089 129.526 90.5089 123.226C90.5089 122.626 89.6089 122.626 89.6089 123.226C89.6089 129.526 90.2089 135.926 91.2089 142.126C91.4089 142.726 92.2089 142.426 92.1089 141.926Z" fill="#00929D"/>
<path d="M72.3089 128.726C72.3089 134.026 72.0089 139.326 72.3089 144.626C72.6089 149.826 77.5089 148.826 81.1089 148.026C86.2089 146.826 91.2089 145.626 96.3089 144.426C98.1089 144.026 99.9089 143.526 100.809 141.826C101.909 139.926 101.809 137.226 101.909 135.126C102.109 131.226 102.509 125.726 99.5089 122.726C96.8089 120.126 92.7089 120.326 89.3089 120.726C84.4089 121.426 79.6089 122.826 74.9089 124.326C71.6089 125.426 67.4089 126.826 66.9089 130.826C66.6089 133.026 67.9089 135.226 70.2089 135.326C72.6089 135.526 75.2089 133.926 77.4089 133.326C80.1089 132.526 82.9089 131.826 85.7089 131.326C87.3089 131.026 90.8089 129.926 92.2089 131.326C92.0089 130.626 91.8089 130.026 91.7089 129.326C91.5089 130.426 89.5089 131.226 88.6089 131.826C87.3089 132.726 86.0089 133.526 84.7089 134.426C82.1089 136.126 79.4089 137.926 76.8089 139.626C74.6089 141.126 76.7089 144.626 78.9089 143.226C82.9089 140.526 87.0089 137.926 91.0089 135.226C93.4089 133.626 98.4089 130.126 94.0089 127.526C90.8089 125.526 85.9089 127.126 82.5089 127.826C80.4089 128.226 78.4089 128.826 76.3089 129.426C75.2089 129.726 74.0089 130.126 72.9089 130.526C72.5089 130.726 72.0089 130.826 71.6089 131.026C71.4089 131.126 71.1089 131.226 70.9089 131.226C70.6089 131.226 70.6089 131.326 70.9089 131.526C71.3089 130.026 73.1089 129.426 74.4089 128.926C76.6089 128.126 78.8089 127.426 81.1089 126.826C85.0089 125.726 89.5089 124.326 93.6089 124.626C94.9089 124.726 96.5089 125.126 97.2089 126.326C98.2089 128.126 97.9089 131.226 97.9089 133.226C97.9089 134.326 97.9089 135.426 97.8089 136.526C97.8089 137.226 97.9089 139.026 97.4089 139.626C96.9089 140.226 95.6089 140.226 95.0089 140.426C93.7089 140.726 92.4089 141.026 91.1089 141.326C88.5089 141.926 85.9089 142.526 83.3089 143.126C82.1089 143.426 81.0089 143.726 79.8089 143.926C79.3089 144.026 76.9089 144.926 76.4089 144.526C76.3089 144.426 76.5089 141.626 76.5089 141.126C76.5089 139.726 76.5089 138.426 76.5089 137.026C76.5089 134.126 76.5089 131.326 76.5089 128.426C76.4089 126.026 72.3089 126.026 72.3089 128.726Z" fill="#00929D"/>
<path d="M73.3089 128.226C73.9089 120.026 70.6089 111.526 64.3089 106.226C57.8089 100.726 49.1089 98.3258 44.1089 91.0258C33.6089 75.7258 40.8089 55.8258 52.8089 43.8258C59.1089 37.4258 67.2089 33.3258 76.2089 32.4258C85.2089 31.5258 94.6089 32.9258 103.109 35.9258C106.909 37.2258 110.709 39.1258 113.809 41.7258C117.209 44.6258 119.309 48.3258 120.709 52.5258C123.009 60.1258 123.909 67.9258 122.009 75.6258C119.709 85.1258 114.109 93.4258 107.409 100.326C104.009 103.726 99.4089 106.426 97.3089 110.926C95.2089 115.326 95.4089 120.326 95.8089 125.126C96.0089 127.726 100.109 127.726 99.9089 125.126C99.6089 120.626 99.2089 115.426 101.709 111.426C102.909 109.526 104.809 108.226 106.509 106.726C108.309 105.226 110.009 103.526 111.709 101.726C117.809 95.1258 122.809 87.4258 125.409 78.8258C127.809 70.8258 127.509 62.8258 125.509 54.7258C124.409 50.2258 122.809 45.8258 119.909 42.1258C117.309 38.8258 113.809 36.3258 110.109 34.4258C102.009 30.3258 92.4089 28.4258 83.4089 28.1258C73.8089 27.8258 64.3089 29.9258 56.4089 35.4258C41.7089 45.6258 31.2089 65.1258 36.0089 83.1258C37.2089 87.7258 39.4089 91.9258 42.4089 95.6258C45.6089 99.5258 49.9089 102.026 54.2089 104.526C58.6089 107.026 62.9089 109.726 65.7089 114.026C68.5089 118.326 69.7089 123.326 69.3089 128.326C69.0089 130.826 73.1089 130.826 73.3089 128.226Z" fill="#00929D"/>
<path d="M77.809 124.726C77.409 118.026 79.209 111.326 77.909 104.626C77.509 102.526 76.609 99.2258 74.609 98.0258C72.809 97.0258 70.709 98.3258 70.209 100.226C69.709 102.426 71.309 104.626 73.109 105.626C75.209 106.926 77.509 106.326 79.109 104.626C82.309 101.226 82.609 94.9258 78.009 92.4258C76.709 91.7258 74.209 91.3258 74.209 93.4258C74.209 95.4258 76.809 97.1258 78.409 97.7258C83.009 99.5258 88.509 96.5258 89.109 91.5258C89.309 89.8258 88.309 88.4258 86.509 88.7258C84.309 89.0258 83.709 91.6258 83.909 93.5258C84.609 98.5258 90.209 101.126 94.509 98.7258C96.009 97.9258 97.409 95.5258 94.909 94.9258C92.709 94.4258 90.909 96.8258 90.309 98.7258C89.109 102.126 90.209 106.126 90.409 109.626C90.609 113.626 90.609 117.726 90.309 121.726C90.209 122.926 92.109 122.926 92.209 121.726C92.409 118.426 92.509 115.126 92.409 111.726C92.309 108.426 91.609 105.026 91.709 101.726C91.809 100.226 92.109 98.6258 93.209 97.5258C93.609 97.1258 94.709 96.7258 93.609 97.2258C92.709 97.6258 91.909 97.9258 90.909 97.9258C89.309 97.9258 87.909 97.2258 86.909 95.9258C86.409 95.3258 86.009 94.6258 85.909 93.8258C85.809 93.5258 85.809 93.0258 85.809 92.7258C85.809 91.9258 85.809 91.2258 86.709 91.5258C87.509 91.8258 87.309 91.8258 87.109 92.5258C87.009 92.8258 86.809 93.2258 86.709 93.5258C86.309 94.1258 85.909 94.7258 85.309 95.2258C84.109 96.3258 82.509 96.8258 80.909 96.7258C79.409 96.6258 78.009 95.9258 77.009 94.8258C76.809 94.6258 76.409 94.2258 76.309 93.9258C76.309 93.7258 75.809 94.0258 76.409 93.9258C77.109 93.8258 78.109 94.9258 78.509 95.4258C80.509 97.9258 79.709 102.326 77.009 104.126C75.309 105.226 73.409 104.226 72.409 102.626C72.109 102.126 71.609 100.826 72.209 100.426C72.609 100.226 74.109 100.426 74.309 100.626C74.909 101.126 75.209 102.426 75.409 103.126C77.709 110.126 75.409 117.626 75.809 124.826C76.009 125.926 77.809 125.926 77.809 124.726Z" fill="#00929D"/>
<path d="M63.0091 43.6259C57.4091 46.8259 53.5091 52.3259 50.8091 58.1259C49.4091 61.1259 48.4091 64.3259 48.8091 67.7259C49.2091 71.4259 50.8091 74.8259 52.3091 78.1259C52.8091 79.2259 54.4091 78.2259 53.9091 77.2259C52.4091 74.1259 50.9091 70.9259 50.6091 67.5259C50.3091 64.1259 51.5091 60.9259 53.0091 58.0259C55.5091 52.9259 58.9091 48.2259 63.9091 45.3259C65.0091 44.6259 64.1091 43.0259 63.0091 43.6259Z" fill="#00929D"/>
<path d="M58.1087 88.3258C57.9087 87.0258 56.5087 86.1258 55.2087 86.2258C53.8087 86.3258 52.9087 87.5258 52.9087 88.8258C52.9087 90.1258 53.9087 91.3258 55.3087 91.3258C56.7087 91.3258 57.9087 90.2258 57.9087 88.8258C57.9087 87.6258 56.0087 87.6258 56.0087 88.8258C56.0087 89.2258 55.6087 89.4258 55.3087 89.5258C54.9087 89.5258 54.7087 89.1258 54.7087 88.8258C54.8087 87.8258 56.0087 88.1258 56.2087 88.9258C56.6087 90.0258 58.4087 89.5258 58.1087 88.3258Z" fill="#00929D"/>
<path d="M78.7087 11.4258C77.6087 8.72578 76.8087 5.92578 76.5087 3.02578C76.2087 3.52578 75.9087 4.02578 75.7087 4.52578C76.5087 4.02578 77.2087 3.82578 78.1087 3.82578C77.5087 3.22578 77.0087 2.72578 76.4087 2.12578C76.5087 3.12578 76.6087 10.0258 77.5087 10.1258C75.4087 9.82578 74.5087 13.0258 76.6087 13.3258C78.6087 13.6258 80.2087 12.4258 80.4087 10.3258C80.7087 7.72578 80.0087 4.62578 79.8087 2.02578C79.6087 1.22578 79.0087 0.425781 78.0087 0.425781C76.5087 0.425781 75.2087 0.725781 73.9087 1.52578C73.4087 1.82578 73.0087 2.42578 73.1087 3.02578C73.5087 6.22578 74.2087 9.32578 75.4087 12.2258C76.3087 14.2258 79.5087 13.4258 78.7087 11.4258Z" fill="#00929D"/>
<path d="M133.309 32.1257C135.609 29.7257 138.009 27.4257 140.509 25.2257C139.609 25.0257 138.609 24.7257 137.709 24.5257C138.109 26.1257 138.709 27.5257 139.509 28.8257C139.709 28.0257 139.909 27.3257 140.109 26.5257C138.909 27.3257 137.809 28.1257 136.609 28.9257C135.909 29.4257 134.309 30.9257 133.409 30.9257C133.809 31.1257 134.209 31.2257 134.609 31.4257C133.809 30.7257 133.809 29.9257 132.709 29.6257C131.709 29.4257 131.009 29.8257 130.409 30.6257C129.109 32.3257 132.009 34.0257 133.309 32.3257C133.409 32.2257 133.409 32.2257 133.509 32.1257C133.009 32.4257 132.509 32.7257 132.009 32.9257C131.509 32.6257 131.409 32.7257 131.609 32.9257C131.709 33.1257 131.809 33.3257 132.009 33.4257C132.209 33.6257 132.509 33.9257 132.809 34.0257C133.709 34.4257 134.609 34.1257 135.409 33.6257C137.609 32.3257 139.709 30.7257 141.909 29.2257C142.609 28.7257 143.009 27.7257 142.509 26.9257C141.809 25.8257 141.309 24.6257 141.009 23.4257C140.709 22.1257 139.109 21.9257 138.209 22.7257C135.609 24.8257 133.209 27.1257 131.009 29.6257C129.409 31.4257 131.809 33.7257 133.309 32.1257Z" fill="#00929D"/>
<path d="M141.909 72.8258C142.009 73.4258 142.009 74.0258 141.709 74.6258C141.309 75.5258 141.509 76.9258 142.709 77.1258C144.909 77.5258 147.609 78.1258 149.809 77.8258C151.409 77.6258 152.209 75.5258 152.409 74.1258C152.509 72.5258 151.609 71.1258 150.009 70.8258C148.909 70.6258 147.709 70.7258 146.609 70.6258C145.409 70.6258 144.309 70.5258 143.109 70.5258C140.909 70.4258 140.909 73.8258 143.109 73.9258C144.809 74.0258 146.409 74.0258 148.109 74.1258C148.409 74.1258 148.909 74.2258 149.109 74.1258C149.009 73.7258 148.909 73.6258 149.009 73.8258V73.9258C148.809 74.1258 148.609 75.0258 148.309 75.3258C148.809 75.0258 149.309 74.7258 149.809 74.5258C147.709 74.5258 145.609 74.3258 143.609 73.9258C143.909 74.7258 144.309 75.5258 144.609 76.4258C145.109 75.3258 145.409 74.2258 145.309 72.9258C145.109 70.7258 141.709 70.7258 141.909 72.8258Z" fill="#00929D"/>
<path d="M33.1088 33.5258C31.9088 32.0258 30.8088 30.5258 29.6088 29.1258C29.0088 28.3258 28.3088 27.6258 27.8088 26.7258C27.3088 26.0258 26.5088 24.6258 27.8088 26.1258C28.9088 27.4258 29.9088 29.1258 30.9088 30.6258C31.5088 31.4258 33.2088 33.5258 32.1088 34.3258C30.4088 35.6258 32.8088 38.0258 34.5088 36.7258C36.8088 34.9258 35.7088 31.8258 34.4088 29.7258C33.3088 28.1258 32.2088 26.4258 31.1088 24.8258C30.3088 23.6258 29.3088 22.4258 27.9088 22.0258C25.1088 21.2258 23.3088 24.1258 24.0088 26.6258C24.5088 28.2258 25.8088 29.6258 26.8088 30.9258C28.1088 32.6258 29.4088 34.2258 30.7088 35.9258C32.0088 37.5258 34.4088 35.1258 33.1088 33.5258Z" fill="#00929D"/>
<path d="M2.10889 79.4257C1.30889 82.1257 3.10889 84.7257 5.70889 85.5257C8.10889 86.2257 12.4089 86.3257 14.3089 84.4257C16.3089 82.4257 15.3089 79.5257 12.7089 78.8257C11.2089 78.4257 9.60889 78.6257 8.10889 78.6257C6.20889 78.6257 4.40889 78.6257 2.50889 78.6257C0.308887 78.6257 0.308887 82.0257 2.50889 82.0257C4.10889 82.0257 5.80889 82.0257 7.40889 82.0257C8.10889 82.0257 8.80889 82.0257 9.50889 82.0257C10.0089 82.0257 11.2089 81.8257 11.6089 82.1257C11.7089 82.1257 11.8089 82.1257 11.9089 82.1257C11.4089 82.3257 10.9089 82.4257 10.3089 82.4257C9.70889 82.5257 9.10889 82.5257 8.50889 82.5257C7.20889 82.5257 4.80889 82.1257 5.30889 80.3257C6.00889 78.2257 2.70889 77.3257 2.10889 79.4257Z" fill="#00929D"/>
<path d="M95.9088 123.826C95.9088 123.226 95.0088 123.226 95.0088 123.826C94.8088 128.826 95.0088 133.726 95.5088 138.726C95.6088 139.326 96.4088 139.326 96.4088 138.726C95.9088 133.826 95.7088 128.826 95.9088 123.826Z" fill="#00929D"/>
</g>
<defs>
<clipPath id="clip0_118_227">
<rect width="151.5" height="148.2" fill="white" transform="translate(0.908691 0.425781)"/>
</clipPath>
</defs>
</svg>
