<svg width="94" height="121" viewBox="0 0 94 121" fill="none" xmlns="http://www.w3.org/2000/svg">
<g clip-path="url(#clip0_174_940)">
<path d="M68.6864 0.200243C46.3746 11.7252 21.7615 19.0752 0.750297 33.1002C0.491467 33.2596 0.284282 33.4904 0.153718 33.7648C0.0231544 34.0392 -0.0252139 34.3454 0.0144442 34.6467C0.0541024 34.9479 0.180094 35.2313 0.37723 35.4626C0.574366 35.6939 0.834231 35.8632 1.1255 35.9502C14.9829 41.4502 30.1409 42.2752 44.0483 47.6252L43.1228 45.3252C37.6699 56.6002 25.0132 61.8252 18.5348 72.5002C18.4201 72.7062 18.3531 72.9352 18.3387 73.1704C18.3244 73.4057 18.3631 73.6412 18.4519 73.8595C18.5407 74.0778 18.6774 74.2734 18.8519 74.4319C19.0264 74.5904 19.2343 74.7077 19.4602 74.7752C32.4922 79.7752 46.6747 80.4752 59.9068 84.7752L58.9563 82.5002C53.5034 94.7002 47.3001 106.525 41.8722 118.75C41.7105 119.05 41.6503 119.394 41.7007 119.731C41.751 120.067 41.9092 120.379 42.1514 120.618C42.3937 120.857 42.7071 121.012 43.0445 121.058C43.382 121.104 43.7254 121.04 44.0233 120.875C55.0042 115.675 63.0584 105.325 71.5379 96.8503C74.7647 93.5752 78.2665 90.5752 81.5433 87.3752C85.996 82.9677 90.1176 78.2382 93.8748 73.2253C93.9942 73.0187 94.0643 72.7873 94.0797 72.5492C94.095 72.3111 94.0551 72.0727 93.9631 71.8526C93.8711 71.6324 93.7295 71.4364 93.5493 71.2799C93.3692 71.1234 93.1553 71.0106 92.9243 70.9502C82.0686 68.4502 70.8126 67.2252 60.407 63.0252L61.1074 65.5252C70.0371 55.0002 79.4422 45.0002 87.0962 33.1502C87.2309 32.9122 87.3012 32.6432 87.3003 32.3697C87.2993 32.0962 87.2272 31.8277 87.0909 31.5906C86.9546 31.3534 86.7588 31.1558 86.5229 31.0173C86.287 30.8787 86.0191 30.8039 85.7455 30.8002C75.1762 31.309 64.5838 31.0416 54.0536 30.0002L55.4044 32.3502C61.6068 22.7655 66.8276 12.5808 70.9877 1.95024C71.688 0.050243 68.6614 -0.749757 67.9861 1.12524C63.8935 11.4852 58.7736 21.4097 52.7029 30.7502C52.5757 30.9894 52.5113 31.2568 52.5157 31.5276C52.5202 31.7984 52.5933 32.0636 52.7283 32.2985C52.8632 32.5333 53.0556 32.73 53.2874 32.8703C53.5193 33.0105 53.7829 33.0896 54.0536 33.1002C64.5832 34.15 75.1756 34.4257 85.7455 33.9252L84.3948 31.5752C76.8908 43.0752 67.7109 53.0002 58.7812 63.3502C58.623 63.5485 58.5142 63.7814 58.4637 64.0299C58.4133 64.2784 58.4226 64.5353 58.491 64.7794C58.5594 65.0236 58.6849 65.248 58.8571 65.4342C59.0293 65.6204 59.2434 65.763 59.4815 65.8502C69.8871 70.0752 81.1431 71.2252 91.9988 73.7752L91.0733 71.4752C84.5699 80.0752 76.7157 86.8502 69.2117 94.4502C61.0324 102.85 53.1782 113 42.5225 118.1L44.6737 120.25C50.1015 108.025 56.3048 96.2002 61.7577 84.0002C61.8724 83.7924 61.9393 83.5617 61.9537 83.3249C61.9682 83.088 61.9297 82.8509 61.8411 82.6307C61.7525 82.4106 61.616 82.2129 61.4415 82.0519C61.267 81.891 61.0589 81.7709 60.8323 81.7002C47.6002 77.4002 33.3176 76.7002 20.3857 71.7002L21.3362 74.0002C27.7647 63.4002 40.4214 58.2502 45.9243 46.9002C46.039 46.6943 46.106 46.4653 46.1203 46.23C46.1347 45.9948 46.096 45.7593 46.0072 45.541C45.9184 45.3227 45.7817 45.1271 45.6072 44.9686C45.4326 44.8101 45.2248 44.6928 44.9988 44.6252C30.9914 39.2752 15.8083 38.4502 1.95094 32.9502L2.32613 35.8002C23.3373 21.7752 47.9504 14.4252 70.2873 2.90024C72.0632 1.97524 70.4874 -0.724757 68.6864 0.200243Z" fill="#72CCD8"/>
</g>
<defs>
<clipPath id="clip0_174_940">
<rect width="94" height="121" fill="white"/>
</clipPath>
</defs>
</svg>
