<svg width="73" height="73" viewBox="0 0 73 73" fill="none" xmlns="http://www.w3.org/2000/svg">
<path d="M58.3905 37.1045H61.5262C62.0168 39.5324 64.1667 41.3661 66.737 41.3661C69.6684 41.3661 72.0532 38.9813 72.0532 36.0498C72.0532 33.1183 69.6684 30.7335 66.7369 30.7335C64.1665 30.7335 62.0167 32.5672 61.526 34.9951H58.3904C58.1396 29.6228 55.9853 24.7398 52.5868 21.0077L58.2348 15.3598C59.3466 16.1694 60.7136 16.6488 62.1912 16.6488C65.9059 16.6488 68.928 13.6266 68.928 9.91184C68.928 6.19709 65.9059 3.17505 62.1912 3.17505C58.4764 3.17505 55.4544 6.19723 55.4544 9.91184C55.4544 11.3894 55.9337 12.7564 56.7434 13.8682L51.0953 19.5161C47.3633 16.1178 42.4802 13.9632 37.1079 13.7126V10.577C39.5358 10.0864 41.3695 7.93648 41.3695 5.36613C41.3695 2.43466 38.9847 0.0498047 36.0532 0.0498047C33.1218 0.0498047 30.7369 2.43466 30.7369 5.36613C30.7369 7.93648 32.5706 10.0864 34.9985 10.577V13.7125C29.6262 13.9632 24.7432 16.1176 21.0111 19.516L15.3635 13.8685C16.1732 12.7565 16.6526 11.3894 16.6526 9.91184C16.6526 7.66859 15.5415 5.5796 13.6805 4.32382C13.1973 3.99813 12.5418 4.12526 12.2163 4.60816C11.8905 5.09107 12.0177 5.74652 12.5005 6.07235C13.7796 6.93537 14.5431 8.37073 14.5431 9.91184C14.5431 12.4636 12.4669 14.5398 9.91511 14.5398C7.36333 14.5398 5.28729 12.4636 5.28729 9.91184C5.28729 7.85112 6.67033 6.01948 8.65061 5.45768C9.211 5.29863 9.53641 4.71546 9.37736 4.15507C9.21832 3.59468 8.63486 3.2697 8.07489 3.42832C5.19152 4.24648 3.17791 6.91259 3.17791 9.91184C3.17791 13.6269 6.20022 16.6492 9.91525 16.6492C11.3929 16.6492 12.7601 16.1698 13.8719 15.3601L19.5195 21.0076C16.121 24.7396 13.9667 29.6227 13.7159 34.995H10.5804C10.0898 32.5671 7.93989 30.7333 5.36955 30.7333C2.43808 30.7335 0.0532227 33.1183 0.0532227 36.0498C0.0532227 38.9813 2.43808 41.3661 5.36955 41.3661C7.93989 41.3661 10.0898 39.5324 10.5804 37.1045H13.7161C13.9668 42.4768 16.1212 47.3599 19.5197 51.0919L13.8716 56.7398C12.7598 55.9302 11.3928 55.4509 9.91525 55.4509C6.2005 55.4509 3.17847 58.473 3.17847 62.1878C3.17847 65.9025 6.2005 68.9246 9.91525 68.9246C13.63 68.9246 16.652 65.9024 16.652 62.1878C16.652 60.7102 16.1728 59.3432 15.3631 58.2314L21.0111 52.5835C24.7432 55.9818 29.6262 58.1364 34.9985 58.387V61.5225C32.5706 62.0131 30.7369 64.163 30.7369 66.7333C30.7369 69.6649 33.1218 72.0498 36.0532 72.0498C38.9847 72.0498 41.3695 69.6649 41.3695 66.7335C41.3695 64.1631 39.5358 62.0133 37.1079 61.5226V58.3871C42.4802 58.1364 47.3633 55.982 51.0953 52.5836L56.743 58.2311C55.9332 59.3431 55.4538 60.7102 55.4538 62.1878C55.4538 65.9027 58.4762 68.9251 62.1912 68.9251C65.9062 68.9251 68.9285 65.9028 68.9285 62.1878C68.9285 61.4585 68.8124 60.7403 68.5833 60.0528C68.3989 59.5003 67.8014 59.2016 67.2493 59.3857C66.6967 59.5699 66.398 60.1671 66.5822 60.7198C66.7394 61.1916 66.8193 61.6856 66.8193 62.1876C66.8193 64.7394 64.7431 66.8156 62.1913 66.8156C59.6395 66.8156 57.5634 64.7396 57.5634 62.1876C57.5634 59.6357 59.6395 57.5597 62.1913 57.5597C62.7753 57.5597 63.3449 57.6671 63.884 57.879C64.4256 58.0921 65.0383 57.8253 65.2515 57.2832C65.4645 56.7411 65.1978 56.1289 64.6556 55.9158C63.8697 55.6069 63.0407 55.4503 62.1915 55.4503C60.7138 55.4503 59.3466 55.9297 58.2348 56.7394L52.5872 51.0919C55.9853 47.3599 58.1398 42.4768 58.3905 37.1045ZM66.7369 32.8429C68.5053 32.8429 69.9438 34.2814 69.9438 36.0498C69.9438 37.8182 68.5053 39.2568 66.7369 39.2568C64.9685 39.2568 63.5299 37.8182 63.5299 36.0498C63.5299 34.2814 64.9687 32.8429 66.7369 32.8429ZM62.1912 5.28443C64.7428 5.28443 66.8186 7.36034 66.8186 9.91184C66.8186 12.4635 64.7427 14.5394 62.1912 14.5394C59.6397 14.5394 57.5638 12.4635 57.5638 9.91184C57.5638 7.36019 59.6397 5.28443 62.1912 5.28443ZM32.8463 5.36613C32.8463 3.59777 34.285 2.15918 36.0532 2.15918C37.8214 2.15918 39.2602 3.59777 39.2602 5.36613C39.2602 7.13449 37.8214 8.57309 36.0532 8.57309C34.285 8.57309 32.8463 7.13435 32.8463 5.36613ZM5.36955 39.2568C3.60119 39.2568 2.1626 37.8182 2.1626 36.0498C2.1626 34.2814 3.60119 32.8429 5.36955 32.8429C7.13791 32.8429 8.57636 34.2814 8.57636 36.0498C8.57636 37.8182 7.13777 39.2568 5.36955 39.2568ZM36.0532 15.7964C47.221 15.7964 56.3066 24.8821 56.3066 36.0498C56.3066 47.2175 47.221 56.3032 36.0532 56.3032C24.8855 56.3032 15.7998 47.2177 15.7998 36.0498C15.7998 24.8819 24.8855 15.7964 36.0532 15.7964ZM9.91525 66.8152C7.36361 66.8152 5.28785 64.7393 5.28785 62.1878C5.28785 59.6361 7.36375 57.5602 9.91525 57.5602C12.4668 57.5602 14.5427 59.6361 14.5427 62.1878C14.5427 64.7394 12.4668 66.8152 9.91525 66.8152ZM39.2602 66.7335C39.2602 68.5018 37.8214 69.9404 36.0532 69.9404C34.285 69.9404 32.8463 68.5018 32.8463 66.7335C32.8463 64.9651 34.285 63.5265 36.0532 63.5265C37.8214 63.5265 39.2602 64.9653 39.2602 66.7335Z" fill="white"/>
<path d="M24.1213 49.0366H30.0775C30.0807 49.0366 30.0838 49.037 30.087 49.037C30.0903 49.037 30.0934 49.0366 30.0966 49.0366H33.5924C34.175 49.0366 34.6471 48.5644 34.6471 47.9819C34.6471 47.3994 34.175 46.9272 33.5924 46.9272H31.1417V45.1413C31.1417 44.5588 30.6696 44.0866 30.087 44.0866C29.5044 44.0866 29.0323 44.5588 29.0323 45.1413V46.9272H25.176V41.7325C25.176 39.1807 27.2515 37.1045 29.8024 37.1045H42.304C44.8551 37.1045 46.9304 39.1807 46.9304 41.7325V46.9272H43.074V45.1413C43.074 44.5588 42.602 44.0866 42.0193 44.0866C41.4367 44.0866 40.9647 44.5588 40.9647 45.1413V46.9272H38.5143C37.9317 46.9272 37.4596 47.3994 37.4596 47.9819C37.4596 48.5644 37.9317 49.0366 38.5143 49.0366H42.0101C42.0133 49.0366 42.0164 49.037 42.0196 49.037C42.0229 49.037 42.026 49.0366 42.0292 49.0366H47.9854C48.568 49.0366 49.0401 48.5644 49.0401 47.9819V41.7325C49.0401 38.0175 46.0184 34.9952 42.3043 34.9952H41.5213C43.1719 33.5015 44.2108 31.3434 44.2108 28.9472C44.2108 24.4491 40.5515 20.7898 36.0535 20.7898C31.5554 20.7898 27.8961 24.4491 27.8961 28.9472C27.8961 31.3434 28.935 33.5015 30.5857 34.9952H29.8027C26.0885 34.9952 23.0669 38.0175 23.0669 41.7325V47.9819C23.0666 48.5644 23.5388 49.0366 24.1213 49.0366ZM30.0053 28.9472C30.0053 25.6124 32.7184 22.8992 36.0533 22.8992C39.3883 22.8992 42.1013 25.6122 42.1013 28.9472C42.1013 32.2821 39.3883 34.9952 36.0533 34.9952C32.7184 34.9952 30.0053 32.2821 30.0053 28.9472Z" fill="white"/>
</svg>
