<svg width="62" height="56" viewBox="0 0 62 56" fill="none" xmlns="http://www.w3.org/2000/svg">
<g clip-path="url(#clip0_174_943)">
<path d="M54.6344 16.6272C48.0845 19.2706 41.9218 22.7899 36.3141 27.0893C34.6359 19.523 33.9366 11.7698 31.6524 4.34365C31.2188 2.83298 30.2045 1.5565 28.8322 0.794617C27.4599 0.032729 25.8419 -0.152269 24.3336 0.28026C14.6153 4.36648 6.45053 11.4507 1.02534 20.5038C-3.26338 26.7156 6.85241 32.6939 11.0945 26.3887C14.0313 21.7725 17.7551 17.7096 22.096 14.3853C23.2379 22.2879 24.9675 30.0939 27.2705 37.7381C27.5228 38.5873 27.9618 39.369 28.5551 40.0259C29.1485 40.6828 29.8813 41.1982 30.6995 41.5342C31.5178 41.8702 32.4007 42.0183 33.2836 41.9675C34.1664 41.9168 35.0267 41.6686 35.8013 41.2411C40.696 38.2519 45.1246 34.5155 50.2524 31.4796C50.192 37.2482 49.52 42.9941 48.2479 48.6205C47.8337 50.1132 48.0283 51.7095 48.7889 53.0584C49.5495 54.4073 50.8137 55.3982 52.3035 55.8132C53.7933 56.2282 55.3867 56.0332 56.733 55.2712C58.0793 54.5091 59.0683 53.2425 59.4825 51.7498C61.5086 42.0327 62.3538 32.1057 61.9998 22.1852C61.9796 21.2964 61.7588 20.4237 61.3537 19.6327C60.9487 18.8417 60.3701 18.1529 59.6613 17.618C58.9525 17.0831 58.132 16.7161 57.2613 16.5445C56.3907 16.3729 55.4925 16.4012 54.6344 16.6272Z" fill="#66D1C9"/>
</g>
<defs>
<clipPath id="clip0_174_943">
<rect width="62" height="56" fill="white"/>
</clipPath>
</defs>
</svg>
