<svg width="202" height="118" viewBox="0 0 202 118" fill="none" xmlns="http://www.w3.org/2000/svg">
<g clip-path="url(#clip0_118_121)">
<path d="M5.10023 96.4001C4.80023 101.4 5.00023 106.4 5.60023 111.4C5.70023 112.4 7.20023 112.8 7.40023 111.6C8.60023 105.5 9.80023 99.4001 11.1002 93.3001C10.5002 93.2001 9.90023 93.1001 9.30023 93.1001C9.60023 100.8 9.70023 108.6 9.70023 116.3C9.70023 117.3 11.3002 117.6 11.5002 116.5C12.8002 109.1 14.1002 101.6 15.4002 94.2001C14.8002 94.1001 14.2002 94.0001 13.6002 94.0001C14.3002 100.9 14.3002 107.8 13.6002 114.7C13.5002 115.7 15.3002 116 15.4002 114.9C16.8002 107.2 18.2002 99.4001 20.8002 92.0001C20.2002 91.9001 19.6002 91.8001 19.0002 91.8001C18.9002 98.1001 18.8002 104.4 18.8002 110.8C18.8002 111.8 20.4002 112.1 20.6002 111C21.7002 106.3 23.1002 101.7 24.7002 97.2001C24.1002 97.2001 23.5002 97.2001 22.9002 97.2001C23.6002 101.5 23.7002 105.8 23.0002 110.1C22.8002 111.3 24.6002 111.8 24.8002 110.6C25.5002 106 25.5002 101.3 24.7002 96.7001C24.5002 95.7001 23.2002 95.9001 22.9002 96.7001C21.3002 101.2 19.9002 105.8 18.8002 110.5C19.4002 110.6 20.0002 110.7 20.6002 110.7C20.7002 104.4 20.8002 98.1001 20.8002 91.7001C20.8002 90.6001 19.3002 90.5001 19.0002 91.5001C16.4002 98.9001 15.0002 106.6 13.6002 114.4C14.2002 114.5 14.8002 114.6 15.4002 114.6C16.1002 107.7 16.1002 100.8 15.4002 93.9001C15.3002 92.9001 13.8002 92.5001 13.6002 93.7001C12.3002 101.1 11.0002 108.6 9.70023 116C10.3002 116.1 10.9002 116.2 11.5002 116.2C11.6002 108.5 11.5002 100.7 11.1002 93.0001C11.1002 92.0001 9.50023 91.7001 9.30023 92.8001C8.10023 98.9001 6.90023 105 5.60023 111.1C6.20023 111.2 6.80023 111.3 7.40023 111.3C6.80023 106.3 6.70023 101.3 6.90023 96.3001C7.10023 95.2001 5.20023 95.2001 5.10023 96.4001Z" fill="#F2CF3D"/>
<path d="M62.5002 75.4C61.5002 80.7 60.9002 86 60.7002 91.4C60.7002 92.5 62.2002 92.6 62.5002 91.6C64.4002 85.4 66.4002 79.2 68.3002 73C67.7002 72.9 67.1002 72.8 66.5002 72.8C66.2002 79.8 66.0002 86.8 65.7002 93.8C65.7002 94.9 67.3002 95.1 67.5002 94C69.8002 85.5 72.1002 77.1 74.4002 68.6C73.8002 68.5 73.2002 68.4 72.6002 68.4C71.7002 76.7 70.8002 85 69.9002 93.2C69.8002 94.2 71.5002 94.5 71.7002 93.4C73.4002 84.4 76.1002 75.7 79.8002 67.4C79.2002 67.2 78.6002 67.1 78.1002 66.9C78.5002 71.8 78.3002 76.6 77.4002 81.4C77.2002 82.6 79.0002 83.1 79.2002 81.9C80.1002 76.9 80.4002 71.9 80.0002 66.9C79.9002 66.1 78.7002 65.5 78.3002 66.4C74.4002 75 71.6002 83.8 69.9002 93C70.5002 93.1 71.1002 93.2 71.7002 93.2C72.6002 84.9 73.5002 76.6 74.4002 68.4C74.5002 67.3 72.8002 67.2 72.6002 68.2C70.3002 76.7 68.0002 85.1 65.7002 93.6C66.3002 93.7 66.9002 93.8 67.5002 93.8C67.8002 86.8 68.0002 79.8 68.3002 72.8C68.3002 71.7 66.8002 71.6 66.5002 72.6C64.6002 78.8 62.6002 85 60.7002 91.2C61.3002 91.3 61.9002 91.4 62.5002 91.4C62.7002 86.2 63.3002 81 64.3002 75.9C64.6002 74.7 62.8002 74.2 62.5002 75.4Z" fill="#F2CF3D"/>
<path d="M120.3 37.2C119.6 42.2 118.8 47.3 118.1 52.3C117.9 53.5 119.5 54 119.9 52.8C121.8 47.3 123.9 42 126.2 36.7C125.6 36.5 125 36.4 124.5 36.2C124.2 41.3 123.2 46.3 121.5 51.2C121.1 52.4 122.9 52.8 123.3 51.7C125.5 46.4 127.7 41 129.9 35.7C129.3 35.5 128.7 35.4 128.1 35.2C127 40.9 125.9 46.6 124.8 52.2C124.6 53.2 126 53.9 126.5 52.9C129 47.6 131.4 42.3 133.9 37.1C133.3 36.9 132.7 36.8 132.2 36.6C131.9 40.5 131.4 44.4 130.6 48.2C130.4 49.2 131.7 49.9 132.3 48.9C133 47.8 133.7 46.7 134.3 45.6C134.9 44.6 133.3 43.6 132.7 44.7C132 45.8 131.3 46.9 130.7 48C131.3 48.2 131.8 48.5 132.4 48.7C133.2 44.7 133.8 40.6 134.1 36.6C134.2 35.7 132.7 35.3 132.4 36.1C129.9 41.4 127.5 46.7 125 51.9C125.6 52.1 126.1 52.4 126.7 52.6C127.8 46.9 128.9 41.2 130 35.6C130.2 34.4 128.7 34 128.2 35.1C126 40.4 123.8 45.8 121.6 51.1C122.2 51.3 122.8 51.4 123.4 51.6C125.1 46.6 126.2 41.4 126.5 36.1C126.6 35.2 125.1 34.8 124.8 35.6C122.4 41 120.3 46.6 118.3 52.2C118.9 52.4 119.5 52.5 120.1 52.7C120.8 47.7 121.6 42.6 122.3 37.6C122.2 36.6 120.4 36.1 120.3 37.2Z" fill="#F2CF3D"/>
<path d="M28.8002 92.6C23.7002 90.4 18.2002 88.3999 12.5002 89.2C7.90022 89.7999 3.90022 92.4 1.70022 96.6C-2.69978 104.9 1.80022 114.9 11.0002 117C20.5002 119.2 27.3002 111.5 29.8002 103.1C31.3002 98.2 31.7002 93.1 31.8002 88C32.0002 81.6 31.7002 75.2 30.8002 68.9C30.4002 65.9 29.9002 62.9 29.3002 59.9C28.7002 57 27.7002 54.1 27.3002 51.2C26.8002 47.9 27.9002 45.8 30.7002 44.1C33.4002 42.5 36.1002 41 38.9002 39.5C44.4002 36.6 50.0002 33.8 55.7002 31.2C58.7002 29.9 61.7002 28.6 64.7002 27.3C66.1002 26.7 67.5002 26.1 69.0002 25.6C70.0002 25.2 72.4002 23.8 73.3002 24.5C74.0002 25 74.1002 26.5 74.2002 27.2C74.4002 28.9 74.6002 30.6 74.7002 32.4C75.0002 35.6 75.4002 38.8 75.7002 42C76.4002 48.6 77.1002 55.3 77.8002 61.9C77.9002 63.3 78.6002 65.1 76.7002 65.2C75.4002 65.2999 74.2002 65.4 72.9002 65.6C70.4002 66 68.0002 66.6 65.7002 67.6C61.5002 69.4 57.6002 72.4 55.8002 76.7C52.6002 84.1 55.9002 94.7 64.9002 95.4C69.4002 95.8 73.9002 93.4 76.9002 90.1C80.3002 86.2 81.6002 81 82.1002 75.9C82.3002 73 82.3002 70.2 82.2002 67.3C82.2002 65.1 78.8002 65.1 78.8002 67.3C79.0002 76.2 78.7002 89.9 67.4002 92C63.3002 92.8 59.6002 90.3 58.4002 86.4C57.2002 82.6 58.0002 78.3 60.6002 75.3C63.7002 71.7 68.3002 69.8 72.9002 69.1C74.8002 68.8 77.0002 69 78.8002 68.4C81.3002 67.5 81.4002 65.1 81.2002 62.8C80.6002 56.6 79.9002 50.5 79.2002 44.3C78.6002 38.4 78.2002 32.3 77.3002 26.4C77.0002 24.7 76.5002 22.8 75.0002 21.8C72.8002 20.2 70.4002 21.4 68.2002 22.3C62.8002 24.4 57.5002 26.7 52.2002 29.1C47.1002 31.5 42.0002 34 37.0002 36.6C34.5002 37.9 32.0002 39.3 29.6002 40.7C27.4002 41.9 25.4002 43.3 24.3002 45.7C22.3002 50.3 24.8002 55.9 25.8002 60.4C27.1002 66.3 27.9002 72.3 28.2002 78.4C28.5002 84 28.5002 89.8 27.8002 95.4C27.3002 99.5 26.3002 103.6 24.3002 107.2C22.0002 111.2 18.1002 114.4 13.2002 114C8.40022 113.6 3.90022 110.1 3.10022 105.3C2.40022 100.7 4.80022 95.7 9.00022 93.6C14.6002 90.7999 21.5002 93.3 26.8002 95.5C29.1002 96.3 30.8002 93.4 28.8002 92.6Z" fill="#00929D"/>
<path d="M26.6999 68C41.3999 60.7 56.6998 54.4 72.1998 49.1C74.1998 48.4 73.3999 45.2 71.2999 45.9C55.4999 51.2 40.0999 57.6 24.9999 65.1C23.0999 66 24.7999 68.9 26.6999 68Z" fill="#00929D"/>
<path d="M140.1 40.8001C136.3 35.1001 128.6 31.6001 122 34.3001C116.3 36.6001 113.4 43.6001 115.5 49.3001C118.2 56.7001 127.5 57.1001 133.1 52.7001C139.8 47.5001 141.7 38.1001 143 30.3001C144.5 20.9001 145.2 10.9001 150.4 2.60009C149.4 2.60009 148.5 2.60009 147.5 2.60009C151.4 7.70009 154.3 13.5001 155.9 19.7001C156.2 20.7001 157.5 21.3001 158.4 20.7001C164.2 16.8001 169.5 12.1001 174 6.70009C175.4 5.10009 173 2.70009 171.6 4.30009C167.3 9.40009 162.3 14.0001 156.7 17.7001C157.5 18.0001 158.3 18.4001 159.2 18.7001C157.5 12.2001 154.6 6.10009 150.5 0.800086C149.7 -0.199914 148.3 -0.399914 147.6 0.800086C140 12.9001 141.8 27.8001 137.1 40.9001C135 46.8001 129.5 54.6001 122.2 51.7001C117.3 49.7001 117.5 42.8001 120.6 39.3001C125.3 34.0001 134 37.4001 137.4 42.4001C138.4 44.2001 141.3 42.6001 140.1 40.8001Z" fill="#00929D"/>
<path d="M168.7 46.2001C171.2 43.5001 174.1 40.1001 178 40.0001C179.8 39.9001 181.5 40.6001 182.5 42.2001C183.5 43.7001 183.9 45.5001 185 46.9001C187.1 49.5001 190.7 49.9001 193.7 48.6001C197.3 47.0001 199.3 43.4001 200.9 40.0001C201.8 38.1001 198.9 36.3001 198 38.3001C196.5 41.5001 194.5 46.1001 190.3 46.0001C186.6 45.9001 186.3 40.6001 183.8 38.6001C181.4 36.6001 177.9 36.3001 174.9 37.2001C171.3 38.4001 168.7 41.2001 166.2 43.9001C164.9 45.4001 167.2 47.8001 168.7 46.2001Z" fill="#00929D"/>
</g>
<defs>
<clipPath id="clip0_118_121">
<rect width="201.1" height="117.3" fill="white"/>
</clipPath>
</defs>
</svg>
