<svg width="25" height="25" viewBox="0 0 25 25" fill="none" xmlns="http://www.w3.org/2000/svg">
<g clip-path="url(#clip0_199_26819)">
<path d="M11.1646 9.92383H13.1646V11.9238H11.1646V9.92383ZM15.1646 9.92383H17.1646V11.9238H15.1646V9.92383ZM20.1646 16.4238C18.9146 16.4238 17.7146 16.2238 16.5946 15.8538C16.4946 15.8238 16.3846 15.8038 16.2846 15.8038C16.0246 15.8038 15.7746 15.9038 15.5746 16.0938L13.3746 18.2938C10.5446 16.8538 8.22455 14.5438 6.78455 11.7138L8.98455 9.50383C9.26455 9.23383 9.34455 8.84383 9.23455 8.49383C8.86455 7.37383 8.66455 6.17383 8.66455 4.92383C8.66455 4.37383 8.21455 3.92383 7.66455 3.92383H4.16455C3.61455 3.92383 3.16455 4.37383 3.16455 4.92383C3.16455 14.3138 10.7746 21.9238 20.1646 21.9238C20.7146 21.9238 21.1646 21.4738 21.1646 20.9238V17.4238C21.1646 16.8738 20.7146 16.4238 20.1646 16.4238ZM5.19455 5.92383H6.69455C6.76455 6.80383 6.91455 7.67383 7.15455 8.51383L5.95455 9.72383C5.54455 8.51383 5.28455 7.24383 5.19455 5.92383ZM19.1646 19.8938C17.8446 19.8038 16.5646 19.5438 15.3646 19.1338L16.5646 17.9338C17.4146 18.1738 18.2846 18.3238 19.1646 18.3838V19.8938ZM19.1646 9.92383H21.1646V11.9238H19.1646V9.92383Z" fill="#FFE7DB"/>
</g>
<defs>
<clipPath id="clip0_199_26819">
<rect width="24" height="24" fill="white" transform="translate(0.164551 0.923828)"/>
</clipPath>
</defs>
</svg>
