<svg width="81" height="67" viewBox="0 0 81 67" fill="none" xmlns="http://www.w3.org/2000/svg">
<path d="M32.9994 23.8509H48.3601C49.7078 23.8509 50.8032 22.7011 50.8032 21.2876V20.3898C50.8032 16.1808 47.9269 12.6801 44.1792 12.0426C44.795 11.5006 45.3095 10.7939 45.6962 9.93234C46.8995 7.25702 46.5808 3.646 44.9875 1.88332C43.8573 0.632971 42.4896 0.0498047 40.6855 0.0498047C38.8748 0.0498047 37.5055 0.632971 36.3752 1.88332C34.7819 3.64765 34.4633 7.25702 35.6649 9.93234C36.0533 10.7939 36.5661 11.5006 37.1835 12.0443C33.4342 12.6818 30.5579 16.1808 30.5579 20.3915V21.2893C30.5563 22.7027 31.6517 23.8509 32.9994 23.8509ZM37.8557 3.20286C38.6009 2.37918 39.4457 2.02664 40.6839 2.02664C41.9154 2.02664 42.7585 2.37918 43.5037 3.20286C44.4614 4.26212 44.8249 7.0198 43.8772 9.12678C43.4224 10.1383 42.4996 11.3425 40.6806 11.3425C38.8615 11.3425 37.937 10.1366 37.4823 9.12513C36.5346 7.0198 36.8981 4.26212 37.8557 3.20286ZM32.5479 20.3898C32.5479 16.82 35.1786 13.9157 38.4117 13.9157H42.9477C46.1809 13.9157 48.8115 16.82 48.8115 20.3898V21.2876C48.8115 21.599 48.6007 21.8741 48.3601 21.8741H32.9994C32.7587 21.8741 32.5479 21.6006 32.5479 21.2876V20.3898ZM44.1776 54.2415C44.7933 53.6995 45.3078 52.9928 45.6946 52.1312C46.8979 49.4559 46.5792 45.8449 44.9859 44.0806C43.8556 42.8302 42.488 42.247 40.6839 42.247C38.8731 42.247 37.5039 42.8302 36.3736 44.0806C34.7803 45.8449 34.4616 49.4559 35.6632 52.1296C36.0516 52.9911 36.5645 53.6979 37.1819 54.2415C33.4326 54.879 30.5563 58.378 30.5563 62.5887V63.4865C30.5563 64.8999 31.6517 66.0498 32.9994 66.0498H48.3601C49.7078 66.0498 50.8032 64.8999 50.8032 63.4865V62.5887C50.8015 58.3797 47.9269 54.879 44.1776 54.2415ZM37.8557 45.4001C38.6009 44.5764 39.4457 44.2239 40.6839 44.2239C41.9154 44.2239 42.7585 44.5748 43.5037 45.4001C44.4614 46.4594 44.8249 49.217 43.8772 51.324C43.4224 52.3355 42.4996 53.5397 40.6806 53.5397C38.8615 53.5397 37.937 52.3339 37.4823 51.3224C36.5346 49.2187 36.8981 46.461 37.8557 45.4001ZM48.8098 63.4865C48.8098 63.7979 48.5991 64.073 48.3584 64.073H32.9977C32.7571 64.073 32.5463 63.7995 32.5463 63.4865V62.5887C32.5463 59.0189 35.1769 56.1146 38.4101 56.1146H42.9461C46.1792 56.1146 48.8098 59.0189 48.8098 62.5887V63.4865ZM14.072 54.2415C14.6877 53.6995 15.2022 52.9928 15.589 52.1312C16.7923 49.4559 16.4736 45.8449 14.8803 44.0806C13.75 42.8302 12.3824 42.247 10.5783 42.247C8.76752 42.247 7.39826 42.8302 6.26799 44.0806C4.67466 45.8449 4.356 49.4559 5.55763 52.1296C5.946 52.9911 6.45886 53.6979 7.07627 54.2415C3.32697 54.879 0.450684 58.378 0.450684 62.5887V63.4865C0.450684 64.8999 1.5461 66.0498 2.89379 66.0498H18.2545C19.6022 66.0498 20.6976 64.8999 20.6976 63.4865V62.5887C20.6959 58.3797 17.8213 54.879 14.072 54.2415ZM7.75012 45.4001C8.49533 44.5764 9.34013 44.2239 10.5783 44.2239C11.8098 44.2239 12.6529 44.5748 13.3981 45.4001C14.3558 46.4594 14.7193 49.217 13.7716 51.324C13.3168 52.3355 12.394 53.5397 10.575 53.5397C8.75591 53.5397 7.83144 52.3339 7.37668 51.3224C6.42898 49.2187 6.79246 46.461 7.75012 45.4001ZM18.7042 63.4865C18.7042 63.7979 18.4935 64.073 18.2528 64.073H2.89379C2.65313 64.073 2.44234 63.7995 2.44234 63.4865V62.5887C2.44234 59.0189 5.07299 56.1146 8.30612 56.1146H12.8421C16.0753 56.1146 18.7059 59.0189 18.7059 62.5887V63.4865H18.7042ZM73.8251 54.2415C74.4408 53.6995 74.9554 52.9928 75.3421 52.1312C76.5454 49.4559 76.2267 45.8449 74.6334 44.0806C73.5031 42.8302 72.1355 42.247 70.3314 42.247C68.5206 42.247 67.1514 42.8302 66.0211 44.0806C64.4278 45.8449 64.1091 49.4559 65.3107 52.1296C65.6991 52.9911 66.212 53.6979 66.8294 54.2415C63.0801 54.879 60.2038 58.378 60.2038 62.5887V63.4865C60.2038 64.8999 61.2992 66.0498 62.6469 66.0498H78.0076C79.3553 66.0498 80.4507 64.8999 80.4507 63.4865V62.5887C80.449 58.3797 77.5727 54.879 73.8251 54.2415ZM67.5016 45.4017C68.2468 44.5781 69.0916 44.2255 70.3297 44.2255C71.5612 44.2255 72.4044 44.5764 73.1496 45.4017C74.1072 46.461 74.4707 49.2187 73.523 51.3257C73.0683 52.3371 72.1455 53.5414 70.3264 53.5414C68.5074 53.5414 67.5829 52.3355 67.1281 51.324C66.1821 49.2187 66.5456 46.461 67.5016 45.4017ZM78.4574 63.4865C78.4574 63.7979 78.2466 64.073 78.0059 64.073H62.6452C62.4046 64.073 62.1938 63.7995 62.1938 63.4865V62.5887C62.1938 59.0189 64.8244 56.1146 68.0576 56.1146H72.5936C75.8267 56.1146 78.4574 59.0189 78.4574 62.5887V63.4865ZM30.7737 32.152C30.4185 31.7352 30.4733 31.1109 30.8932 30.76C33.6848 28.4257 37.235 27.1391 40.8897 27.1391C44.5444 27.1391 48.0945 28.424 50.8862 30.76C51.3061 31.1125 51.3608 31.7352 51.0056 32.152C50.6521 32.5704 50.0231 32.6231 49.6032 32.2706C47.1717 30.2361 44.0763 29.1159 40.8897 29.1159C37.703 29.1159 34.6093 30.2361 32.1762 32.2706C31.9886 32.4271 31.7612 32.5029 31.5355 32.5029C31.2517 32.5029 30.9712 32.3843 30.7737 32.152ZM46.5394 35.3627C44.9128 34.1008 42.9593 33.4336 40.8913 33.4336C38.8217 33.4336 36.8682 34.1008 35.2433 35.3627C34.8101 35.6988 34.1844 35.623 33.8458 35.193C33.5073 34.7631 33.5836 34.142 34.0168 33.8059C35.9968 32.269 38.3735 31.4568 40.893 31.4568C43.4124 31.4568 45.7892 32.269 47.7692 33.8059C48.2024 34.142 48.2787 34.7631 47.9402 35.193C47.7443 35.4418 47.4505 35.5719 47.1551 35.5719C46.936 35.5719 46.7203 35.5044 46.5394 35.3627ZM44.5726 36.847C45.0356 37.1419 45.1684 37.753 44.8713 38.2126C44.6805 38.5059 44.3601 38.6673 44.0332 38.6673C43.8489 38.6673 43.6631 38.6162 43.4954 38.5108C42.7187 38.015 41.8175 37.753 40.8897 37.753C39.9619 37.753 39.0607 38.015 38.2839 38.5108C37.8209 38.8057 37.2051 38.6739 36.908 38.2143C36.6109 37.7547 36.7437 37.1435 37.2068 36.8486C38.3055 36.1469 39.5785 35.7778 40.8897 35.7778C42.2009 35.7745 43.4755 36.1452 44.5726 36.847ZM61.12 48.5597C61.12 52.1872 59.8254 55.7109 57.4719 58.4818C57.2744 58.7141 56.9939 58.8327 56.7101 58.8327C56.4827 58.8327 56.2553 58.7569 56.0694 58.6004C55.6495 58.2479 55.5948 57.6252 55.9499 57.2084C57.9997 54.7934 59.1283 51.7227 59.1283 48.5597C59.1283 45.3968 57.9997 42.3261 55.9499 39.9111C55.5948 39.4943 55.6495 38.8699 56.0694 38.5191C56.4893 38.1682 57.1184 38.2209 57.4719 38.6377C59.8237 41.4085 61.12 44.9306 61.12 48.5597ZM56.7682 48.5597C56.7682 51.0588 55.9499 53.4195 54.4014 55.3848C54.2056 55.6335 53.9118 55.7637 53.6164 55.7637C53.4023 55.7637 53.1865 55.6945 53.0039 55.5544C52.5708 55.2184 52.4944 54.5973 52.833 54.1674C54.1043 52.553 54.7765 50.6157 54.7765 48.5614C54.7765 46.5071 54.1043 44.5682 52.833 42.9554C52.4944 42.5254 52.5708 41.9044 53.0039 41.5683C53.4371 41.2323 54.0628 41.308 54.4014 41.738C55.9499 43.7 56.7682 46.059 56.7682 48.5597ZM51.3376 44.9026C52.0446 45.9931 52.4164 47.2567 52.4164 48.5581C52.4164 49.8595 52.043 51.123 51.3376 52.2136C51.1467 52.5068 50.8264 52.6683 50.4994 52.6683C50.3152 52.6683 50.1293 52.6172 49.9617 52.5118C49.4986 52.2169 49.3658 51.6057 49.6629 51.1461C50.1625 50.3751 50.4264 49.4806 50.4264 48.5597C50.4264 47.6389 50.1625 46.7427 49.6629 45.9734C49.3658 45.5138 49.4986 44.9026 49.9617 44.6077C50.4247 44.3112 51.0405 44.4446 51.3376 44.9026ZM25.8311 57.2183C26.1862 57.6351 26.1315 58.2594 25.7116 58.6103C25.524 58.7668 25.2966 58.8426 25.0709 58.8426C24.7871 58.8426 24.5066 58.7223 24.3091 58.4917C21.9573 55.7208 20.6611 52.1971 20.6611 48.5696C20.6611 44.9421 21.9556 41.4184 24.3091 38.6476C24.6643 38.2308 25.2917 38.1764 25.7116 38.5289C26.1315 38.8815 26.1862 39.5042 25.8311 39.921C23.7813 42.336 22.6527 45.4067 22.6527 48.5696C22.6527 51.7326 23.7813 54.8049 25.8311 57.2183ZM28.9464 42.9636C27.675 44.5781 27.0028 46.517 27.0028 48.5696C27.0028 50.6222 27.675 52.5628 28.9464 54.1756C29.2849 54.6056 29.2086 55.2266 28.7754 55.5627C28.5928 55.7044 28.3771 55.7719 28.163 55.7719C27.8675 55.7719 27.5738 55.6418 27.3779 55.393C25.8294 53.4277 25.0112 51.0687 25.0112 48.568C25.0112 46.0673 25.8294 43.7083 27.3779 41.7429C27.7165 41.313 28.3422 41.2372 28.7754 41.5733C29.2086 41.9126 29.2849 42.5337 28.9464 42.9636ZM30.4418 52.2268C29.7347 51.1362 29.3629 49.8727 29.3629 48.5713C29.3629 47.2699 29.7364 46.0047 30.4418 44.9158C30.7388 44.4562 31.3546 44.3244 31.8177 44.6192C32.2807 44.9141 32.4135 45.5253 32.1164 45.9849C31.6168 46.7559 31.3529 47.6504 31.3529 48.5713C31.3529 49.4921 31.6168 50.3883 32.1164 51.1576C32.4135 51.6172 32.2807 52.2284 31.8177 52.5233C31.6517 52.6304 31.4641 52.6798 31.2799 52.6798C30.953 52.6814 30.631 52.5217 30.4418 52.2268Z" fill="white"/>
</svg>
