<svg width="66" height="66" viewBox="0 0 66 66" fill="none" xmlns="http://www.w3.org/2000/svg">
<path fill-rule="evenodd" clip-rule="evenodd" d="M20.6018 51.2519C26.2833 53.0383 30.5291 58.0612 31.1806 64.1586C31.2123 64.4544 31.1168 64.7496 30.918 64.9708C30.719 65.192 30.4356 65.3184 30.1382 65.3184H1.90727C1.60979 65.3184 1.3262 65.1919 1.1274 64.9706C0.928469 64.7492 0.833066 64.4538 0.864911 64.1581C1.51963 58.0606 5.76638 53.0379 11.4463 51.2518C9.24912 49.772 7.7992 47.2605 7.7992 44.422C7.7992 41.9094 8.93513 39.6533 10.7199 38.1419C9.79965 35.8334 9.29328 33.3149 9.29328 30.6781C9.29328 29.2314 9.44582 27.8204 9.73531 26.4602H2.24184C1.94436 26.4602 1.66077 26.3337 1.46197 26.1124C1.26317 25.891 1.16763 25.5956 1.19948 25.2999C1.77845 19.9087 5.48672 15.4539 10.4713 13.7916C8.59401 12.4395 7.36805 10.2349 7.36805 7.75365C7.36805 3.65931 10.7057 0.318359 14.7999 0.318359C18.8979 0.318359 22.2352 3.65957 22.2352 7.75365C22.2352 9.63708 21.5289 11.3613 20.367 12.674C23.0986 11.2922 26.1871 10.5137 29.4577 10.5137C36.7533 10.5137 43.1432 14.3869 46.6833 20.1896C47.0868 20.0094 47.5007 19.8482 47.9237 19.7072C46.0464 18.3552 44.8205 16.1506 44.8205 13.6693C44.8205 9.57509 48.1581 6.23401 52.2524 6.23401C56.3504 6.23401 59.6877 9.57522 59.6877 13.6693C59.6877 16.1507 58.4617 18.3555 56.5835 19.7074C61.5694 21.3701 65.2769 25.825 65.853 31.216C65.8845 31.5118 65.789 31.8071 65.5902 32.0283C65.3914 32.2495 65.1079 32.3758 64.8105 32.3758H49.5517C49.2735 35.7127 48.1829 38.8185 46.4785 41.4952L51.163 46.0436C52.2153 45.427 53.602 45.5561 54.517 46.4421L54.5179 46.4429L65.0156 56.6308C66.1139 57.6942 66.1443 59.4638 65.072 60.5707L65.0711 60.5717L61.2826 64.4744L61.2817 64.4753C60.2189 65.5719 58.4516 65.6016 57.3457 64.5393L57.3416 64.5353L46.8496 54.3478C45.9286 53.4604 45.7566 52.0783 46.3435 51.0073L41.8157 46.6136C38.4024 49.2643 34.1145 50.8425 29.4577 50.8425C26.9836 50.8425 24.6138 50.3968 22.4238 49.5817C21.9041 50.225 21.2896 50.789 20.6018 51.2519ZM16.0227 52.6493C9.64423 52.6493 4.32616 57.1932 3.12694 63.2216H28.9191C27.723 57.1932 22.4045 52.6493 16.0227 52.6493ZM12.5194 36.981C13.2253 36.6465 13.9857 36.4097 14.7834 36.2883C14.1169 34.546 13.7515 32.6547 13.7515 30.6781C13.7515 29.2169 13.9513 27.8023 14.3246 26.4602H11.8848C11.5613 27.8134 11.3901 29.2257 11.3901 30.6781C11.3901 32.895 11.7891 35.0187 12.5194 36.981ZM17.0406 36.2575C20.7013 36.7122 23.6262 39.5862 24.162 43.219C25.7898 43.9073 27.5794 44.2875 29.4577 44.2875C36.3993 44.2875 42.1272 39.0911 42.9624 32.3758H39.6943C39.3968 32.3758 39.1132 32.2493 38.9144 32.028C38.7155 31.8067 38.6201 31.5113 38.6519 31.2155C38.9313 28.6134 39.9397 26.2295 41.4688 24.2724C39.1775 19.9854 34.6585 17.0687 29.4577 17.0687C27.9366 17.0687 26.4738 17.318 25.1081 17.7783C26.9043 19.8357 28.0944 22.4359 28.4005 25.3004C28.4321 25.5962 28.3366 25.8914 28.1378 26.1126C27.939 26.3338 27.6555 26.4602 27.358 26.4602H16.5143C16.0818 27.7881 15.8483 29.2057 15.8483 30.6781C15.8483 32.6662 16.2744 34.5549 17.0406 36.2575ZM24.1826 45.4762C24.0793 46.2773 23.8602 47.043 23.5426 47.7556C25.3958 48.3974 27.3861 48.7457 29.4577 48.7457C33.9384 48.7457 38.0379 47.1153 41.1952 44.4151C42.3539 43.424 43.3859 42.2888 44.2631 41.0373C46.0138 38.5401 47.1484 35.5794 47.4467 32.3758H45.0731C44.2264 40.2517 37.5586 46.3842 29.4577 46.3842C27.6072 46.3842 25.8313 46.0641 24.1826 45.4762ZM16.0227 50.5525C19.4016 50.5525 22.1532 47.7977 22.1532 44.422C22.1532 41.0464 19.4016 38.2915 16.0227 38.2915C12.6472 38.2915 9.89598 41.0465 9.89598 44.422C9.89598 47.7975 12.6472 50.5525 16.0227 50.5525ZM14.7999 15.1888C9.23012 15.1888 4.5783 19.1221 3.46884 24.3634H26.1318C25.025 19.1221 20.3726 15.1888 14.7999 15.1888ZM21.1281 14.6404C21.9519 15.071 22.7264 15.583 23.4409 16.1659C25.294 15.3967 27.3263 14.9719 29.4577 14.9719C35.199 14.9719 40.2207 18.0521 42.9601 22.6503C43.5413 22.1117 44.1696 21.6229 44.8377 21.1908C41.6544 16.0413 35.9572 12.6104 29.4577 12.6104C26.4534 12.6104 23.6205 13.3433 21.1281 14.6404ZM14.7999 13.092C17.7424 13.092 20.1384 10.6931 20.1384 7.75365C20.1384 4.81411 17.7424 2.41513 14.7999 2.41513C11.8605 2.41513 9.46483 4.81424 9.46483 7.75365C9.46483 10.6929 11.8605 13.092 14.7999 13.092ZM52.2524 21.1045C46.6825 21.1045 42.0307 25.0379 40.9211 30.279H63.5841C62.4773 25.0378 57.8251 21.1045 52.2524 21.1045ZM52.2524 19.0077C55.1947 19.0077 57.5909 16.6089 57.5909 13.6693C57.5909 10.7298 55.1947 8.33079 52.2524 8.33079C49.313 8.33079 46.9173 10.7299 46.9173 13.6693C46.9173 16.6086 49.313 19.0077 52.2524 19.0077ZM45.247 43.222C44.68 43.9349 44.0658 44.6084 43.409 45.2379L47.7329 49.434L49.631 47.4787L45.247 43.222ZM59.7772 63.0149L63.566 59.1119C63.8311 58.838 63.8288 58.4002 63.557 58.1372L63.5562 58.1362L53.0583 47.9483C52.7865 47.6853 52.3466 47.6909 52.0834 47.9626L52.0825 47.9636L48.293 51.8673L48.2909 51.8694C48.0272 52.1395 48.0329 52.5769 48.3051 52.8384L48.3091 52.8423C48.3091 52.8423 58.7995 63.0283 58.8016 63.0304C59.0767 63.291 59.5134 63.2874 59.7762 63.0158L59.7772 63.0149Z" fill="white"/>
</svg>
