<svg width="39" height="41" viewBox="0 0 39 41" fill="none" xmlns="http://www.w3.org/2000/svg">
<g clip-path="url(#clip0_186_10291)">
<path d="M25.859 11.6429L10.5551 23.7279C10.0101 24.0948 9.62565 24.6558 9.48013 25.2965C9.33461 25.9372 9.43899 26.6092 9.77197 27.1756C10.1271 27.7345 10.6888 28.1305 11.3346 28.2772C11.9803 28.4239 12.6579 28.3094 13.2197 27.9587L28.5236 15.8737C29.0699 15.5058 29.4549 14.9428 29.5995 14.3002C29.7441 13.6576 29.6374 12.984 29.3014 12.4175C28.9462 11.8586 28.3846 11.4626 27.7388 11.316C27.093 11.1693 26.4154 11.2838 25.8537 11.6344L25.859 11.6429Z" fill="#FFE66C"/>
<path d="M25.5764 29.8081L16.4642 28.7753C15.82 28.6484 15.1517 28.7624 14.5859 29.0956C14.3071 29.2696 14.0655 29.4972 13.8751 29.765C13.6846 30.0329 13.5491 30.3358 13.4763 30.6563C13.4035 30.9769 13.3948 31.3086 13.4509 31.6325C13.5069 31.9563 13.6266 32.2659 13.8028 32.5433C13.9725 32.8257 14.1988 33.07 14.4674 33.2608C14.7361 33.4516 15.0412 33.5848 15.3638 33.652L24.4337 34.7114C25.0948 34.8364 25.7787 34.7128 26.3543 34.3645C26.9126 34.0079 27.3102 33.4481 27.4629 32.8035C27.608 32.1563 27.4909 31.478 27.1374 30.9168C26.9641 30.6374 26.7367 30.3954 26.4687 30.2051C26.2006 30.0147 25.8973 29.8797 25.5764 29.8081Z" fill="#FFE66C"/>
<path d="M5.91542 10.6009L4.8488 19.7344C4.71802 20.4056 4.84778 21.1014 5.21168 21.6804C5.56683 22.2393 6.12848 22.6353 6.77427 22.782C7.42006 22.9286 8.09765 22.8142 8.6594 22.4635C8.93981 22.29 9.18216 22.0615 9.37179 21.7917C9.56143 21.522 9.69442 21.2166 9.76275 20.894L10.8347 11.769C10.9593 11.1214 10.8436 10.4506 10.5091 9.88226C10.3351 9.60344 10.1076 9.36184 9.83968 9.17138C9.57181 8.98093 9.26888 8.8454 8.94836 8.7726C8.62785 8.6998 8.29609 8.69117 7.97223 8.74722C7.64837 8.80327 7.3388 8.92288 7.0614 9.09916C6.49551 9.42813 6.08334 9.96825 5.91542 10.6009Z" fill="#FFE66C"/>
</g>
<defs>
<clipPath id="clip0_186_10291">
<rect width="25.32" height="31.68" fill="white" transform="translate(38.3613 26.8023) rotate(147.797)"/>
</clipPath>
</defs>
</svg>
