<svg width="116" height="119" viewBox="0 0 116 119" fill="none" xmlns="http://www.w3.org/2000/svg">
<g clip-path="url(#clip0_118_323)">
<path d="M69.9988 32.7501C63.3988 32.5501 58.0988 39.8501 60.3988 46.0501C60.7988 47.1501 62.5988 46.6501 62.1988 45.5501C60.2988 40.4501 64.4988 34.4501 69.9988 34.6501C71.1988 34.6501 71.1988 32.7501 69.9988 32.7501Z" fill="#F2CF3D"/>
<path d="M63.898 52.9502C65.998 53.3502 67.798 54.2502 69.298 55.7502C70.198 56.6502 71.498 55.2502 70.598 54.4502C68.898 52.7502 66.798 51.6502 64.398 51.1502C63.198 50.9502 62.698 52.7502 63.898 52.9502Z" fill="#F2CF3D"/>
<path d="M17.0985 66.4506C17.1985 66.3506 17.3985 66.1506 17.4985 66.0506C17.0985 65.6506 16.5985 65.1506 16.1985 64.7506C13.1985 68.4506 10.1985 72.1506 7.29846 75.8506C6.59846 76.7506 7.89846 78.1506 8.59846 77.1506C11.5985 73.4506 14.5985 69.7506 17.4985 66.0506C18.1985 65.1506 16.9985 63.8506 16.1985 64.7506C16.0985 64.8506 15.8985 65.0506 15.7985 65.1506C14.9985 65.9506 16.2985 67.2506 17.0985 66.4506Z" fill="#F2CF3D"/>
<path d="M19.5982 71.0506C16.1982 73.9506 13.1982 77.1506 10.5982 80.6506C9.89816 81.6506 11.4982 82.5506 12.1982 81.5506C14.7982 78.1506 17.6982 75.1506 20.8982 72.3506C21.7982 71.5506 20.4982 70.2506 19.5982 71.0506Z" fill="#F2CF3D"/>
<path d="M23.7987 73.1502C19.2987 77.2502 15.1987 81.7502 11.4987 86.5502C10.7987 87.4502 12.0987 88.8502 12.7987 87.8502C16.4987 83.0502 20.5987 78.5502 25.0987 74.4502C25.9987 73.6502 24.6987 72.3502 23.7987 73.1502Z" fill="#F2CF3D"/>
<path d="M29.1983 78.4505C25.7983 81.8505 22.3983 85.2505 18.9983 88.6505C18.0983 89.5505 19.4983 90.8505 20.2983 89.9505C23.6983 86.5505 27.0983 83.1505 30.4983 79.7505C31.3983 78.9505 29.9983 77.6505 29.1983 78.4505Z" fill="#F2CF3D"/>
<path d="M32.3982 81.7506C29.0982 85.5506 25.6982 89.3506 22.3982 93.1506C21.5982 94.0506 22.8982 95.3506 23.6982 94.4506C26.9982 90.6506 30.3982 86.8506 33.6982 83.0506C34.4982 82.1506 33.1982 80.8506 32.3982 81.7506Z" fill="#F2CF3D"/>
<path d="M39.9988 86.0506C36.1988 89.6506 32.9988 93.7506 30.1988 98.2506C29.5988 99.2506 31.1988 100.251 31.7988 99.1506C34.3988 94.8506 37.5988 90.8506 41.2988 87.3506C42.1988 86.5506 40.7988 85.2506 39.9988 86.0506Z" fill="#F2CF3D"/>
<path d="M44.7989 92.9503C42.2989 96.0503 40.0989 99.4503 38.1989 103.05C37.5989 104.15 39.2989 105.05 39.7989 103.95C41.5989 100.55 43.6989 97.2503 46.0989 94.2503C46.8989 93.3503 45.4989 92.0503 44.7989 92.9503Z" fill="#F2CF3D"/>
<path d="M52.698 96.6506C51.298 98.0506 49.898 99.3506 48.598 100.751C47.298 102.051 45.698 103.251 44.598 104.751C43.598 106.051 43.998 108.551 46.098 107.851C47.198 107.451 46.698 105.651 45.598 106.051C47.198 105.551 48.698 103.351 49.898 102.151C51.298 100.751 52.698 99.4506 53.998 98.0506C54.898 97.1506 53.598 95.8506 52.698 96.6506Z" fill="#F2CF3D"/>
<path d="M56.4981 100.45C52.7981 104.15 48.9981 107.95 45.2981 111.65C44.3981 112.55 45.7981 113.85 46.5981 112.95C50.2981 109.25 54.0981 105.45 57.7981 101.75C58.6981 100.85 57.2981 99.5503 56.4981 100.45Z" fill="#F2CF3D"/>
<path d="M18.1982 59.4505C31.8982 34.5505 52.6982 11.6505 81.4982 5.15054C89.4982 3.35054 97.8982 2.95054 105.998 4.35054C105.598 3.95054 105.198 3.55054 104.798 3.15054C107.398 15.2505 108.998 27.9505 107.098 40.2505C105.498 51.1505 100.898 61.0505 94.5982 70.0505C88.3982 78.9505 80.7982 86.8505 72.9982 94.3505C71.0982 96.1505 69.1982 98.0505 67.2982 99.8505C66.1982 100.951 64.8982 102.151 63.2982 101.351C61.9982 100.651 60.7982 99.5505 59.5982 98.6505C54.6982 95.0505 49.9982 91.2505 45.3982 87.3505C35.0982 78.6505 25.4982 69.3505 16.3982 59.4505C14.8982 57.8505 12.5982 60.2505 13.9982 61.8505C22.6982 71.3505 31.8982 80.3505 41.6982 88.6505C46.3982 92.6505 51.2982 96.6505 56.2982 100.351C58.4982 102.051 61.0982 104.851 63.9982 105.051C66.7982 105.351 68.7982 103.151 70.5982 101.451C86.9982 85.9505 104.298 68.7505 109.598 45.9505C112.898 31.5505 111.298 16.5505 108.198 2.25054C108.098 1.75054 107.598 1.15054 106.998 1.05054C92.0982 -1.44946 76.8982 1.45054 63.3982 8.05054C49.8982 14.6505 38.4982 24.9505 29.1982 36.6505C23.9982 43.2505 19.3982 50.4505 15.2982 57.7505C14.1982 59.6505 17.0982 61.3505 18.1982 59.4505Z" fill="#00929D"/>
<path d="M11.4984 60.4504C7.19839 66.6504 3.69839 73.3504 0.898387 80.4504C0.498387 81.3504 1.29839 82.2504 2.09839 82.5504C5.19839 83.8504 8.49839 84.7504 11.7984 85.3504C13.0984 85.5504 14.8984 85.5504 15.9984 86.4504C17.0984 87.2504 16.8984 88.8504 16.8984 90.0504C16.8984 92.2504 17.0984 94.6504 18.6984 96.3504C20.1984 97.9504 22.4984 98.5504 24.6984 98.7504C26.9984 98.9504 30.6984 98.0504 32.2984 100.05C33.1984 101.25 33.5984 102.95 34.1984 104.25C34.8984 105.95 35.5984 107.55 36.1984 109.25C36.7984 110.75 37.4984 112.35 38.0984 113.85C38.5984 115.05 38.9984 116.25 39.7984 117.25C41.5984 119.35 44.0984 118.75 46.1984 117.45C52.4984 113.45 58.3984 108.55 63.7984 103.45C65.3984 101.95 62.9984 99.5504 61.3984 101.05C56.7984 105.45 51.7984 109.55 46.4984 113.15C45.6984 113.65 43.4984 115.65 42.4984 115.25C41.5984 114.85 40.9984 112.15 40.6984 111.35C39.4984 108.35 38.2984 105.45 37.0984 102.45C36.1984 100.25 35.3984 97.5504 33.0984 96.3504C30.9984 95.1504 28.3984 95.6504 25.9984 95.5504C23.9984 95.4504 21.2984 95.1504 20.5984 92.9504C19.8984 90.8504 20.6984 88.4504 19.8984 86.2504C18.8984 83.5504 16.3984 82.7504 13.7984 82.3504C10.0984 81.7504 6.49839 80.7504 3.09839 79.3504C3.49839 80.0504 3.89839 80.7504 4.29839 81.4504C6.89839 74.5504 10.2984 68.1504 14.4984 62.1504C15.6984 60.3504 12.7984 58.6504 11.4984 60.4504Z" fill="#00929D"/>
<path d="M73.1985 1.75017C48.4985 0.350169 23.5985 9.95017 6.09852 27.4502C4.99852 28.5502 5.89852 30.1502 7.29852 30.3502C15.5985 31.2502 23.7985 32.2502 32.0985 33.1502C34.1985 33.3502 34.1985 30.0502 32.0985 29.7502C23.7985 28.8502 15.5985 27.8502 7.29852 26.9502C7.69852 27.9502 8.09852 28.8502 8.49852 29.8502C25.3985 12.9502 49.2985 3.85017 73.1985 5.15017C75.3985 5.25017 75.3985 1.85017 73.1985 1.75017Z" fill="#00929D"/>
<path d="M107.298 37.4505C116.298 59.3505 111.698 85.8505 95.6981 103.251C96.5981 103.451 97.5981 103.751 98.4981 103.951C95.1981 96.1505 90.1981 89.2505 83.5981 83.8505C81.8981 82.5505 79.4981 84.8505 81.1981 86.2505C87.2981 91.1505 92.1981 97.5505 95.2981 104.851C95.7981 105.951 97.1981 106.651 98.0981 105.551C111.198 91.3505 117.198 71.3505 114.798 52.2505C114.098 46.8505 112.698 41.5505 110.598 36.4505C109.698 34.6505 106.398 35.4505 107.298 37.4505Z" fill="#00929D"/>
<path d="M88.0988 34.0504C83.8988 27.1504 74.6988 25.4504 67.1988 27.1504C59.0988 28.9504 53.2988 35.3504 52.7988 43.6504C52.3988 51.5504 57.3988 58.6504 64.4988 61.6504C72.0988 64.8504 80.9988 62.8504 86.9988 57.2504C90.3988 54.1504 92.9988 49.5504 92.4988 44.8504C91.9988 39.8504 88.3988 36.0504 85.8988 31.9504C85.2988 30.9504 83.5988 31.8504 84.2988 32.8504C86.2988 35.8504 88.7988 38.7504 90.0988 42.1504C91.4988 46.0504 90.3988 50.0504 87.9988 53.3504C83.5988 59.2504 75.5988 62.4504 68.3988 60.8504C61.6988 59.3504 55.9988 53.9504 54.8988 47.1504C53.6988 39.8504 57.6988 32.7504 64.4988 29.9504C71.5988 27.0504 82.1988 27.9504 86.4988 35.0504C87.0988 36.0504 88.7988 35.1504 88.0988 34.0504Z" fill="#00929D"/>
<path d="M31.2984 9.95035C30.8984 10.3503 30.5984 10.6503 30.1984 11.0503C29.8984 11.3503 29.7984 12.0503 30.1984 12.3503C30.5984 12.6503 31.1984 12.7503 31.4984 12.3503C31.8984 11.9503 32.1984 11.6503 32.5984 11.2503C32.8984 10.9503 32.9984 10.2503 32.5984 9.95035C32.2984 9.65035 31.6984 9.55035 31.2984 9.95035Z" fill="#00929D"/>
<path d="M32.7987 12.5506C27.6987 17.1506 22.6987 21.7506 17.5987 26.3506C16.6987 27.1506 17.9987 28.4506 18.8987 27.6506C23.9987 23.0506 28.9987 18.4506 34.0987 13.8506C34.9987 13.0506 33.6987 11.7506 32.7987 12.5506Z" fill="#00929D"/>
<path d="M37.6989 8.85038C31.8989 14.7504 25.9989 20.6504 20.0989 26.5504C19.1989 27.4504 20.5989 28.7504 21.3989 27.8504C27.2989 21.9504 33.1989 16.0504 39.0989 10.1504C39.8989 9.35038 38.5989 8.05038 37.6989 8.85038Z" fill="#00929D"/>
<path d="M43.0982 7.85019C36.8982 14.4502 30.5982 21.0502 24.3982 27.6502C23.5982 28.5502 24.8982 29.8502 25.6982 28.9502C31.9982 22.3502 38.1982 15.7502 44.3982 9.15019C45.2982 8.25019 43.9982 6.95019 43.0982 7.85019Z" fill="#00929D"/>
<path d="M46.7984 9.35037C40.6984 15.7504 34.6984 22.1504 28.5984 28.6504C27.7984 29.5504 29.0984 30.8504 29.8984 29.9504C35.9984 23.5504 41.9984 17.1504 48.0984 10.6504C48.8984 9.85037 47.5984 8.45037 46.7984 9.35037Z" fill="#00929D"/>
<path d="M54.8986 7.85019C51.5986 11.5502 47.8986 14.9502 43.7986 17.8502C42.7986 18.5502 43.7986 20.1502 44.6986 19.4502C48.8986 16.4502 52.6986 12.9502 56.0986 9.15019C56.9986 8.25019 55.6986 6.95019 54.8986 7.85019Z" fill="#00929D"/>
<path d="M112.098 51.1503C108.598 54.4503 105.898 58.2503 103.898 62.5503C103.398 63.6503 104.998 64.5503 105.498 63.4503C107.398 59.2503 110.098 55.5503 113.398 52.3503C114.298 51.6503 112.998 50.3503 112.098 51.1503Z" fill="#00929D"/>
<path d="M112.699 60.2503C106.099 66.8503 99.4987 73.4503 92.8987 80.0503C91.9987 80.9503 93.3987 82.2503 94.1987 81.3503C100.799 74.7503 107.399 68.1503 113.999 61.5503C114.899 60.7503 113.499 59.4503 112.699 60.2503Z" fill="#00929D"/>
<path d="M111.199 68.4505C104.399 74.8505 97.5989 81.2505 90.7989 87.7505C89.8989 88.5505 91.1989 89.8505 92.0989 89.0505C98.8989 82.6505 105.699 76.2505 112.499 69.7505C113.399 68.9505 112.099 67.5505 111.199 68.4505Z" fill="#00929D"/>
<path d="M105.198 79.5506C100.698 84.0506 96.2981 88.4506 91.7981 92.9506C90.8981 93.8506 92.2981 95.1506 93.0981 94.2506C97.5981 89.7506 101.998 85.3506 106.498 80.8506C107.398 80.0506 106.098 78.6506 105.198 79.5506Z" fill="#00929D"/>
<path d="M103.098 89.1502C100.598 92.0502 98.0984 94.8502 95.5984 97.7502C94.7984 98.6502 96.0984 99.9502 96.8984 99.0502C99.3984 96.1502 101.898 93.3502 104.398 90.4502C105.198 89.6502 103.898 88.2502 103.098 89.1502Z" fill="#00929D"/>
</g>
<defs>
<clipPath id="clip0_118_323">
<rect width="114.3" height="118.4" fill="white" transform="translate(0.898438 0.150391)"/>
</clipPath>
</defs>
</svg>
