<svg width="119" height="90" viewBox="0 0 119 90" fill="none" xmlns="http://www.w3.org/2000/svg">
<g clip-path="url(#clip0_118_64)">
<path d="M84.7004 20.6C84.2004 21.5 84.0004 22.3 84.1004 23.3C84.2004 24.4 85.6004 24.6 85.9004 23.5C86.2004 22.7 86.5004 22 87.0004 21.3C86.4004 21.2 85.9004 21.2 85.3004 21.1C85.5004 21.9 85.7004 22.8 85.9004 23.6C86.1004 24.6 87.4004 24.4 87.7004 23.6C88.0004 22.7 88.5004 22 89.3004 21.4C88.8004 21.3 88.3004 21.1 87.7004 21C87.9004 21.9 88.1004 22.9 88.2004 23.8C88.4004 24.6 89.5004 24.7 89.9004 24C90.3004 23.2 90.7004 22.5 91.1004 21.7C90.5004 21.5 89.9004 21.4 89.4004 21.2C89.5004 23.3 89.6004 25.5 89.8004 27.6C89.9004 28.6 90.0004 29.4 91.1004 29.8C91.5004 30 91.9004 29.7 92.2004 29.4C92.2004 29.3 92.3004 29.3 92.3004 29.2C92.9004 28.3 91.5004 27.2 90.8004 28.1C89.8004 29.4 88.7004 31.2 90.0004 32.8C91.1004 34.1 92.9004 33.6 93.6004 32.2C94.7004 30.1 94.7004 26.9 94.8004 24.6C94.9004 21.6 94.6004 18.6 94.0004 15.6C93.9004 15 93.1004 14.7 92.6004 15C91.6004 15.6 90.7004 16.3 89.7004 16.9C90.2004 17.3 90.6004 17.6 91.1004 18C91.4004 15.8 91.3004 13.8 90.7004 11.7C90.5004 12.1 90.3004 12.5 90.0004 12.9C91.7004 12.3 90.9004 16.1 90.8004 16.6C90.6004 17.5 90.5004 18.5 90.3004 19.4C90.0004 21.3 89.7004 23.2 89.4004 25.1C90.0004 25.2 90.6004 25.3 91.2004 25.3C90.8004 21.8 91.3004 18.4 92.8004 15.3C92.2004 15.2 91.7004 15.2 91.1004 15.1C91.4004 16.4 91.6004 17.7 91.9004 19C92.1004 19.7 93.3004 20 93.6004 19.2C94.6004 17 95.7004 15 97.1004 13C96.5004 12.9 96.0004 12.9 95.4004 12.8C95.9004 14.1 96.2004 15.3 96.2004 16.7C96.2004 17.9 98.0004 17.9 98.1004 16.7C98.3004 14.4 98.7004 12.1 99.2004 9.8C98.6004 9.8 98.0004 9.8 97.4004 9.8C97.8004 11.9 97.9004 14.1 97.7004 16.2C97.6004 17.2 99.4004 17.5 99.5004 16.4C99.8004 14.2 100.2 12 100.5 9.8C99.9004 9.8 99.3004 9.8 98.7004 9.8C99.1004 12.1 99.1004 14.5 98.8004 16.8C98.7004 17.8 100.4 18.1 100.6 17C100.9 15.9 101.3 14.9 102.1 14.1C101.6 14 101.1 13.8 100.5 13.7C100.7 15.1 101 16.5 101.2 17.9C101.4 18.8 102.8 18.8 103 17.9C103.4 16.3 103.7 14.6 104.1 13C103.5 13 102.9 13 102.3 13C102.6 14.7 102.7 16.3 102.6 18C102.6 19.1 104.2 19.3 104.4 18.2C104.8 16.6 105.4 15.1 106.1 13.7C105.5 13.6 105 13.6 104.4 13.5C104.7 14.3 104.8 15.1 104.8 15.9C104.8 16.8 106.1 17.2 106.5 16.4C106.7 15.9 109.7 11.3 110 11.6C110.1 11.1 110.3 10.6 110.4 10C104.8 12.2 104.1 18.3 103.9 23.6C103.9 24.8 105.7 24.8 105.8 23.6C106 21.3 106.6 19.1 107.5 17C106.9 16.8 106.3 16.7 105.8 16.5C105.9 19.5 105.9 22.6 106 25.6C106 26.7 107.5 26.8 107.8 25.8C108.7 23.1 109.5 20.4 110.1 17.7C109.5 17.7 108.9 17.7 108.3 17.7C108.6 19.8 108.8 21.8 108.7 23.9C108.7 25.1 110.4 25.1 110.6 23.9C110.8 22.5 111.3 21.2 112.2 20C111.7 19.9 111.2 19.7 110.6 19.6C111.7 22.8 115.1 22 117.4 20.7C118.3 20.2 117.8 19.1 116.9 19C115.1 18.8 113 18.7 111.7 20.3C111 21.2 110.8 22.4 110.5 23.5C110 25.1 109.5 26.8 109.1 28.4C109.7 28.5 110.3 28.6 110.9 28.6C110.8 27.1 110.9 25.7 111.2 24.3C110.6 24.1 110 24 109.4 23.8C109 26.7 108.4 29.5 107.5 32.3C108.1 32.3 108.7 32.3 109.3 32.3C108.9 30.3 108.6 28.3 108.2 26.3C108 25.2 106.4 25.5 106.4 26.5C106.3 28.2 106.1 29.9 105.8 31.7C106.4 31.7 107 31.7 107.6 31.7C107.3 30.3 106.9 29 106.3 27.7C106.1 27.2 105.2 27.1 104.8 27.5C104.2 28.2 103.6 28.9 103 29.6C103.5 29.7 104 29.9 104.6 30C104.4 28.9 104.1 27.9 103.9 26.8C103.7 25.8 102.4 26 102.1 26.8C101.5 28.5 100.7 30.1 99.7004 31.7C100.3 31.9 100.9 32 101.4 32.2C101.3 31.1 101.4 30.1 101.7 29C101.1 28.9 100.5 28.8 99.9004 28.8C99.9004 31.4 99.5004 33.8 98.8004 36.3C99.4004 36.4 100 36.5 100.6 36.5C100.3 33.8 100 31.2 99.7004 28.5C99.6004 27.7 98.4004 27.1 98.0004 28C97.6004 28.9 97.2004 29.6 96.5004 30.3C97.0004 30.4 97.5004 30.6 98.1004 30.7C97.9004 29.7 97.6004 28.6 97.4004 27.6C97.2004 26.8 96.1004 26.7 95.7004 27.4C95.2004 28.3 94.7004 29.2 94.2004 30.1C94.8004 30.2 95.3004 30.2 95.9004 30.3C95.3004 28.5 94.7004 26.7 94.1004 24.9C93.9004 24.2 92.7004 23.9 92.4004 24.7C91.9004 25.8 91.4004 26.9 91.0004 28C91.6004 28.1 92.1004 28.1 92.7004 28.2C91.9004 23.9 91.0004 19.7 90.2004 15.4C90.0004 14.2 88.2004 14.7 88.4004 15.9C89.2004 20.2 90.1004 24.4 90.9004 28.7C91.0004 29.4 92.3004 29.7 92.6004 28.9C93.1004 27.8 93.6004 26.7 94.0004 25.6C93.4004 25.5 92.9004 25.5 92.3004 25.4C92.9004 27.2 93.5004 29 94.1004 30.8C94.3004 31.5 95.4004 31.8 95.8004 31C96.3004 30.1 96.8004 29.2 97.3004 28.3C96.7004 28.2 96.2004 28.2 95.6004 28.1C95.8004 29.1 96.1004 30.2 96.3004 31.2C96.4004 31.9 97.4004 32.1 97.9004 31.6C98.7004 30.8 99.2004 29.9 99.7004 28.9C99.1004 28.7 98.5004 28.6 98.0004 28.4C98.3004 31.1 98.6004 33.7 98.9004 36.4C99.0004 37.4 100.4 37.7 100.7 36.6C101.5 34 101.9 31.4 101.9 28.6C101.9 27.5 100.4 27.3 100.1 28.4C99.7004 29.6 99.6004 30.8 99.7004 32.1C99.8004 33 100.9 33.4 101.4 32.6C102.5 30.9 103.3 29.2 104 27.3C103.4 27.3 102.8 27.3 102.2 27.3C102.4 28.4 102.7 29.4 102.9 30.5C103.1 31.1 104 31.5 104.5 30.9C105.1 30.2 105.7 29.5 106.3 28.8C105.8 28.7 105.3 28.7 104.8 28.6C105.3 29.8 105.7 31 105.9 32.2C106.1 33.1 107.5 33.1 107.7 32.2C108.1 30.3 108.3 28.5 108.4 26.5C107.8 26.6 107.2 26.7 106.6 26.7C107 28.7 107.3 30.7 107.7 32.7C107.9 33.7 109.3 33.5 109.5 32.7C110.3 29.9 111 27.1 111.4 24.2C111.6 23 109.8 22.5 109.6 23.7C109.3 25.3 109.2 26.9 109.3 28.5C109.4 29.5 110.8 29.8 111.1 28.7C111.7 26.7 112.3 24.7 112.8 22.7C113.1 21.6 113.5 20.7 114.7 20.5C115.5 20.4 116.3 20.5 117 20.6C116.8 20 116.7 19.4 116.5 18.9C115.5 19.4 113.1 20.8 112.4 18.9C112.2 18.3 111.3 17.9 110.8 18.5C109.5 20.1 108.9 21.7 108.7 23.7C109.3 23.7 109.9 23.7 110.6 23.7C110.7 21.4 110.5 19.2 110.1 17C109.9 16.1 108.5 16.1 108.3 17C107.7 19.8 107 22.5 106 25.1C106.6 25.2 107.2 25.3 107.8 25.3C107.7 22.3 107.7 19.2 107.6 16.2C107.6 15.3 106.3 14.8 105.9 15.7C104.8 18.1 104.2 20.6 103.9 23.2C104.5 23.2 105.1 23.2 105.8 23.2C105.9 19 106.3 13.3 110.9 11.4C111.6 11.1 111.8 10.4 111.3 9.8C109 7.2 105.6 13.5 104.8 15C105.4 15.2 106 15.3 106.5 15.5C106.5 14.5 106.3 13.6 106 12.6C105.8 11.9 104.7 11.6 104.3 12.4C103.5 14 102.8 15.6 102.4 17.4C103 17.5 103.6 17.6 104.2 17.6C104.3 15.7 104.1 13.9 103.8 12.1C103.6 11.2 102.2 11.2 102 12.1C101.6 13.7 101.3 15.4 100.9 17C101.5 17 102.1 17 102.7 17C102.5 15.6 102.2 14.2 102 12.8C101.9 12.1 100.9 11.9 100.4 12.4C99.4004 13.5 98.8004 14.7 98.4004 16.2C99.0004 16.3 99.6004 16.4 100.2 16.4C100.5 13.9 100.4 11.4 100 8.9C99.9004 8 98.3004 8 98.2004 8.9C97.9004 11.1 97.5004 13.3 97.2004 15.5C97.8004 15.6 98.4004 15.7 99.0004 15.7C99.2004 13.4 99.1004 11.1 98.7004 8.8C98.5004 7.9 97.1004 7.9 96.9004 8.8C96.4004 11.2 96.0004 13.7 95.7004 16.2C96.3004 16.2 96.9004 16.2 97.6004 16.2C97.6004 14.7 97.3004 13.2 96.7004 11.8C96.4004 11 95.5004 10.9 95.0004 11.6C93.6004 13.5 92.4004 15.6 91.5004 17.8C92.1004 17.9 92.6004 17.9 93.2004 18C92.9004 16.7 92.7004 15.4 92.4004 14.1C92.2004 13.3 91.0004 13.2 90.7004 13.9C89.1004 17.4 88.4004 21.1 88.8004 24.9C88.9004 25.8 90.5004 26.3 90.6004 25.1C91.2004 21.5 92.0004 17.9 92.3004 14.3C92.5004 12.3 91.3004 9.7 88.9004 10.6C88.4004 10.8 88.1004 11.2 88.2004 11.8C88.7004 13.6 88.8004 15.3 88.6004 17.1C88.5004 17.8 89.2004 18.7 90.0004 18.2C91.0004 17.6 91.9004 16.9 92.9004 16.3C92.4004 16.1 92.0004 15.9 91.5004 15.7C92.0004 18.4 92.3004 21.1 92.2004 23.9C92.2004 25.1 92.1004 26.3 91.9004 27.4C91.9004 27.8 91.7004 29.5 91.5004 29.9C91.5004 30.1 91.4004 30.2 91.4004 30.4C90.5004 30 90.5004 29.6 91.3004 29C90.8004 28.6 90.3004 28.2 89.8004 27.9C89.8004 28 89.7004 28 89.7004 28.1C90.1004 28 90.4004 27.8 90.8004 27.7C90.8004 27.7 90.7004 24.7 90.7004 24.4C90.6004 23.2 90.6004 22 90.5004 20.8C90.4004 19.9 89.2004 19.5 88.8004 20.3C88.4004 21.1 88.0004 21.8 87.6004 22.6C88.2004 22.7 88.7004 22.7 89.3004 22.8C89.1004 21.9 88.9004 20.9 88.8004 20C88.7004 19.3 87.7004 19.2 87.2004 19.6C86.2004 20.5 85.6004 21.4 85.2004 22.6C85.8004 22.6 86.4004 22.6 87.0004 22.6C86.8004 21.8 86.6004 20.9 86.4004 20.1C86.2004 19.3 85.1004 19.2 84.7004 19.9C84.1004 20.7 83.7004 21.6 83.4004 22.6C84.0004 22.7 84.6004 22.8 85.2004 22.8C85.1004 22.2 85.2004 21.6 85.6004 21C87.0004 20.5 85.3004 19.5 84.7004 20.6Z" fill="#F2CF3D"/>
<path d="M42.0992 26.5C33.9992 26.7 27.2992 33.7 24.3992 40.9C22.9992 44.5 22.5992 48.6 24.1992 52.3C25.6992 55.8 28.5992 58.3 31.7992 60.3C35.2992 62.5 39.3992 64.2 43.5992 64.1C47.4992 64 51.0992 62.3 54.0992 59.9C60.1992 54.8 62.7992 45.9 62.2992 38.2C61.9992 33.3 58.8992 30.7 54.6992 28.8C50.1992 26.8 45.2992 25.3 40.3992 26.7C37.8992 27.4 38.8992 31.4 41.4992 30.7C44.8992 29.7 48.3992 30.7 51.5992 32C54.2992 33.1 57.5992 34.4 58.0992 37.6C58.5992 40.5 58.0992 44 57.2992 46.8C56.4992 49.9 55.1992 52.9 52.9992 55.2C50.9992 57.4 48.3992 59.1 45.4992 59.8C42.2992 60.5 39.0992 59.6 36.1992 58.2C30.7992 55.3 25.9992 51 27.5992 44.3C29.1992 38 35.0992 30.8 41.9992 30.6C44.6992 30.6 44.6992 26.5 42.0992 26.5Z" fill="#00929D"/>
<path d="M35.3996 15.1C35.1996 11.3 35.1996 7.4 35.2996 3.6C34.7996 4.3 34.2996 4.9 33.7996 5.6C37.5996 4.5 41.3996 4 45.2996 4.2C44.5996 3.5 43.8996 2.8 43.1996 2.1C43.4996 5.4 43.5996 8.7 43.4996 12.1C43.4996 13.2 44.4996 14.2 45.5996 14.2C50.0996 13.9 54.2996 15.7 57.0996 19.3C57.7996 20.2 59.2996 20 59.9996 19.3C62.8996 16.4 65.7996 13.6 68.6996 10.7C67.8996 10.8 66.9996 10.9 66.1996 11C68.9996 12.6 71.4996 14.6 73.7996 16.9C73.7996 15.9 73.7996 15 73.7996 14C71.8996 16.4 69.9996 18.8 68.1996 21.3C67.4996 22.2 67.3996 23.3 68.1996 24.2C71.2996 27.8 72.3996 31.8 72.7996 36.4C72.9996 38.2 73.7996 39.8 75.5996 40.5C77.0996 41 78.8996 40.5 80.2996 41.2C79.9996 40.8 79.6996 40.4 79.3996 40C80.0996 42.4 81.1996 45.9 79.1996 48C78.1996 49 77.1996 48.6 75.9996 48.8C74.8996 49 73.7996 49.6 73.2996 50.6C72.7996 51.6 72.7996 52.6 72.5996 53.7C72.3996 55 71.9996 56.3 71.3996 57.5C70.2996 59.7 68.6996 61.7 66.6996 63.1C65.5996 63.9 65.2996 65.3 66.2996 66.3C68.6996 69 71.1996 71.7 73.5996 74.4C73.4996 73.6 73.3996 72.7 73.2996 71.9C71.3996 75 69.1996 77.8 66.6996 80.3C67.4996 80.2 68.3996 80.1 69.1996 80C66.8996 78.5 64.5996 77 62.3996 75.5C60.5996 74.3 58.2996 72.2 55.9996 72C53.6996 71.8 51.6996 73.6 49.5996 74.4C47.1996 75.3 44.7996 75.5 42.2996 75.4C41.0996 75.3 40.3996 76.4 40.1996 77.5C39.8996 80.2 39.7996 83 39.7996 85.8C40.2996 85.1 40.7996 84.5 41.2996 83.8C36.3996 84.9 31.3996 85.5 26.3996 85.5C27.0996 86.2 27.7996 86.9 28.4996 87.6C28.4996 83.4 28.6996 79.3 29.0996 75.1C29.1996 73.9 27.9996 73.2 26.9996 73C23.9996 72.7 21.3996 70.8 19.7996 68.3C18.9996 67.1 18.4996 65.7 18.3996 64.3C18.1996 62.6 18.2996 61 16.7996 59.9C15.3996 58.9 13.5996 59 11.9996 58.9C10.8996 58.8 9.7996 58.8 8.7996 58.7C7.7996 58.6 7.9996 58.3 7.69959 57.2C6.49959 53 5.29959 48.8 4.0996 44.6C3.3996 45.5 2.7996 46.3 2.0996 47.2C5.69959 46.9 9.29959 46.5 12.8996 46.2C13.8996 46.1 15.0996 45.3 14.9996 44.1C14.5996 39.4 15.7996 34.9 18.4996 31C18.9996 30.3 18.7996 29.1 18.1996 28.5C14.6996 25.3 11.0996 22.1 7.5996 18.9C7.5996 19.9 7.5996 20.8 7.5996 21.8C10.3996 18.8 13.1996 15.8 15.9996 12.8C14.8996 12.7 13.7996 12.5 12.7996 12.4C14.4996 16 16.4996 19.3 18.7996 22.5C19.4996 23.4 21.0996 24.1 21.9996 22.9C25.0996 19 29.2996 16.4 34.0996 15.2C36.6996 14.6 35.5996 10.6 32.9996 11.2C27.4996 12.5 22.5996 15.6 19.0996 20C20.1996 20.1 21.2996 20.3 22.2996 20.4C19.8996 17.2 17.8996 13.9 16.2996 10.3C15.6996 9.1 13.8996 9 13.0996 9.9C10.2996 12.9 7.49959 15.9 4.69959 18.9C3.99959 19.7 3.8996 21 4.69959 21.8C8.19959 25 11.7996 28.2 15.2996 31.4C15.1996 30.6 15.0996 29.7 14.9996 28.9C11.8996 33.3 10.3996 38.7 10.8996 44.1C11.5996 43.4 12.2996 42.7 12.9996 42C9.3996 42.3 5.79959 42.7 2.1996 43C0.899595 43.1 -0.200405 44.2 0.199595 45.6C1.4996 50.3 2.69959 55 4.19959 59.6C4.79959 61.3 5.79959 62.4 7.5996 62.6C8.6996 62.7 9.79959 62.7 10.8996 62.8C11.5996 62.8 13.8996 62.7 14.1996 63C14.2996 63.1 14.2996 65 14.3996 65.4C14.4996 66.2 14.7996 67.1 15.0996 67.9C15.6996 69.5 16.5996 71 17.7996 72.3C20.1996 75 23.3996 76.6 26.9996 77C26.2996 76.3 25.5996 75.6 24.8996 74.9C24.3996 79.1 24.1996 83.2 24.2996 87.4C24.2996 88.5 25.1996 89.5 26.3996 89.5C31.7996 89.5 37.0996 88.9 42.3996 87.7C43.2996 87.5 43.8996 86.6 43.8996 85.7C43.7996 82.9 43.9996 80.2 44.2996 77.4C43.5996 78.1 42.8996 78.8 42.1996 79.5C46.7996 79.8 50.5996 78.5 54.5996 76.5C55.7996 75.9 56.2996 76.5 57.3996 77.2C58.3996 77.9 59.4996 78.6 60.4996 79.2C62.6996 80.6 64.8996 82.1 66.9996 83.5C67.7996 84 68.8996 83.8 69.4996 83.2C72.2996 80.4 74.7996 77.3 76.7996 74C77.2996 73.2 77.0996 72.2 76.4996 71.5C74.0996 68.8 71.5996 66.1 69.1996 63.4C69.0996 64.5 68.8996 65.6 68.7996 66.6C72.8996 63.7 75.8996 59.3 76.5996 54.2C76.5996 54 76.6996 52.8 76.7996 52.6C76.4996 52.9 77.9996 52.8 78.1996 52.7C79.2996 52.6 80.3996 52.2 81.2996 51.5C83.2996 50 84.2996 47.6 84.3996 45.1C84.4996 42.9 84.1996 38.6 81.9996 37.4C81.0996 37 80.1996 36.8 79.1996 36.8C78.6996 36.8 77.7996 36.9 77.3996 36.7C76.8996 36.5 77.1996 36.9 76.8996 36.1C76.6996 35.6 76.7996 34.8 76.7996 34.3C76.6996 33.5 76.5996 32.7 76.4996 31.9C76.2996 30.7 75.8996 29.5 75.4996 28.4C74.4996 25.7 72.9996 23.4 71.1996 21.3C71.1996 22.3 71.1996 23.2 71.1996 24.2C73.0996 21.8 74.9996 19.4 76.7996 16.9C77.4996 16 77.6996 14.9 76.7996 14C74.2996 11.4 71.4996 9.2 68.3996 7.4C67.5996 6.9 66.5996 7.1 65.8996 7.7C62.9996 10.6 60.0996 13.4 57.1996 16.3C58.1996 16.3 59.0996 16.3 60.0996 16.3C56.5996 12 51.0996 9.6 45.5996 10C46.2996 10.7 46.9996 11.4 47.6996 12.1C47.7996 8.8 47.6996 5.5 47.3996 2.1C47.2996 0.999997 46.4996 0.0999973 45.2996 -2.75299e-06C40.9996 -0.200003 36.7996 0.399997 32.6996 1.6C31.7996 1.9 31.1996 2.7 31.1996 3.6C31.0996 7.4 31.0996 11.3 31.2996 15.1C31.3996 17.7 35.5996 17.8 35.3996 15.1Z" fill="#00929D"/>
<path d="M11.5992 53.9C13.5992 53.8 15.5992 53.6 17.5992 53.5C18.7992 53.4 18.7992 51.5 17.5992 51.6C15.5992 51.7 13.5992 51.9 11.5992 52C10.3992 52.1 10.3992 54 11.5992 53.9Z" fill="#00929D"/>
<path d="M13.6999 21.4C15.8999 22.9 17.7999 24.6 19.2999 26.7C19.9999 27.6 21.5999 26.7 20.8999 25.8C19.0999 23.4 16.9999 21.4 14.5999 19.8C13.6999 19.1 12.7999 20.8 13.6999 21.4Z" fill="#00929D"/>
<path d="M38.6998 11C38.4998 13.5 38.5998 16 38.8998 18.5C38.9998 19.7 40.8998 19.7 40.7998 18.5C40.4998 16 40.4998 13.5 40.5998 11C40.6998 9.80001 38.7998 9.80001 38.6998 11Z" fill="#00929D"/>
<path d="M63.7996 22.5C65.2996 20.6 66.7996 18.8 68.2996 16.9C68.9996 16 67.6996 14.6 66.9996 15.6C65.4996 17.5 63.9996 19.3 62.4996 21.2C61.7996 22.1 63.0996 23.4 63.7996 22.5Z" fill="#00929D"/>
<path d="M71.1993 46.1C72.9993 45.7 74.7993 45.4 76.5993 45.3C77.7993 45.2 77.7993 43.3 76.5993 43.4C74.5993 43.5 72.5993 43.8 70.6993 44.3C69.5993 44.6 70.0993 46.4 71.1993 46.1Z" fill="#00929D"/>
<path d="M61.1995 70.4C62.7995 71.2 64.1995 72.4 65.2995 73.9C65.9995 74.9 67.5995 74 66.8995 73C65.6995 71.2 64.0995 69.8 62.0995 68.8C61.0995 68.3 60.1995 69.9 61.1995 70.4Z" fill="#00929D"/>
<path d="M32.4 81.6C33 79.5 33.5 77.3 34.1 75.2C34.4 74 32.6 73.5 32.3 74.7C31.7 76.8 31.2 79 30.6 81.1C30.3 82.3 32.1 82.7 32.4 81.6Z" fill="#00929D"/>
<path d="M98.2993 16.3C94.9993 16.7 92.6993 19.7 93.3993 23C94.2993 26.7 98.1993 28.6 101.799 27.8C105.299 27.1 107.799 24.1 106.499 20.5C105.299 17.1 101.399 16.1 98.1993 17C96.9993 17.3 97.4993 19.1 98.6993 18.8C100.799 18.3 103.299 18.6 104.499 20.6C105.799 22.9 104.299 25.2 101.999 25.9C99.6993 26.6 96.9993 25.9 95.7993 23.7C94.5993 21.5 95.6993 18.5 98.3993 18.2C99.4993 18.1 99.4993 16.2 98.2993 16.3Z" fill="#00929D"/>
<path d="M97.8997 12.3C97.9997 11.5 98.0997 10.7 98.1997 9.9C98.2997 9.2 98.1997 8 98.4997 7.4C98.2997 7.5 98.0997 7.7 97.8997 7.8C98.3997 7.6 99.2997 7.8 99.8997 7.8C100.6 7.9 101.3 7.9 102 8C101.7 7.7 101.4 7.4 101.1 7.1C101.1 8.7 101.1 10.2 101.1 11.8C101.1 13 103 13 103 11.8C103 10.2 103 8.7 103 7.1C103 6.6 102.6 6.2 102.1 6.2C100.9 6.1 99.8997 6 98.7997 6C98.0997 6 97.2997 6 96.8997 6.7C96.4997 7.4 96.5997 8.4 96.4997 9.2C96.3997 10.3 96.2997 11.3 96.0997 12.4C95.8997 13.5 97.7997 13.5 97.8997 12.3Z" fill="#00929D"/>
<path d="M96.8996 33.3C96.7996 34.7 96.8996 36.1 97.0996 37.4C97.1996 37.8 97.5996 38.1 97.9996 38.1C98.8996 38 99.6996 37.9 100.6 37.8C101.2 37.7 101.8 37.7 102.2 37.3C102.7 36.8 102.7 36.2 102.7 35.6C102.7 34.7 102.7 33.7 102.7 32.8C102.7 31.6 100.8 31.6 100.8 32.8C100.8 33.3 100.8 33.8 100.8 34.4C100.8 34.7 100.9 35.8 100.8 36C100.7 36.1 99.7996 36.1 99.5996 36.1C99.0996 36.2 98.4996 36.2 97.9996 36.3C98.2996 36.5 98.5996 36.8 98.8996 37C98.6996 35.8 98.6996 34.6 98.7996 33.4C98.8996 32.1 96.9996 32.1 96.8996 33.3Z" fill="#00929D"/>
<path d="M87.5993 18.9C86.4993 18.9 84.3993 18.4 83.3993 19.3C82.8993 19.8 82.7993 20.6 82.6993 21.2C82.4993 22 82.2993 22.8 82.1993 23.6C82.0993 24.7 82.6993 25.4 83.7993 25.5C85.5993 25.7 87.4993 25.5 89.2993 25.5C90.4993 25.5 90.4993 23.6 89.2993 23.6C87.7993 23.6 86.1993 23.6 84.6993 23.6C84.4993 23.6 84.3993 23.6 84.1993 23.6C83.8993 23.7 83.8993 23.6 83.9993 23.5C83.9993 23.5 84.1993 22.7 84.2993 22.5C84.3993 21.8 84.3993 20.9 84.7993 20.3C84.5993 20.4 84.3993 20.6 84.1993 20.7C85.0993 20.3 86.4993 20.6 87.4993 20.6C88.7993 20.8 88.7993 18.9 87.5993 18.9Z" fill="#00929D"/>
<path d="M112.799 20.5C113.299 20.4 113.899 20.3 114.399 20.3C114.899 20.2 115.699 20 116.099 20C116.299 20 116.199 19.9 116.099 20.2C115.999 20.4 116.099 20.8 116.099 21.1C116.099 21.7 116.099 22.3 116.099 22.9C116.299 22.6 116.599 22.3 116.799 22C115.599 22.2 114.499 22.4 113.299 22.4C112.099 22.4 112.099 24.3 113.299 24.3C114.599 24.3 115.999 24.1 117.299 23.8C117.699 23.7 117.999 23.3 117.999 22.9C117.999 22 117.999 21 117.999 20.1C117.999 19.4 117.799 18.8 117.199 18.4C116.599 18 115.799 18.3 115.099 18.4C114.199 18.5 113.199 18.7 112.299 18.8C111.099 18.9 111.599 20.7 112.799 20.5Z" fill="#00929D"/>
<path d="M107.1 13.3C107.5 12.7 107.9 12.1 108.4 11.4C108.7 11 109.2 9.79999 109.7 9.59999C109.4 9.59999 109.1 9.59999 108.8 9.59999C109.2 9.79999 109.8 11 110 11.4C110.4 12 110.8 12.6 111.2 13.3C111.3 12.9 111.4 12.4 111.5 12C110.6 12.6 109.7 13.1 108.6 13.4C107.4 13.7 107.9 15.5 109.1 15.2C110.3 14.8 111.4 14.3 112.4 13.6C112.8 13.3 113 12.8 112.7 12.3C112 11.3 111.4 10.3 110.7 9.29999C110.3 8.69999 109.9 7.79999 109.1 7.79999C108.3 7.79999 107.9 8.69999 107.5 9.29999C106.8 10.3 106.2 11.3 105.5 12.3C104.8 13.3 106.4 14.3 107.1 13.3Z" fill="#00929D"/>
<path d="M105.899 31.7C105.599 32.7 105.999 33.7 106.899 34.2C107.799 34.8 108.899 34.8 109.899 34.4C110.399 34.2 110.899 33.9 111.399 33.6C111.899 33.3 112.499 33.1 112.699 32.6C112.999 32.1 112.799 31.6 112.699 31.1C112.499 30.4 112.299 29.6 112.199 28.9C111.899 27.7 110.099 28.2 110.399 29.4C110.599 30.2 111.099 31.4 110.999 32.2C111.099 32 111.199 31.8 111.299 31.5C110.899 31.9 109.999 32.4 109.399 32.6C108.999 32.8 107.499 33.1 107.799 32.2C108.099 31 106.299 30.6 105.899 31.7Z" fill="#00929D"/>
<path d="M89.1992 28.9C88.2992 29.8 87.3992 30.7 86.4992 31.7C86.1992 32 86.0992 32.7 86.4992 33C87.5992 34 89.1992 35.4 90.7992 35.6C92.3992 35.8 93.3992 33.7 94.1992 32.7C94.8992 31.8 93.5992 30.4 92.8992 31.4C92.3992 32 91.4992 33.7 90.7992 33.7C90.3992 33.7 89.6992 33.1 89.3992 32.9C88.8992 32.6 88.3992 32.2 87.8992 31.8C87.8992 32.2 87.8992 32.7 87.8992 33.1C88.7992 32.2 89.6992 31.3 90.5992 30.3C91.2992 29.4 89.9992 28 89.1992 28.9Z" fill="#00929D"/>
<path d="M90.4994 15.2C89.6994 13.9 88.8994 12.6 88.0994 11.2C87.9994 11.6 87.8994 12.1 87.7994 12.5C88.6994 12 91.7994 10.7 91.8994 12.8C91.8994 14 93.7994 14 93.7994 12.8C93.7994 11.4 92.8994 10.4 91.5994 9.90001C89.9994 9.40001 88.3994 10.1 86.8994 10.8C86.3994 11 86.2994 11.7 86.5994 12.1C87.3994 13.4 88.1994 14.7 88.9994 16.1C89.4994 17.2 91.0994 16.2 90.4994 15.2Z" fill="#00929D"/>
<path d="M88.6993 20.1C88.9993 18.8 89.4993 17.6 90.2993 16.5C90.9993 15.6 89.6993 14.2 88.9993 15.2C87.9993 16.5 87.2993 18 86.8993 19.6C86.6993 20.8 88.4993 21.3 88.6993 20.1Z" fill="#00929D"/>
<path d="M88.3 24.8C88.1 26.6 88.6 28.3 89.7 29.7C90.4 30.7 91.8 29.3 91 28.4C90.2 27.4 90 26.1 90.1 24.8C90.3 23.6 88.4 23.6 88.3 24.8Z" fill="#00929D"/>
<path d="M93.0999 32.7C94.1999 33.4 95.3999 33.9 96.6999 34.1C97.8999 34.3 98.3999 32.5 97.1999 32.3C95.9999 32.1 94.9999 31.8 93.9999 31.1C92.9999 30.5 92.0999 32.1 93.0999 32.7Z" fill="#00929D"/>
<path d="M102.4 33.6C104 33.8 105.4 33.5 106.9 32.8C108 32.3 107 30.7 106 31.2C104.9 31.7 103.7 31.9 102.5 31.7C101.2 31.6 101.2 33.5 102.4 33.6Z" fill="#00929D"/>
<path d="M110.299 28.8C110.599 28.5 110.899 28.2 111.199 27.9C111.199 27.9 111.199 27.9 111.099 27.9C111.399 28.3 111.699 28.7 111.999 29.1C112.099 28.9 112.599 28.4 112.799 28.2C113.099 27.8 113.499 27.3 113.799 26.8C114.299 25.9 114.599 24.9 114.599 23.8C114.599 22.6 112.699 22.6 112.699 23.8C112.699 24.9 112.199 25.8 111.599 26.6C111.099 27.2 110.299 27.8 110.099 28.6C109.899 29.2 110.399 29.8 110.999 29.8C110.999 29.8 110.999 29.8 111.099 29.8C111.599 29.8 112.099 29.4 111.999 28.9C112.099 27.6 110.199 27.6 110.299 28.8Z" fill="#00929D"/>
<path d="M108.5 15.7C109.9 16.7 110.8 18.3 111.6 19.7C112.2 20.7 113.8 19.8 113.2 18.8C112.1 17 111 15.4 109.4 14.1C108.5 13.3 107.6 15 108.5 15.7Z" fill="#00929D"/>
<path d="M102.999 12.7C103.699 12.4 104.399 12.8 104.999 13.1C106.099 13.7 106.999 12.1 105.899 11.5C104.899 10.9 103.699 10.4 102.499 10.9C101.999 11.1 101.699 11.5 101.799 12.1C101.899 12.5 102.499 12.9 102.999 12.7Z" fill="#00929D"/>
<path d="M94.2 13.8C94.9 13.3 95.7 12.9 96.5 12.7C97.7 12.4 97.2 10.6 96 10.9C94.8 11.2 93.8 11.7 92.8 12.4C92.4 12.7 92.5 13.4 92.8 13.7C93.3 14.1 93.8 14.1 94.2 13.8Z" fill="#00929D"/>
</g>
<defs>
<clipPath id="clip0_118_64">
<rect width="118.4" height="89.3" fill="white"/>
</clipPath>
</defs>
</svg>
