<svg width="17" height="12" viewBox="0 0 17 12" fill="none" xmlns="http://www.w3.org/2000/svg">
<path d="M15.957 2.40283C16.3086 3.6333 16.3086 6.27002 16.3086 6.27002C16.3086 6.27002 16.3086 8.87744 15.957 10.1372C15.7812 10.8403 15.2246 11.3677 14.5508 11.5435C13.291 11.8657 8.31055 11.8657 8.31055 11.8657C8.31055 11.8657 3.30078 11.8657 2.04102 11.5435C1.36719 11.3677 0.810547 10.8403 0.634766 10.1372C0.283203 8.87744 0.283203 6.27002 0.283203 6.27002C0.283203 6.27002 0.283203 3.6333 0.634766 2.40283C0.810547 1.69971 1.36719 1.14307 2.04102 0.967285C3.30078 0.615723 8.31055 0.615723 8.31055 0.615723C8.31055 0.615723 13.291 0.615723 14.5508 0.967285C15.2246 1.14307 15.7812 1.69971 15.957 2.40283ZM6.66992 8.64307L10.8301 6.27002L6.66992 3.89697V8.64307Z" fill="white"/>
</svg>
