<svg width="16" height="13" viewBox="0 0 16 13" fill="none" xmlns="http://www.w3.org/2000/svg">
<path d="M14.3208 3.19385C14.3208 3.34033 14.3208 3.45752 14.3208 3.604C14.3208 7.67627 11.2446 12.3345 5.59033 12.3345C3.83252 12.3345 2.22119 11.8364 0.873535 10.9575C1.10791 10.9868 1.34229 11.0161 1.60596 11.0161C3.0415 11.0161 4.35986 10.5181 5.41455 9.69775C4.06689 9.66846 2.92432 8.78955 2.54346 7.55908C2.74854 7.58838 2.92432 7.61768 3.12939 7.61768C3.39307 7.61768 3.68604 7.55908 3.92041 7.50049C2.51416 7.20752 1.45947 5.97705 1.45947 4.48291V4.45361C1.86963 4.68799 2.36768 4.80518 2.86572 4.83447C2.01611 4.27783 1.48877 3.34033 1.48877 2.28564C1.48877 1.69971 1.63525 1.17236 1.89893 0.73291C3.42236 2.57861 5.70752 3.80908 8.25635 3.95557C8.19775 3.72119 8.16846 3.48682 8.16846 3.25244C8.16846 1.55322 9.54541 0.17627 11.2446 0.17627C12.1235 0.17627 12.9146 0.527832 13.5005 1.14307C14.1743 0.996582 14.8481 0.73291 15.4341 0.381348C15.1997 1.11377 14.731 1.69971 14.0864 2.08057C14.7017 2.02197 15.3169 1.84619 15.8442 1.61182C15.4341 2.22705 14.9067 2.75439 14.3208 3.19385Z" fill="white"/>
</svg>
