<svg width="14" height="14" viewBox="0 0 14 14" fill="none" xmlns="http://www.w3.org/2000/svg">
<path d="M7.43555 3.87158C9.28125 3.87158 10.8047 5.39502 10.8047 7.24072C10.8047 9.11572 9.28125 10.6099 7.43555 10.6099C5.56055 10.6099 4.06641 9.11572 4.06641 7.24072C4.06641 5.39502 5.56055 3.87158 7.43555 3.87158ZM7.43555 9.43799C8.63672 9.43799 9.60352 8.47119 9.60352 7.24072C9.60352 6.03955 8.63672 5.07275 7.43555 5.07275C6.20508 5.07275 5.23828 6.03955 5.23828 7.24072C5.23828 8.47119 6.23438 9.43799 7.43555 9.43799ZM11.7129 3.75439C11.7129 4.19385 11.3613 4.54541 10.9219 4.54541C10.4824 4.54541 10.1309 4.19385 10.1309 3.75439C10.1309 3.31494 10.4824 2.96338 10.9219 2.96338C11.3613 2.96338 11.7129 3.31494 11.7129 3.75439ZM13.9395 4.54541C13.998 5.62939 13.998 8.88135 13.9395 9.96533C13.8809 11.02 13.6465 11.9282 12.8848 12.7192C12.123 13.481 11.1855 13.7153 10.1309 13.7739C9.04688 13.8325 5.79492 13.8325 4.71094 13.7739C3.65625 13.7153 2.74805 13.481 1.95703 12.7192C1.19531 11.9282 0.960938 11.02 0.902344 9.96533C0.84375 8.88135 0.84375 5.62939 0.902344 4.54541C0.960938 3.49072 1.19531 2.55322 1.95703 1.7915C2.74805 1.02979 3.65625 0.79541 4.71094 0.736816C5.79492 0.678223 9.04688 0.678223 10.1309 0.736816C11.1855 0.79541 12.123 1.02979 12.8848 1.7915C13.6465 2.55322 13.8809 3.49072 13.9395 4.54541ZM12.5332 11.1079C12.8848 10.2583 12.7969 8.20752 12.7969 7.24072C12.7969 6.30322 12.8848 4.25244 12.5332 3.37354C12.2988 2.81689 11.8594 2.34814 11.3027 2.14307C10.4238 1.7915 8.37305 1.87939 7.43555 1.87939C6.46875 1.87939 4.41797 1.7915 3.56836 2.14307C2.98242 2.37744 2.54297 2.81689 2.30859 3.37354C1.95703 4.25244 2.04492 6.30322 2.04492 7.24072C2.04492 8.20752 1.95703 10.2583 2.30859 11.1079C2.54297 11.6938 2.98242 12.1333 3.56836 12.3677C4.41797 12.7192 6.46875 12.6313 7.43555 12.6313C8.37305 12.6313 10.4238 12.7192 11.3027 12.3677C11.8594 12.1333 12.3281 11.6938 12.5332 11.1079Z" fill="white"/>
</svg>
