<svg width="171" height="140" viewBox="0 0 171 140" fill="none" xmlns="http://www.w3.org/2000/svg">
<g clip-path="url(#clip0_118_431)">
<path d="M76.1748 12.1289C73.1748 31.8289 72.3748 51.8289 73.5748 71.7289C73.6748 72.9289 75.4748 72.9289 75.4748 71.7289C74.1748 52.0289 75.0748 32.1289 77.9748 12.6289C78.1748 11.4289 76.3748 10.9289 76.1748 12.1289Z" fill="#F2CF3D"/>
<path d="M158.274 74.7289C134.074 76.3289 109.774 75.3289 85.7744 71.7289C84.5744 71.5289 84.0744 73.3289 85.2744 73.5289C109.374 77.2289 133.874 78.2289 158.274 76.6289C159.474 76.5289 159.474 74.6289 158.274 74.7289Z" fill="#F2CF3D"/>
<path d="M81.3743 81.3285C99.5743 96.1285 117.374 111.329 134.974 126.929C135.874 127.729 137.174 126.429 136.274 125.629C118.674 110.029 100.874 94.7285 82.6743 79.9285C81.7743 79.2285 80.3743 80.5285 81.3743 81.3285Z" fill="#F2CF3D"/>
<path d="M76.2746 82.3289C68.1746 92.7289 58.8746 102.129 48.3746 110.229C47.4746 110.929 48.7746 112.329 49.6746 111.529C60.1746 103.329 69.6746 93.8289 77.7746 83.2289C78.5746 82.3289 76.9746 81.3289 76.2746 82.3289Z" fill="#F2CF3D"/>
<path d="M11.4745 41.3286C21.8745 47.5286 30.4745 56.4286 39.9745 63.9286C49.4745 71.5286 59.4745 78.6286 69.8745 85.0286C70.8745 85.6286 71.8745 84.0286 70.7745 83.4286C60.1745 76.9286 49.9745 69.6286 40.2745 61.8286C31.0745 54.4286 22.6745 45.8286 12.4745 39.7286C11.3745 39.1286 10.4745 40.7286 11.4745 41.3286Z" fill="#F2CF3D"/>
<path d="M97.3746 69.5287C94.5746 62.4287 85.9746 58.2287 78.6746 60.9287C71.4746 63.6287 67.5746 72.5287 70.1746 79.7287C72.7746 87.0287 81.4746 90.9287 88.7746 88.8287C92.9746 87.6287 96.4746 84.4287 97.6746 80.1287C98.8746 75.9287 97.9746 71.4287 95.8746 67.7287C91.4746 60.2287 82.3746 57.6287 74.5746 61.3287C66.9746 64.9287 63.5746 73.8287 66.5746 81.7287C69.5746 89.6287 77.8746 93.6287 85.8746 91.6287C93.8746 89.6287 98.4746 81.7287 97.2746 73.7287C96.1746 66.0287 89.4746 60.6287 81.6746 61.2287C74.2746 61.8287 67.7746 67.5287 68.1746 75.3287C68.5746 82.6287 74.6746 89.9287 82.4746 89.2287C90.3746 88.5287 97.2746 79.8287 94.0746 72.0287C91.4746 65.7287 82.8746 62.6287 76.9746 66.0287C70.8746 69.4287 70.8746 77.9287 74.9746 82.8287C79.5746 88.3287 87.4746 86.8287 90.5746 80.7287C93.3746 75.1287 91.2746 66.5287 83.7746 66.7287C77.4746 66.8287 71.0746 74.1287 74.4746 80.2287C76.2746 83.5287 80.5746 85.4287 84.2746 84.3287C87.8746 83.2287 89.8746 79.4287 89.1746 75.8287C88.4746 72.2287 84.8746 70.1287 81.3746 71.2287C78.1746 72.2287 75.5746 75.7287 76.8746 79.1287C77.9746 82.1287 81.5746 83.6287 84.6746 83.0287C88.0746 82.2287 89.8746 78.7287 88.5746 75.5287C87.3746 72.5287 83.9746 70.3287 80.6746 71.5287C79.7746 71.8287 79.2746 72.6287 79.4746 73.6287C80.0746 76.7287 83.7746 78.2287 86.4746 76.7287C88.3746 75.7287 86.6746 72.8287 84.7746 73.8287C83.8746 74.3287 82.8746 73.6287 82.6746 72.7287C82.2746 73.4287 81.8746 74.1287 81.4746 74.8287C83.5746 74.0287 86.5746 76.5287 85.2746 78.8287C84.2746 80.5287 81.2746 80.1287 80.2746 78.7287C78.6746 76.7287 81.3746 74.3287 83.3746 74.4287C86.1746 74.5287 86.3746 78.3287 85.0746 80.0287C83.2746 82.3287 79.5746 81.5287 77.8746 79.5287C76.3746 77.6287 76.7746 75.3287 78.1746 73.4287C80.5746 70.1287 86.5746 68.4287 88.2746 73.4287C89.5746 77.1287 87.0746 82.4287 83.0746 83.1287C78.3746 83.9287 75.2746 78.5287 75.4746 74.5287C75.7746 69.3287 80.9746 67.3287 85.4746 68.7287C90.7746 70.4287 93.0746 75.9287 90.2746 80.8287C87.2746 85.8287 80.6746 87.8287 75.9746 84.0287C72.0746 80.8287 70.2746 74.6287 72.9746 70.1287C75.5746 65.8287 81.3746 64.0287 86.0746 65.2287C91.5746 66.6287 94.4746 71.9287 94.2746 77.3287C93.7746 82.9287 89.6746 87.6287 83.8746 88.6287C77.8746 89.6287 71.8746 86.6287 69.6746 80.9287C67.4746 75.3287 69.0746 68.9287 74.1746 65.5287C79.2746 62.1287 85.9746 62.2287 90.4746 66.5287C94.9746 70.8287 96.8746 79.0287 91.6746 83.6287C87.4746 87.3287 80.5746 86.8287 76.3746 83.3287C71.9746 79.6287 71.6746 73.2287 74.5746 68.6287C77.5746 63.8287 83.6746 62.4287 88.6746 65.0287C91.0746 66.2287 93.0746 68.1287 94.0746 70.7287C94.8746 72.4287 98.1746 71.6287 97.3746 69.5287Z" fill="#00929D"/>
<path d="M168.874 72.5285C167.874 68.2285 162.974 65.3285 158.674 66.6285C154.174 67.9285 151.874 73.4285 153.474 77.6285C155.074 82.0285 160.474 84.2285 164.774 82.6285C169.374 80.9285 171.674 75.6285 170.474 71.0285C169.874 68.9285 166.674 69.8285 167.274 71.9285C167.974 74.7285 166.774 78.2285 163.974 79.3285C161.474 80.3285 157.974 79.2285 156.774 76.7285C155.674 74.3285 156.874 70.9285 159.374 69.8285C161.974 68.8285 165.074 70.6285 165.674 73.3285C166.174 75.5285 169.374 74.6285 168.874 72.5285Z" fill="#00929D"/>
<path d="M15.9744 39.9285C17.1744 33.5285 9.47442 28.1285 4.07442 32.3285C-0.825579 36.1285 0.0744214 44.0285 5.67442 46.5285C11.5744 49.1285 19.6744 45.0285 18.0744 37.9285C16.4744 31.0285 7.27442 29.0285 2.87442 34.5285C0.874421 37.0285 0.474421 41.8285 4.37442 42.7285C8.17442 43.5285 11.3744 39.5285 12.3744 36.3285C12.8744 34.8285 11.0744 33.8285 9.87442 34.4285C6.87442 35.9285 4.37442 38.0285 2.37442 40.7285C1.27442 42.3285 3.67442 44.1285 4.97442 42.7285C7.47442 40.2285 7.97442 36.3285 5.97442 33.3285C5.57442 32.6285 4.87442 32.4285 4.07442 32.5285C1.27442 33.1285 0.674421 36.4285 1.97442 38.6285C3.87442 41.9285 8.27442 40.7285 10.9744 39.2285C10.2744 38.3285 9.57442 37.4285 8.97442 36.6285C6.77442 38.6285 5.87442 42.7285 8.57442 44.7285C10.8744 46.4285 14.2744 45.5285 15.1744 42.7285C15.7744 40.9285 12.8744 39.6285 12.0744 41.4285C11.8744 42.4285 11.3744 42.9285 10.3744 42.9285C8.17442 42.9285 8.17442 46.2285 10.3744 46.3285C12.4744 46.3285 14.3744 45.2285 15.1744 43.3285C14.1744 42.9285 13.0744 42.4285 12.0744 42.0285C11.8744 42.6285 10.7744 42.3285 10.5744 41.9285C9.87442 40.9285 10.8744 39.7285 11.4744 39.1285C12.9744 37.8285 11.0744 35.5285 9.47442 36.5285C8.47442 37.1285 6.47442 38.2285 5.37442 37.4285C4.97442 37.1285 4.57442 36.1285 5.17442 36.0285C4.57442 35.7285 3.87442 35.5285 3.27442 35.2285C4.37442 36.9285 4.27442 39.0285 2.77442 40.5285C3.67442 41.2285 4.57442 41.9285 5.37442 42.5285C6.97442 40.2285 9.17442 38.6285 11.6744 37.4285C10.8744 36.8285 10.0744 36.1285 9.17442 35.5285C8.77442 36.7285 8.07442 37.7285 7.17442 38.6285C6.37442 39.3285 4.47442 40.2285 4.67442 38.3285C4.97442 36.0285 7.87442 34.5285 9.87442 34.6285C12.1744 34.7285 14.3744 36.5285 14.7744 38.8285C15.2744 41.4285 13.3744 43.4285 10.9744 43.9285C6.87442 44.8285 2.87442 41.4285 4.57442 37.1285C5.27442 35.3285 6.97442 33.9285 8.97442 34.2285C11.0744 34.6285 13.0744 36.7285 12.6744 39.0285C12.2744 41.2285 15.5744 42.1285 15.9744 39.9285Z" fill="#00929D"/>
<path d="M84.3745 9.42863C83.9745 5.32863 80.9745 1.92863 76.8745 1.12863C72.9745 0.328632 69.1745 2.52863 67.4745 6.02863C65.8745 9.62863 66.4745 13.9286 69.5745 16.4286C72.4745 18.8286 76.8745 19.3286 80.1745 17.3286C84.1745 14.8286 85.3745 9.32863 82.9745 5.32863C81.8745 3.52863 78.9745 5.12863 80.0745 7.02863C81.7745 9.82863 80.6745 13.8286 77.4745 14.9286C74.6745 15.9286 71.0745 14.4286 70.1745 11.5286C69.3745 8.72863 71.0745 5.32863 73.8745 4.52863C77.0745 3.52863 80.7745 6.22863 81.0745 9.42863C81.1745 11.5286 84.5745 11.6286 84.3745 9.42863Z" fill="#00929D"/>
<path d="M71.9746 2.0287C69.7746 3.7287 68.2746 5.8287 67.6746 8.5287C67.2746 10.2287 69.1746 11.2287 70.4746 10.1287C72.4746 8.5287 74.4746 6.9287 76.4746 5.3287C75.5746 4.6287 74.6746 3.9287 73.8746 3.3287C71.7746 6.6287 69.6746 9.9287 67.5746 13.2287C66.5746 14.8287 68.8746 16.6287 70.1746 15.2287C72.5746 12.6287 74.9746 10.0287 77.4746 7.4287C76.5746 6.7287 75.6746 6.0287 74.8746 5.4287C73.5746 8.1287 72.2746 10.8287 70.9746 13.4287C70.2746 14.8287 71.7746 16.7287 73.2746 15.7287C75.5746 14.3287 77.8746 12.8287 80.1746 11.4287C79.3746 10.6287 78.6746 9.9287 77.8746 9.1287C76.9746 10.7287 75.9746 12.1287 74.7746 13.4287C73.5746 14.7287 74.7746 16.5287 76.3746 16.2287C77.7746 16.0287 79.0746 15.7287 80.4746 15.5287C82.5746 15.1287 81.6746 11.9287 79.5746 12.3287C78.1746 12.5287 76.8746 12.8287 75.4746 13.0287C75.9746 13.9287 76.5746 14.9287 77.0746 15.8287C78.4746 14.3287 79.6746 12.6287 80.6746 10.8287C81.4746 9.4287 79.8746 7.6287 78.3746 8.5287C76.0746 9.9287 73.7746 11.4287 71.4746 12.8287C72.2746 13.6287 72.9746 14.3287 73.7746 15.1287C75.0746 12.4287 76.3746 9.7287 77.6746 7.1287C78.4746 5.5287 76.3746 3.6287 75.0746 5.1287C72.6746 7.7287 70.2746 10.3287 67.7746 12.9287C68.6746 13.6287 69.5746 14.3287 70.3746 14.9287C72.4746 11.6287 74.5746 8.3287 76.6746 5.0287C77.7746 3.3287 75.4746 1.8287 74.0746 3.0287C72.0746 4.6287 70.0746 6.2287 68.0746 7.8287C68.9746 8.3287 69.9746 8.9287 70.8746 9.4287C71.2746 7.6287 72.0746 6.0287 73.5746 4.9287C75.3746 3.7287 73.6746 0.728702 71.9746 2.0287Z" fill="#00929D"/>
<path d="M51.0743 110.929C49.9743 106.429 45.4743 103.029 40.7743 103.929C36.1743 104.829 32.8743 109.429 34.1743 114.029C35.6743 118.929 40.7743 120.929 45.3743 119.029C49.6743 117.229 52.3743 112.729 52.1743 108.129C52.0743 105.929 48.7743 105.929 48.7743 108.129C48.8743 111.029 47.4743 113.929 44.9743 115.429C42.3743 117.029 38.7743 116.729 37.5743 113.629C36.4743 110.829 38.3743 108.029 41.0743 107.329C44.1743 106.529 46.9743 108.929 47.7743 111.929C48.2743 113.929 51.5743 113.029 51.0743 110.929Z" fill="#00929D"/>
<path d="M137.875 129.629C137.175 125.229 132.075 122.429 127.975 123.929C123.675 125.429 121.775 130.929 123.675 134.929C125.575 139.129 131.075 140.729 135.175 138.929C139.675 136.929 141.575 131.429 140.175 126.929C139.475 124.829 136.275 125.729 136.975 127.829C137.875 130.629 137.075 133.929 134.575 135.529C132.275 137.029 128.575 136.429 127.075 134.029C125.675 131.929 126.375 128.429 128.775 127.229C131.275 125.929 134.375 127.829 134.775 130.529C134.975 132.729 138.275 131.829 137.875 129.629Z" fill="#00929D"/>
</g>
<defs>
<clipPath id="clip0_118_431">
<rect width="170" height="138.8" fill="white" transform="translate(0.874512 0.928711)"/>
</clipPath>
</defs>
</svg>
