<svg width="160" height="162" viewBox="0 0 160 162" fill="none" xmlns="http://www.w3.org/2000/svg">
<g clip-path="url(#clip0_118_379)">
<path d="M36.2839 44.2085C36.4663 45.1341 36.7992 45.7816 37.4148 46.4381C38.0303 47.0947 39.2523 46.4973 38.9969 45.6401C38.6731 44.71 38.4177 43.8528 38.094 42.9226C37.5879 43.2601 37.2231 43.6021 36.717 43.9395C37.3417 44.3133 37.825 44.6827 38.4497 45.0565C39.0744 45.4304 40.155 44.8284 39.8267 44.0396C39.2384 42.535 38.5726 41.2401 37.6242 39.9361C37.1865 40.3465 36.7488 40.7569 36.2381 41.2357C36.9859 42.1795 37.8797 42.9865 38.9193 43.6567C39.544 44.0305 40.6246 43.4286 40.2962 42.6398C39.8402 41.4224 39.3112 40.2734 38.7139 39.0515C38.1394 39.316 37.6333 39.6534 37.0588 39.9179C37.7336 40.9301 38.4769 42.0153 39.1518 43.0274C39.6899 43.8937 41.117 43.5152 40.8707 42.3753C40.5652 40.8798 40.1137 39.5211 39.5209 38.1578C38.9464 38.4223 38.4403 38.7597 37.8658 39.0242C38.6045 40.2507 39.4162 41.4088 40.1549 42.6353C40.693 43.5016 42.193 43.0546 41.8738 41.9832C41.2992 40.0545 40.5103 38.1896 39.5755 36.4616C39.042 35.4539 37.4598 36.252 37.9204 37.328C39.1835 39.8448 40.5926 42.2249 42.4302 44.4772C43.0412 45.2751 44.1993 44.4635 44.0124 43.6792C43.5198 41.3994 42.6671 39.3203 41.527 37.3734C40.9251 36.2928 39.4114 37.1638 39.872 38.2398C40.7202 40.4603 42.1474 42.275 44.0808 43.7522C44.9106 44.3449 45.7222 43.3098 45.3939 42.521C44.3314 40.3644 43.2689 38.2077 42.2793 35.9827C41.7732 36.3201 41.2671 36.6576 40.8294 37.068C42.5987 39.2474 44.5822 41.3629 46.7162 43.2003C47.3363 43.7155 48.6221 43.3324 48.2983 42.4023C47.4638 39.7578 46.2645 37.4552 44.4952 35.2758C44.0575 35.6862 43.6198 36.0966 43.1092 36.5754C44.6823 38.2532 46.3284 39.8627 47.9016 41.5406C48.5172 42.1971 49.7391 41.5997 49.4837 40.7425C48.973 39.0282 48.2479 37.3776 47.1672 35.7864C46.6611 36.1238 46.155 36.4612 45.7173 36.8716C46.7342 38.2486 47.824 39.5571 49.0597 40.7289C49.6069 41.3125 50.9656 40.861 50.6418 39.9309C50.3819 39.215 50.1949 38.4308 49.935 37.7149C49.5474 36.5705 47.7646 37.0083 48.1522 38.1528C48.4121 38.8686 48.5991 39.6528 48.8591 40.3687C49.4335 40.1042 49.9396 39.7668 50.4412 39.5707C49.2055 38.3989 48.1157 37.0904 47.0988 35.7134C46.4878 34.9155 45.0424 35.8594 45.6489 36.7987C46.5928 38.244 47.254 39.6803 47.6964 41.3217C48.2709 41.0572 48.777 40.7198 49.2785 40.5237C47.7054 38.8458 46.0593 37.2364 44.4861 35.5585C43.6654 34.6831 42.3523 35.9143 43.1001 36.8581C44.5957 38.7457 45.7312 40.8339 46.438 43.0499C47.0125 42.7854 47.5186 42.4479 48.0202 42.2519C45.8862 40.4144 43.8297 38.3673 42.1334 36.1195C41.454 35.2486 40.2184 36.2701 40.6835 37.2047C41.746 39.3614 42.8085 41.518 43.7981 43.7431C44.2358 43.3327 44.6735 42.9223 45.1112 42.5119C43.383 41.2535 42.3023 39.6623 41.5863 37.7291C41.0118 37.9935 40.5057 38.331 39.9312 38.5955C41.0758 40.401 41.7918 42.3342 42.2889 44.4727C42.8634 44.2082 43.3695 43.8708 43.871 43.6747C42.1702 41.5682 40.825 39.4025 39.6302 36.9586C39.0557 37.2231 38.5496 37.5605 37.9751 37.825C38.8415 39.4801 39.5666 41.1306 40.1458 42.918C40.7203 42.6535 41.2902 42.5303 41.8647 42.2659C41.126 41.0394 40.3143 39.8813 39.5756 38.6548C38.9007 37.6426 37.3915 38.3722 37.9205 39.5212C38.5179 40.7431 38.8326 41.956 39.1427 43.3101C39.7172 43.0457 40.2871 42.9225 40.8616 42.658C40.1867 41.6458 39.4435 40.5607 38.7686 39.5485C38.0937 38.5363 36.5116 39.3343 37.1135 40.4149C37.647 41.4225 38.1806 42.4302 38.4998 43.5017C39.0059 43.1642 39.3706 42.8223 39.8767 42.4848C39.0469 41.8921 38.2899 41.231 37.6105 40.3602C36.8627 39.4164 35.5496 40.6475 36.2244 41.6597C36.8993 42.6719 37.5012 43.7525 37.8889 44.897C38.395 44.5595 38.7597 44.2175 39.2658 43.8801C38.6411 43.5062 38.1578 43.1369 37.5331 42.7631C36.9084 42.3892 35.8278 42.9911 36.1562 43.7799C36.4799 44.7101 36.7353 45.5673 37.0591 46.4974C37.6336 46.2329 38.1397 45.8955 38.6412 45.6994C38.2993 45.3347 38.0302 44.9015 37.9071 44.3316C37.8204 42.6308 35.9692 42.9957 36.2839 44.2085Z" fill="#F2CF3D"/>
<path d="M43.3788 50.1676C43.9898 50.9655 44.3866 51.8272 44.7104 52.7574C45.0296 53.8288 46.4522 53.5917 46.557 52.5338C46.7393 51.2663 46.8532 49.9257 47.0355 48.6581C46.4702 48.6399 45.7634 48.6172 45.198 48.599C45.2802 50.441 45.294 52.2102 45.3761 54.0522C45.4127 55.1146 46.9584 55.4474 47.2045 54.3941C47.6103 52.78 48.016 51.1659 48.4901 49.6247C47.8563 49.5335 47.2225 49.4424 46.6617 49.2828C46.4338 51.9639 46.2744 54.7179 46.0466 57.399C45.9372 58.5981 47.7747 58.6573 47.8841 57.4581C48.0026 55.9763 48.3992 54.6448 49.0101 53.2496C48.3763 53.1584 47.7425 53.0672 47.1817 52.9077C47.3186 55.2468 47.2412 57.6497 46.9541 59.9751C46.8492 61.0329 48.6093 61.3019 48.7825 60.317C49.0377 58.981 49.366 57.5766 49.6212 56.2406C49.0558 56.2224 48.3491 56.1997 47.7837 56.1815C48.0072 58.0281 47.948 59.8656 47.7475 61.6986C48.3129 61.7168 49.0197 61.7396 49.585 61.7578C49.7172 59.8518 50.1274 58.0964 50.8204 56.35C50.2596 56.1904 49.6987 56.0309 49.0695 55.7984C49.056 58.4156 49.1108 61.1058 49.0973 63.723C49.1292 64.9267 50.9668 64.9859 50.9348 63.7822C50.9894 62.086 51.3222 60.5403 51.9422 58.8623C51.3084 58.7711 50.6746 58.68 50.1138 58.5204C50.0957 61.279 49.9363 64.033 49.9182 66.7916C49.8863 67.781 51.5004 68.1867 51.7466 67.1334C52.0702 65.8704 52.2526 64.6028 52.5762 63.3398C51.9424 63.2486 51.3086 63.1575 50.7478 62.9979C50.83 64.84 51.0535 66.6866 51.1357 68.5287C51.1767 69.4497 52.7863 69.9968 52.9641 68.8706C53.1464 67.603 53.3971 66.4084 53.5794 65.1408C52.9456 65.0496 52.3119 64.9585 51.751 64.7989C51.742 67.2748 51.8744 69.7552 52.2894 72.2447C52.4673 73.3117 54.0312 73.079 54.1361 72.0212C54.4141 69.9785 54.6192 68.0042 54.9656 66.0344C54.4002 66.0162 53.6935 65.9934 53.1281 65.9752C53.1784 68.8067 53.0873 71.6337 53.1376 74.4652C53.1058 75.4546 54.7199 75.8604 54.9661 74.8071C55.4538 72.8419 55.9371 71.018 56.4248 69.0528C55.791 68.9616 55.1573 68.8705 54.5964 68.7109C54.5829 71.3281 54.428 73.9408 54.4144 76.558C54.3826 77.5474 55.5772 77.7982 56.1654 77.1096C57.2003 75.728 57.6015 74.2552 57.4464 72.4816C57.3414 71.3462 55.5769 71.2186 55.6088 72.4224C55.5314 74.8253 55.7368 77.2373 56.0834 79.6539C56.1929 80.6479 57.5425 80.4791 57.9209 79.7131C58.3814 78.5959 58.8464 77.3375 59.3069 76.2203C58.6731 76.1292 58.0393 76.038 57.4785 75.8785C57.5333 78.5686 57.5882 81.2588 57.643 83.949C57.675 85.1527 59.3712 85.2073 59.4805 84.0081C59.672 82.4579 59.9318 80.9805 60.1232 79.4303C59.5578 79.412 58.8511 79.3893 58.2857 79.3711C58.2083 81.774 58.2723 84.1815 58.1949 86.5844C58.2314 87.6468 59.7087 87.9066 60.0233 86.9263C60.812 84.4048 60.4699 81.8468 59.0517 79.7495C58.5136 78.8832 57.0865 79.2617 57.3328 80.4016C57.8664 83.6024 58.3362 86.5889 58.7331 89.6439C58.8425 90.6378 60.6846 90.5557 60.5797 89.4203C60.4748 88.285 60.5796 87.2272 60.9671 86.1784C60.3333 86.0873 59.6995 85.9961 59.1387 85.8366C59.1433 87.8884 59.5036 89.8809 60.2196 91.8141C60.6072 92.9586 62.1757 92.5846 62.0024 91.3763C61.9111 89.8169 62.0296 88.3351 62.5721 86.8668C62.0067 86.8486 61.3 86.8259 60.7346 86.8077C61.2728 89.8671 61.4553 92.9859 61.3552 96.0956C61.9206 96.1138 62.6273 96.1365 63.1927 96.1547C63.188 94.1029 63.3977 91.9872 63.8854 90.022C63.32 90.0038 62.6133 89.9811 62.0479 89.9629C62.3855 92.6621 62.6501 95.4298 62.9876 98.1291C63.5576 98.0059 64.2005 97.8144 64.7704 97.6912C64.3873 96.4055 64.4192 95.416 65.094 94.235C64.4602 94.1439 63.9677 94.0573 63.3339 93.9661C63.7353 96.8797 64.0638 99.8617 64.1825 102.766C64.219 103.829 65.6963 104.088 66.0109 103.108C66.713 101.079 66.8497 99.0317 66.4939 96.8978C65.9239 97.0209 65.2811 97.2125 64.7111 97.3356C65.345 99.6199 65.6917 102.036 65.897 104.449C65.929 105.652 67.6251 105.707 67.7345 104.508C67.8393 103.45 68.0855 102.397 68.1903 101.339C67.6249 101.321 66.9182 101.298 66.3528 101.28C66.4076 103.97 66.4625 106.66 66.5857 109.423C67.2241 109.373 67.8624 109.323 68.4324 109.2C68.2225 106.929 67.9397 104.727 67.7982 102.529C67.2283 102.652 66.5854 102.844 66.0154 102.967C66.6357 105.675 67.183 108.452 67.7348 111.087C67.9857 112.086 69.5451 111.994 69.5815 110.864C69.5768 108.812 69.6451 106.692 69.6404 104.64C69.075 104.622 68.3683 104.599 67.8029 104.581C67.8532 107.412 67.9765 110.175 68.0268 113.007C68.6651 112.957 69.3034 112.906 69.8734 112.783C69.6955 111.716 69.8003 110.659 69.9781 109.532C69.4127 109.514 68.706 109.491 68.1406 109.473C68.8292 112.254 69.0893 115.163 69.0666 118.063C69.0347 119.053 70.6489 119.459 70.895 118.405C71.1457 117.211 71.3965 116.016 71.6472 114.821C71.0818 114.803 70.375 114.78 69.8097 114.762C70.1882 116.189 70.3524 117.68 70.5166 119.171C70.5486 120.375 72.2448 120.43 72.3541 119.23C72.4726 117.749 72.5911 116.267 72.6412 114.712C72.0028 114.762 71.3645 114.812 70.7945 114.935C71.3509 117.429 71.6246 119.914 71.5427 122.459C72.181 122.408 72.8194 122.358 73.3893 122.235C73.216 121.027 73.2524 119.896 73.5715 118.774C73.0061 118.756 72.2994 118.733 71.734 118.715C72.3634 121.141 72.71 123.557 72.8424 126.038C72.8744 127.242 74.5705 127.296 74.6799 126.097C74.7118 125.108 74.885 124.123 74.9168 123.133C74.2785 123.184 73.6402 123.234 73.0702 123.357C73.5764 125.213 74.0097 127.137 74.4475 128.919C74.6938 130.059 76.1893 129.754 76.2941 128.696C76.481 127.287 76.6633 126.019 76.8502 124.611C76.2119 124.661 75.5735 124.711 75.0036 124.834C75.2864 127.036 75.4278 129.234 75.7106 131.436C75.7517 132.357 77.3066 132.407 77.5482 131.496C77.7989 130.301 78.0496 129.106 78.3003 127.912C77.7349 127.893 77.0282 127.871 76.4628 127.852C77.042 129.64 77.2655 131.486 76.992 133.388C77.4935 133.192 78.068 132.927 78.638 132.804C78.5741 132.59 78.5148 132.234 78.451 132.02C77.8127 132.07 77.3157 132.125 76.6773 132.175C77.1516 132.827 77.3476 133.328 77.3203 134.177C77.9587 134.126 78.597 134.076 79.167 133.953C76.7864 124.396 73.4072 115.09 69.0979 106.108C68.5644 105.1 67.2011 105.693 67.379 106.76C67.6754 108.538 67.9719 110.317 68.2684 112.095C68.4417 113.303 70.2245 112.865 70.0512 111.657C69.7547 109.879 69.4582 108.101 69.1618 106.322C68.5873 106.587 68.0173 106.71 67.4428 106.974C71.6883 115.742 74.9306 124.902 77.3158 134.318C77.5666 135.316 79.126 135.225 79.1624 134.094C79.1988 132.964 78.9434 132.106 78.337 131.167C77.9311 130.588 76.8049 130.41 76.5633 131.322C76.3171 132.376 76.5041 133.16 77.1151 133.958C77.6578 134.683 78.597 134.076 78.7611 133.374C78.8978 131.327 78.6789 129.339 78.1042 127.41C77.8489 126.553 76.5129 126.298 76.2667 127.351C76.016 128.546 75.7653 129.74 75.5146 130.935C76.08 130.953 76.7867 130.976 77.3521 130.994C77.0693 128.792 76.9278 126.594 76.645 124.392C76.5401 123.256 74.9716 123.63 74.7984 124.615C74.6115 126.024 74.4292 127.292 74.2423 128.701C74.8807 128.65 75.519 128.6 76.0889 128.477C75.5827 126.621 75.1495 124.697 74.7117 122.914C74.4608 121.916 72.9698 122.08 72.865 123.138C72.8332 124.127 72.6599 125.112 72.6281 126.102C73.1935 126.12 73.9002 126.143 74.4656 126.161C74.3378 123.539 73.9957 120.981 73.3025 118.341C73.0471 117.484 71.7066 117.37 71.465 118.282C71.1322 119.828 71.0867 121.241 71.2509 122.732C71.4288 123.799 73.0611 123.64 73.0975 122.509C73.184 119.823 72.9149 117.197 72.2946 114.488C72.0438 113.49 70.5528 113.654 70.448 114.712C70.3295 116.194 70.2111 117.676 70.161 119.231C70.7264 119.249 71.4331 119.272 71.9985 119.29C71.9118 117.589 71.6792 116.025 71.2368 114.384C70.9814 113.526 69.6409 113.413 69.3993 114.324C69.1485 115.519 68.8978 116.714 68.6471 117.908C69.2809 118 69.9147 118.091 70.4755 118.25C70.5027 115.209 70.2472 112.159 69.4947 109.163C69.2394 108.306 67.8304 108.119 67.6572 109.104C67.329 110.508 67.3564 111.853 67.5252 113.203C67.7031 114.27 69.4084 114.042 69.3718 112.979C69.3215 110.148 69.1983 107.385 69.148 104.553C69.116 103.349 67.2785 103.29 67.3105 104.494C67.3151 106.546 67.2468 108.666 67.2515 110.718C67.8898 110.668 68.5282 110.618 69.0981 110.494C68.4779 107.786 67.9306 105.009 67.3787 102.374C67.0641 101.161 65.4226 101.603 65.596 102.812C65.8058 105.082 66.0886 107.285 66.2301 109.482C66.3396 110.476 68.1132 110.321 68.0767 109.259C68.0219 106.569 67.967 103.878 67.8438 101.115C67.8118 99.9116 66.184 99.9299 66.0062 101.056C65.9014 102.114 65.6553 103.167 65.5504 104.225C66.1158 104.243 66.8226 104.266 67.388 104.284C67.1872 101.731 66.7722 99.2414 66.2158 96.7473C65.9011 95.5345 64.1867 96.0453 64.433 97.1851C64.7294 98.9634 64.6019 100.728 63.9818 102.406C64.6156 102.497 65.2494 102.588 65.8103 102.748C65.6277 99.629 65.3038 96.5057 64.907 93.4508C64.7929 92.5982 63.5938 92.4888 63.1469 93.1819C62.3172 94.7823 62.1258 96.3326 62.6365 98.047C63.0242 99.1914 64.5926 98.8175 64.4193 97.6092C64.0818 94.9099 63.8172 92.1423 63.4796 89.443C63.3701 88.449 61.8837 88.4719 61.6421 89.3838C61.0768 91.5588 60.7942 93.7428 60.8627 96.0089C60.8947 97.2127 62.7322 97.2719 62.7003 96.0681C62.805 92.8171 62.627 89.557 62.0249 86.2832C61.8425 85.3577 60.4974 85.3851 60.1874 86.2241C59.5628 88.0434 59.4353 89.808 59.6588 91.6546C60.2287 91.5314 60.8716 91.3399 61.4416 91.2168C60.8624 89.4294 60.4975 87.5783 60.4154 85.7362C60.3788 84.6738 58.9015 84.414 58.5869 85.3943C58.1219 86.6528 58.0126 87.852 58.1129 89.1286C58.7513 89.0785 59.3896 89.0283 59.9596 88.9051C59.6311 85.9232 59.0929 82.8637 58.5502 79.9456C57.9757 80.2101 57.4057 80.3332 56.8312 80.5977C58.0487 82.3348 58.2677 84.3228 57.707 86.3564C58.3408 86.4476 58.9746 86.5387 59.5354 86.6983C59.6128 84.2954 59.5488 81.8879 59.6262 79.485C59.6672 78.2129 57.8981 78.2266 57.7887 79.4258C57.5973 80.9761 57.3375 82.4534 57.146 84.0037C57.7114 84.0219 58.4182 84.0447 58.9836 84.0629C58.9287 81.3727 58.8738 78.6825 58.819 75.9924C58.7825 74.93 57.3735 74.7431 56.9906 75.6505C56.5301 76.7676 56.0651 78.0261 55.6046 79.1432C56.17 79.1614 56.8768 79.1842 57.4422 79.2024C57.0909 76.9272 56.9495 74.7295 57.0223 72.4679C56.4569 72.4497 55.7502 72.4269 55.1848 72.4087C55.2806 73.8267 54.9615 74.9484 54.1454 76.1249C54.7062 76.2844 55.2671 76.444 55.8963 76.6765C55.9099 74.0593 56.0647 71.4466 56.0783 68.8294C56.1102 67.8399 54.496 67.4342 54.2499 68.4875C53.7621 70.4527 53.2789 72.2766 52.7911 74.2418C53.4249 74.333 54.0587 74.4241 54.6195 74.5837C54.5692 71.7522 54.6603 68.9252 54.61 66.0937C54.578 64.89 52.8818 64.8353 52.7724 66.0345C52.4944 68.0772 52.2893 70.0516 51.9429 72.0213C52.5812 71.9711 53.2196 71.9209 53.7895 71.7978C53.4383 69.5226 53.2285 67.2519 53.3058 64.849C53.3377 63.8595 51.6506 63.5222 51.4774 64.5071C51.2951 65.7747 51.0444 66.9693 50.8621 68.2369C51.4959 68.3281 52.1297 68.4192 52.6905 68.5788C52.6083 66.7367 52.3848 64.8901 52.3026 63.048C52.1932 62.054 50.7204 61.6528 50.4742 62.7061C50.1506 63.9691 49.9682 65.2367 49.6446 66.4998C50.2784 66.5909 50.9121 66.6821 51.473 66.8416C51.4911 64.0831 51.6505 61.3291 51.6686 58.5705C51.705 57.4397 50.2232 57.3212 49.8402 58.2286C49.1472 59.975 48.8783 61.735 48.7462 63.6409C49.3116 63.6591 50.0183 63.6819 50.5837 63.7001C50.5972 61.0829 50.5424 58.3927 50.5559 55.7755C50.5832 54.9274 49.2564 54.3895 48.805 55.2239C47.8886 57.3168 47.4009 59.282 47.1867 61.539C47.0773 62.7382 48.9148 62.7974 49.0242 61.5982C49.2293 59.6239 49.2246 57.5721 49.0057 55.5841C48.9646 54.663 47.4097 54.613 47.1681 55.5249C46.9129 56.8609 46.5846 58.2653 46.3294 59.6012C46.9632 59.6924 47.597 59.7836 48.1578 59.9431C48.3765 57.5448 48.4494 55.2832 48.3854 52.8757C48.3489 51.8133 46.9399 51.6265 46.557 52.5338C45.8731 53.9975 45.5404 55.5432 45.4173 57.1665C45.9827 57.1847 46.6895 57.2074 47.2548 57.2256C47.4827 54.5446 47.6421 51.7906 47.87 49.1095C47.9748 48.0517 46.3561 47.7873 46.0416 48.7676C45.6358 50.3817 45.2301 51.9959 44.756 53.537C45.3898 53.6282 46.0236 53.7194 46.5844 53.8789C46.5022 52.0368 46.4885 50.2677 46.4063 48.4256C46.3743 47.2219 44.6782 47.1673 44.5688 48.3665C44.3865 49.634 44.2725 50.9746 44.0902 52.2421C44.7286 52.192 45.3669 52.1418 45.9369 52.0186C45.5538 50.7328 45.0248 49.5838 44.2086 48.5671C44.017 47.9242 42.631 49.2238 43.3788 50.1676Z" fill="#F2CF3D"/>
<path d="M69.9963 18.9055C71.3551 18.454 72.6454 17.9296 74.0042 17.4781C75.1486 17.0905 74.7108 15.3077 73.5663 15.6953C72.2076 16.1468 70.9173 16.6712 69.5585 17.1227C68.487 17.4419 68.8519 19.2931 69.9963 18.9055Z" fill="#F2CF3D"/>
<path d="M73.9958 33.1131C75.2132 32.6571 76.499 32.274 77.7164 31.818C78.8609 31.4304 78.423 29.6476 77.2786 30.0352C76.0612 30.4912 74.7754 30.8743 73.558 31.3303C72.4865 31.6496 72.8514 33.5008 73.9958 33.1131Z" fill="#F2CF3D"/>
<path d="M77.9997 42.7929C79.1487 42.2639 80.3707 41.6665 81.5881 41.2105C82.6641 40.7499 81.7977 39.0948 80.7217 39.5554C79.5727 40.0844 78.3507 40.6817 77.1333 41.1378C75.9843 41.6667 76.9191 43.3948 77.9997 42.7929Z" fill="#F2CF3D"/>
<path d="M82.4551 58.2178C83.4581 57.8256 84.5296 57.5064 85.5327 57.1142C86.0343 56.9181 86.3306 56.5032 86.2759 56.0062C86.1482 55.5776 85.5965 55.1353 85.1679 55.263C84.1648 55.6552 83.0933 55.9744 82.0902 56.3666C81.5886 56.5627 81.2923 56.9776 81.347 57.4746C81.4747 57.9032 82.0265 58.3455 82.4551 58.2178Z" fill="#F2CF3D"/>
<path d="M85.6015 68.153C87.17 67.779 88.8069 67.478 90.3024 67.1725C91.4423 66.9262 91.0774 65.075 89.8646 65.3897C88.2961 65.7636 86.6592 66.0647 85.1637 66.3702C84.0238 66.6165 84.4616 68.3993 85.6015 68.153Z" fill="#F2CF3D"/>
<path d="M93.4956 88.8532C94.7084 88.5385 95.8483 88.2923 97.0612 87.9776C98.2011 87.7313 97.8362 85.8801 96.6234 86.1948C95.4105 86.5095 94.2706 86.7558 93.0578 87.0704C91.9179 87.3167 92.2828 89.1679 93.4956 88.8532Z" fill="#F2CF3D"/>
<path d="M96.7519 101.976C97.9738 101.378 99.2596 100.995 100.609 100.826C101.818 100.653 101.38 98.8703 100.171 99.0436C98.6804 99.2078 97.2487 99.7277 95.8854 100.321C94.8094 100.781 95.6758 102.436 96.7519 101.976Z" fill="#F2CF3D"/>
<path d="M104.477 121.326C105.844 120.592 107.345 120.145 108.836 119.981C110.044 119.808 109.606 118.025 108.398 118.198C106.692 118.426 105.051 118.869 103.537 119.739C102.53 120.273 103.396 121.928 104.477 121.326Z" fill="#F2CF3D"/>
<path d="M117.648 101.163C119.117 106.092 120.946 110.82 122.988 115.484C123.385 116.346 124.812 115.968 124.771 115.047C124.443 109.871 123.827 104.829 122.928 99.7765C122.354 100.041 121.784 100.164 121.209 100.429C123.376 105.663 124.757 111.084 125.998 116.501C126.313 117.714 127.954 117.271 127.781 116.063C126.8 109.169 125.537 102.266 123.986 95.495C123.74 94.3551 121.889 94.72 122.203 95.9328C123.416 102.198 125.2 108.339 127.553 114.358C127.949 115.22 129.376 114.841 129.335 113.92C129.034 107.897 128.309 101.86 127.584 95.8231C127.014 95.9462 126.371 96.1378 125.801 96.2609C127.251 101.755 128.701 107.249 130.151 112.744C130.402 113.742 132.03 113.724 131.998 112.52C131.847 106.219 130.347 100.086 128.842 94.095C128.527 92.8821 126.744 93.3199 127.059 94.5328C128.491 100.592 130.137 106.588 131.857 112.516C132.112 113.373 133.38 113.555 133.694 112.575C134.346 109.907 133.525 106.839 133.188 104.14C132.736 100.588 132.143 97.0312 131.692 93.4793C131.122 93.6024 130.479 93.7939 129.909 93.9171C131.628 99.8445 133.42 105.703 135.071 111.558C135.459 112.702 137.027 112.328 136.854 111.12C135.673 103.866 134.491 96.6116 133.31 89.3573C132.736 89.6218 132.166 89.7449 131.591 90.0094C133.465 93.3241 134.551 96.9672 135.563 100.679C136.005 102.32 136.516 104.034 137.032 105.608C137.483 106.966 137.866 108.252 139.043 109.068C139.599 109.369 140.529 109.045 140.483 108.266C139.913 101.809 139.338 95.4942 138.768 89.0378C138.13 89.088 137.491 89.1382 136.921 89.2613C137.865 92.8999 138.809 96.5384 139.685 100.104C140.123 101.887 140.634 103.601 141.071 105.384C141.45 106.811 141.769 107.883 142.946 108.699C143.57 109.072 144.364 108.603 144.386 107.896C144.418 106.907 144.309 105.913 144.341 104.923C144.309 103.719 142.471 103.66 142.503 104.864C142.471 105.853 142.581 106.847 142.549 107.837C142.982 107.568 143.484 107.372 143.99 107.034C142.882 106.291 142.553 103.309 142.238 102.096C141.864 100.528 141.486 99.1007 141.112 97.5323C140.355 94.678 139.602 91.6824 138.845 88.8281C138.595 87.8295 136.894 87.9163 136.999 89.0516C137.569 95.508 138.144 101.823 138.714 108.279C139.147 108.01 139.649 107.814 140.155 107.477C138.837 106.656 138.372 103.528 137.993 102.101C137.547 100.601 137.168 99.1739 136.79 97.7468C135.896 94.7466 134.856 91.8832 133.388 89.1475C132.854 88.1399 131.491 88.7327 131.669 89.7997C132.85 97.0539 134.031 104.308 135.213 111.562C135.783 111.439 136.425 111.248 136.995 111.125C135.276 105.197 133.484 99.3383 131.833 93.4838C131.445 92.3394 129.877 92.7133 130.05 93.9216C130.447 96.9765 130.912 100.104 131.309 103.159C131.715 105.932 132.737 109.36 132.012 112.096C132.577 112.114 133.284 112.137 133.849 112.155C132.13 106.228 130.484 100.232 129.052 94.1725C128.482 94.2956 127.839 94.4871 127.269 94.6103C128.778 100.46 130.283 106.451 130.439 112.611C131.077 112.561 131.715 112.511 132.285 112.388C130.835 106.894 129.385 101.399 127.935 95.9052C127.62 94.6923 125.979 95.1347 126.152 96.343C126.882 102.239 127.543 108.061 127.849 113.943C128.419 113.82 128.989 113.697 129.632 113.505C127.343 107.701 125.696 101.705 124.478 95.5816C123.909 95.7048 123.266 95.8963 122.696 96.0194C124.246 102.79 125.51 109.694 126.49 116.588C127.06 116.464 127.703 116.273 128.273 116.15C126.896 110.587 125.45 104.952 123.289 99.5759C122.896 98.5728 121.319 99.2295 121.57 100.228C122.473 105.139 123.093 110.04 123.358 115.001C123.928 114.878 124.498 114.755 125.141 114.563C123.093 110.04 121.401 105.458 119.997 100.743C119.185 99.5852 117.402 100.023 117.648 101.163Z" fill="#F2CF3D"/>
<path d="M73.6455 134.058C62.3818 105.962 51.1865 77.9397 39.9228 49.844C39.6858 50.6146 39.4487 51.3852 39.2116 52.1558C43.4747 49.3924 48.203 47.5638 53.1866 46.5923C52.4935 46.1455 51.8688 45.7717 51.1757 45.3249C60.2005 70.4478 69.2207 95.7121 78.1725 120.904C78.8246 122.622 79.4038 124.41 80.0559 126.129C80.5712 127.702 81.506 129.43 81.7386 130.994C82.1035 132.845 79.6276 132.836 78.1959 133.356C76.4086 133.935 74.6258 134.373 72.8385 134.952C70.7685 135.522 71.5118 138.8 73.5819 138.23C76.582 137.336 79.9972 136.739 82.8696 135.416C85.3819 134.295 85.5277 131.965 84.8254 129.607C82.5042 122.599 79.8958 115.724 77.4287 108.853C72.5628 95.1831 67.6286 81.4406 62.7628 67.7712C60.0403 60.0428 57.3179 52.3144 54.454 44.5815C54.1302 43.6513 53.3688 43.1316 52.4432 43.314C47.1769 44.2764 42.1614 46.2372 37.6111 49.1328C36.7448 49.6709 36.5761 50.5144 36.8999 51.4446C48.1636 79.5403 59.3589 107.563 70.6226 135.659C71.4799 137.597 74.4298 136.064 73.6455 134.058Z" fill="#00929D"/>
<path d="M71.6029 138.167C75.994 142.411 79.8745 147.135 83.1759 152.264C83.9192 153.349 86.0349 153.559 86.2992 151.94C87.5208 144.763 87.68 137.623 86.8498 130.451C86.6354 128.322 83.3571 129.065 83.5715 131.194C84.3515 137.728 84.206 144.444 83.0755 150.988C84.0695 150.878 85.1319 150.842 86.1989 150.664C82.6922 145.315 78.6795 140.305 74.0832 135.841C72.5739 134.377 70.0936 136.703 71.6029 138.167Z" fill="#00929D"/>
<path d="M94.0723 130.259C84.7782 100.317 75.124 70.5747 64.8998 40.9561C62.0542 32.6577 59.1402 24.2864 56.1532 15.9835C55.9207 16.6128 55.5469 17.2375 55.3143 17.8667C59.8967 16.1749 64.6203 14.4876 69.2665 13.01C70.0507 12.823 71.2043 12.1527 71.9567 12.9552C72.709 13.7576 72.8642 15.5313 73.1879 16.4614C74.0954 19.0376 74.93 21.6821 75.8375 24.2582C79.0707 33.701 82.304 43.1438 85.3959 52.582C91.9262 71.6819 98.3836 90.8501 104.914 109.95C105.817 112.667 106.72 115.385 107.623 118.102C108.006 119.388 108.53 120.679 108.913 121.964C109.109 122.466 109.579 123.259 109.561 123.825C109.538 124.531 109.898 124.331 108.964 124.796C106.593 125.922 103.748 126.397 101.249 127.094C98.4631 127.924 95.6772 128.754 92.8184 129.653C90.7483 130.223 91.4917 133.501 93.5617 132.931C98.9192 131.335 104.345 129.812 109.639 128.001C111.426 127.422 112.944 126.41 113.008 124.431C113.035 123.583 112.639 122.721 112.383 121.864C111.8 120.218 111.216 118.572 110.705 116.857C107.084 106.27 103.536 95.6146 99.9154 85.0274C92.7511 63.6432 85.5184 42.1861 78.2174 20.656C77.2461 17.8656 76.4161 15.0797 75.3718 12.3577C74.5236 10.1372 72.8638 8.95177 70.4472 9.29842C67.675 9.70437 64.8755 10.9584 62.158 11.8614C59.3676 12.8327 56.5771 13.804 53.7822 14.9167C53.1393 15.1083 52.7518 16.157 52.9433 16.7999C63.3863 46.2134 73.3962 75.8959 82.9045 105.775C85.6043 114.21 88.2356 122.572 90.794 131.002C91.5054 133.077 94.7837 132.334 94.0723 130.259Z" fill="#00929D"/>
<path d="M124.425 119.21C121.903 111.841 119.454 104.405 117.293 96.836C116.212 93.0515 115.199 89.3401 114.191 85.4872C113.877 84.2744 112.559 81.2606 113.366 80.3669C113.735 79.8835 114.811 79.4229 115.386 79.1585C116.393 78.6249 117.401 78.0914 118.409 77.5579C121.787 75.898 125.371 74.457 129.014 73.3716C129.657 73.1801 130.592 72.7149 131.298 72.7377C132.571 72.7787 132.666 74.1967 133.063 75.0584C133.843 77.206 134.627 79.2122 135.407 81.3597C137.997 88.8009 140.446 96.2374 142.676 103.879C142.932 104.736 143.255 105.667 143.506 106.665C143.57 106.879 143.83 107.595 143.752 107.805C143.52 108.434 142.59 108.758 142.015 109.023C140.078 109.88 138.003 110.591 135.928 111.303C131.779 112.725 127.566 113.934 123.362 114.86C121.224 115.357 121.967 118.635 124.106 118.138C128.597 117.08 132.951 115.876 137.315 114.389C139.389 113.678 141.537 112.898 143.475 112.041C145.125 111.316 146.57 110.372 146.985 108.475C147.327 106.647 146.333 104.563 145.822 102.849C145.12 100.491 144.349 98.0611 143.647 95.7038C142.238 91.1306 140.756 86.6258 139.132 82.1164C138.421 80.0418 137.705 78.1086 136.994 76.034C136.278 74.1008 135.799 71.3969 134.212 70.1431C132.766 68.8939 130.979 69.473 129.338 69.9154C127.268 70.4855 125.193 71.1969 123.118 71.9083C119.179 73.4086 114.451 75.2372 111.109 77.9595C109.581 79.2545 109.609 80.5996 110.115 82.4553C110.676 84.8081 111.241 87.0194 111.875 89.3038C114.657 99.581 117.795 109.799 121.293 119.816C121.858 122.028 125.136 121.284 124.425 119.21Z" fill="#00929D"/>
<path d="M118.465 99.9865C124.825 95.805 131.655 92.4169 138.814 89.8176C140.82 89.0332 140.076 85.7549 138.07 86.5392C130.624 89.2708 123.58 92.7228 116.932 97.0365C115.058 98.1082 116.659 101.131 118.465 99.9865Z" fill="#00929D"/>
<path d="M38.9652 51.0159C38.6369 50.2271 38.4499 49.4428 38.1216 48.654C37.9893 48.3668 37.4558 47.3592 37.6062 47.081C37.7567 46.8029 39.5395 46.3651 39.9681 46.2374C40.8253 45.982 41.5411 45.722 42.3983 45.4667C45.4714 44.5044 48.613 43.6151 51.6861 42.6529C51.3395 42.4295 50.9884 42.3474 50.6419 42.124C50.9018 42.8399 51.0934 43.4828 51.4263 44.1302C51.8139 45.2747 53.469 44.4083 53.0814 43.2638C52.8214 42.548 52.6299 41.9051 52.297 41.2576C52.0964 40.8974 51.6085 40.6695 51.2528 40.7288C46.9669 42.0057 42.7538 43.2142 38.5363 44.5641C37.3918 44.9517 35.9692 45.1889 35.7824 46.5978C35.5955 48.0067 36.7355 49.9536 37.187 51.3123C37.5017 52.5252 39.4258 52.0919 38.9652 51.0159Z" fill="#00929D"/>
<path d="M38.112 46.7436C36.1147 42.8589 37.1951 37.8706 41.3579 36.0238C45.4478 34.2453 50.2401 37.0173 50.2312 41.6863C50.2632 42.8901 52.1007 42.9493 52.0687 41.7455C52.1779 36.16 46.5739 32.2299 41.4216 34.0449C35.7724 35.9146 34.0036 42.5079 36.5299 47.5416C36.9905 48.6176 38.6455 47.7512 38.112 46.7436Z" fill="#00929D"/>
<path d="M42.0428 49.9123C53.2245 78.3591 64.4061 106.806 75.5148 135.321C75.9754 136.397 77.6305 135.531 77.1699 134.455C65.9883 106.008 54.8796 77.4927 43.7663 49.1188C43.3103 47.9015 41.6552 48.7679 42.0428 49.9123Z" fill="#00929D"/>
<path d="M46.6204 48.3618C53.3237 62.0905 58.7367 76.3435 63.9354 90.6604C69.2664 105.265 74.456 119.864 79.7139 134.537C80.1016 135.681 81.8844 135.243 81.4967 134.099C76.1749 119.212 70.8531 104.325 65.4583 89.5068C60.328 75.2628 54.842 61.0782 48.2071 47.4225C47.7465 46.3464 46.1598 47.2858 46.6204 48.3618Z" fill="#00929D"/>
<path d="M79.0716 143.501C81.2966 142.511 83.3164 141.303 85.2724 139.88C86.2846 139.205 85.4182 137.55 84.406 138.225C82.6005 139.37 80.8633 140.587 79.0578 141.732C78.6246 142.001 78.2462 142.767 78.798 143.209C79.833 144.021 80.6538 144.896 81.2557 145.977C81.73 146.629 83.0751 146.601 83.0385 145.539C83.0065 144.335 82.7557 143.337 82.2222 142.329C81.6477 142.593 81.1416 142.931 80.5671 143.195C81.242 144.208 81.8439 145.288 82.2315 146.433C82.806 146.168 83.376 146.045 83.9505 145.78C83.4215 144.631 83.1023 143.56 83.0748 142.215C82.5049 142.338 81.9349 142.461 81.292 142.653C81.6842 143.656 82.0764 144.659 82.4002 145.589C82.724 146.519 84.224 146.072 84.183 145.151C84.1692 143.382 84.2238 141.686 84.4243 139.853C83.8544 139.976 83.2845 140.099 82.6416 140.291C83.0976 141.508 83.3439 142.648 83.3029 143.92C83.3349 145.124 85.1724 145.183 85.1404 143.979C85.1221 142.352 84.812 140.997 84.2237 139.493C83.8315 138.49 82.6096 139.087 82.4409 139.931C82.172 141.691 82.0444 143.455 82.1995 145.229C82.7695 145.106 83.3394 144.983 83.9823 144.791C83.5901 143.788 83.198 142.785 82.8742 141.855C82.5504 140.925 81.0503 141.371 81.0914 142.292C81.1827 143.852 81.5612 145.279 82.2224 146.715C82.6875 147.65 84.2606 147.135 83.9413 146.063C83.4899 144.704 82.9609 143.555 82.1492 142.397C81.4744 141.385 79.9652 142.115 80.4941 143.264C80.8225 144.052 81.014 144.695 80.9867 145.543C81.5566 145.42 82.1266 145.297 82.7695 145.106C81.9578 143.948 81.0732 142.858 79.9697 141.973C79.8831 142.466 79.7965 142.958 79.7099 143.451C81.5154 142.306 83.2526 141.089 85.0581 139.944C84.7936 139.37 84.4562 138.863 84.1917 138.289C82.2357 139.712 80.1475 140.847 77.9908 141.91C77.1245 142.448 78.0639 144.034 79.0716 143.501Z" fill="#00929D"/>
<path d="M69.5723 25.4713C71.9159 25.1931 74.1319 24.4862 76.2885 23.4237C77.3645 22.9632 76.4981 21.3081 75.4221 21.7686C73.4114 22.6944 71.3413 23.2644 69.139 23.5472C67.9992 23.7935 68.364 25.6447 69.5723 25.4713Z" fill="#00929D"/>
<path d="M79.0895 48.4879C81.2918 48.205 83.3664 47.4936 85.3771 46.5679C86.4531 46.1074 85.5867 44.4523 84.5107 44.9128C82.6413 45.8431 80.7126 46.4177 78.6517 46.7051C77.4434 46.8784 77.8812 48.6612 79.0895 48.4879Z" fill="#00929D"/>
<path d="M87.5037 79.3924C89.6467 78.7539 91.5845 77.8966 93.5314 76.7566C94.612 76.1547 93.7455 74.4996 92.665 75.1015C90.864 76.1048 89.0675 76.9666 87.1388 77.5412C85.926 77.8559 86.3593 79.78 87.5037 79.3924Z" fill="#00929D"/>
<path d="M100.195 113.689C102.634 112.636 105.215 111.587 107.654 110.533C108.73 110.073 107.864 108.418 106.788 108.878C104.348 109.932 101.768 110.981 99.3283 112.034C98.1839 112.422 99.0503 114.077 100.195 113.689Z" fill="#00929D"/>
</g>
<defs>
<clipPath id="clip0_118_379">
<rect width="93.3" height="132.9" fill="white" transform="translate(0.824707 64.4323) rotate(-43.1554)"/>
</clipPath>
</defs>
</svg>
