<svg width="65" height="65" viewBox="0 0 65 65" fill="none" xmlns="http://www.w3.org/2000/svg">
<path d="M37.0409 62.8786C37.2398 62.8461 37.4242 62.7543 37.57 62.6153C37.7159 62.4762 37.8163 62.2963 37.8581 62.0991C37.8999 61.902 37.8812 61.6968 37.8044 61.5105C37.7276 61.3242 37.5963 61.1654 37.4277 61.055C37.2591 60.9446 37.0611 60.8877 36.8596 60.8918C36.6582 60.8959 36.4626 60.9607 36.2986 61.0779C36.1346 61.195 36.0099 61.359 35.9407 61.5482C35.8715 61.7375 35.8611 61.9433 35.9109 62.1386C35.9726 62.3808 36.1229 62.5912 36.332 62.7282C36.5412 62.8652 36.7941 62.9188 37.0409 62.8786Z" fill="white"/>
<path d="M41.4506 61.4483C41.6382 61.3742 41.799 61.2452 41.9119 61.0782C42.0249 60.9111 42.0847 60.7138 42.0835 60.5121C42.0823 60.3105 42.0201 60.1139 41.9052 59.9482C41.7903 59.7825 41.6279 59.6554 41.4395 59.5836C41.251 59.5118 41.0453 59.4987 40.8492 59.5459C40.6532 59.5931 40.476 59.6986 40.3409 59.8483C40.2059 59.998 40.1192 60.1851 40.0924 60.385C40.0656 60.5849 40.0998 60.7882 40.1906 60.9683C40.2414 61.0828 40.3144 61.1862 40.4054 61.2724C40.4964 61.3586 40.6035 61.4259 40.7206 61.4705C40.8378 61.5152 40.9626 61.5362 41.0878 61.5323C41.2131 61.5285 41.3364 61.4999 41.4506 61.4483Z" fill="white"/>
<path d="M20.6007 24.9781C20.7365 24.8057 20.8118 24.5933 20.815 24.3738C20.8182 24.1543 20.749 23.9398 20.6182 23.7635C20.4874 23.5872 20.3022 23.4589 20.0912 23.3982C19.8802 23.3376 19.6551 23.3481 19.4507 23.4281C19.3215 23.5988 19.2505 23.8065 19.2481 24.0206C19.2457 24.2346 19.3121 24.4438 19.4375 24.6173C19.5629 24.7908 19.7406 24.9195 19.9446 24.9845C20.1486 25.0494 20.368 25.0472 20.5707 24.9781H20.6007Z" fill="white"/>
<path d="M16.0505 26.5184C15.916 26.6644 15.8281 26.8472 15.7978 27.0434C15.7676 27.2396 15.7964 27.4404 15.8806 27.6202C15.9649 27.7999 16.1007 27.9506 16.2709 28.0529C16.441 28.1551 16.6378 28.2045 16.8361 28.1946C17.0344 28.1846 17.2252 28.1159 17.3843 27.9972C17.5434 27.8784 17.6635 27.715 17.7294 27.5277C17.7953 27.3405 17.804 27.1378 17.7543 26.9456C17.7047 26.7534 17.5989 26.5803 17.4505 26.4484C17.2546 26.2742 16.998 26.184 16.7362 26.197C16.4743 26.2101 16.2281 26.3255 16.0505 26.5184Z" fill="white"/>
<path d="M13.6806 31.5586C13.8506 31.6663 14.0491 31.7202 14.2502 31.7133C14.4514 31.7063 14.6457 31.6389 14.8079 31.5198C14.97 31.4007 15.0925 31.2354 15.1592 31.0455C15.226 30.8557 15.2339 30.6501 15.1819 30.4557C15.13 30.2613 15.0206 30.0871 14.8681 29.9559C14.7156 29.8246 14.527 29.7424 14.327 29.7201C14.127 29.6977 13.925 29.7362 13.7472 29.8305C13.5694 29.9248 13.4243 30.0705 13.3306 30.2486C13.2138 30.471 13.1849 30.7293 13.2497 30.972C13.3146 31.2147 13.4684 31.4241 13.6806 31.5586Z" fill="white"/>
<path d="M12.6605 33.8483C12.4191 33.7829 12.1621 33.8103 11.94 33.9251C11.7178 34.0398 11.5468 34.2336 11.4605 34.4683C11.4597 34.6799 11.5261 34.8863 11.6501 35.0578C11.7741 35.2293 11.9493 35.357 12.1505 35.4226C12.3517 35.4882 12.5686 35.4883 12.7698 35.4228C12.9711 35.3573 13.1464 35.2297 13.2705 35.0583C13.3392 34.8168 13.3147 34.5584 13.2016 34.3342C13.0886 34.11 12.8955 33.9366 12.6605 33.8483Z" fill="white"/>
<path d="M10.5006 38.9785C10.4853 39.1036 10.4954 39.2305 10.5302 39.3516C10.565 39.4727 10.6237 39.5857 10.703 39.6836C10.7823 39.7816 10.8805 39.8626 10.9918 39.9218C11.103 39.9811 11.225 40.0173 11.3506 40.0285C11.5917 40.0312 11.8257 39.9467 12.0095 39.7905C12.1933 39.6343 12.3144 39.4169 12.3506 39.1785C12.3658 38.9289 12.287 38.6826 12.1297 38.4882C11.9723 38.2939 11.7479 38.1655 11.5006 38.1285C11.2594 38.1258 11.0254 38.2103 10.8416 38.3665C10.6578 38.5227 10.5367 38.74 10.5006 38.9785Z" fill="white"/>
<path d="M52.5005 39.1783C52.5376 39.4256 52.6659 39.6501 52.8603 39.8074C53.0547 39.9648 53.3009 40.0436 53.5505 40.0283C53.6804 40.0237 53.8079 39.9922 53.925 39.9358C54.0421 39.8794 54.1462 39.7993 54.2308 39.7007C54.3153 39.602 54.3785 39.4869 54.4164 39.3625C54.4542 39.2382 54.4658 39.1074 54.4505 38.9783C54.4135 38.731 54.2851 38.5066 54.0908 38.3492C53.8964 38.1919 53.6501 38.1131 53.4005 38.1283C53.1441 38.1537 52.9074 38.2771 52.7398 38.4727C52.5721 38.6683 52.4864 38.9211 52.5005 39.1783Z" fill="white"/>
<path d="M52.241 33.8483C52.0465 33.901 51.8724 34.0112 51.7416 34.1645C51.6108 34.3179 51.5294 34.5071 51.5081 34.7075C51.4867 34.9079 51.5264 35.1101 51.6219 35.2875C51.7175 35.465 51.8644 35.6094 52.0434 35.7019C52.2225 35.7944 52.4253 35.8307 52.6253 35.8059C52.8253 35.7812 53.0131 35.6965 53.1642 35.5632C53.3153 35.4298 53.4226 35.2539 53.472 35.0585C53.5213 34.8631 53.5105 34.6574 53.441 34.4683C53.3547 34.2336 53.1836 34.0398 52.9615 33.9251C52.7393 33.8103 52.4823 33.7829 52.241 33.8483Z" fill="white"/>
<path d="M50.2605 29.898C50.0811 29.9904 49.9339 30.1349 49.8381 30.3125C49.7423 30.4901 49.7025 30.6925 49.7239 30.8931C49.7453 31.0938 49.8269 31.2833 49.958 31.4367C50.089 31.5901 50.2634 31.7003 50.4583 31.7527C50.6531 31.8052 50.8593 31.7975 51.0497 31.7306C51.24 31.6637 51.4057 31.5408 51.525 31.378C51.6442 31.2153 51.7114 31.0202 51.7178 30.8185C51.7241 30.6169 51.6693 30.418 51.5605 30.248C51.4263 30.0383 51.2187 29.8862 50.9782 29.8215C50.7378 29.7568 50.4819 29.7841 50.2605 29.898Z" fill="white"/>
<path d="M47.5009 26.4487C47.3455 26.577 47.2326 26.7493 47.1768 26.9428C47.121 27.1364 47.125 27.3423 47.1882 27.5336C47.2515 27.7249 47.371 27.8926 47.5312 28.0148C47.6914 28.137 47.8847 28.208 48.0859 28.2184C48.2871 28.2288 48.4868 28.1782 48.6587 28.0733C48.8307 27.9683 48.9669 27.8139 49.0496 27.6301C49.1323 27.4464 49.1575 27.242 49.1221 27.0437C49.0866 26.8454 48.9921 26.6624 48.8509 26.5187C48.6754 26.3402 48.4394 26.234 48.1895 26.2211C47.9395 26.2081 47.6938 26.2893 47.5009 26.4487Z" fill="white"/>
<path d="M45.6308 24.7585C45.758 24.6655 45.8614 24.5438 45.9326 24.4033C46.0039 24.2628 46.0409 24.1075 46.0407 23.9499C46.0405 23.7924 46.0031 23.6372 45.9315 23.4968C45.86 23.3565 45.7563 23.2351 45.6289 23.1424C45.5015 23.0498 45.354 22.9885 45.1984 22.9637C45.0429 22.9388 44.8837 22.9511 44.7337 22.9994C44.5838 23.0478 44.4475 23.1309 44.3357 23.2419C44.224 23.353 44.1401 23.4888 44.0908 23.6385C43.951 23.8473 43.895 24.1012 43.9339 24.3495C43.9729 24.5978 44.1038 24.8224 44.3008 24.9785C44.51 25.1143 44.7624 25.167 45.0085 25.1263C45.2545 25.0856 45.4765 24.9544 45.6308 24.7585Z" fill="white"/>
<path d="M24.7308 60.9683C24.8216 60.7882 24.8558 60.5849 24.829 60.385C24.8022 60.1851 24.7155 59.998 24.5805 59.8483C24.4454 59.6986 24.2682 59.5931 24.0722 59.5459C23.8761 59.4987 23.6703 59.5118 23.4819 59.5836C23.2934 59.6554 23.1311 59.7825 23.0162 59.9482C22.9012 60.1139 22.8391 60.3105 22.8379 60.5121C22.8367 60.7138 22.8965 60.9111 23.0095 61.0782C23.1224 61.2452 23.2832 61.3742 23.4708 61.4483C23.585 61.4999 23.7083 61.5285 23.8336 61.5323C23.9588 61.5362 24.0836 61.5152 24.2007 61.4705C24.3179 61.4259 24.425 61.3586 24.516 61.2724C24.6069 61.1862 24.68 61.0828 24.7308 60.9683Z" fill="white"/>
<path d="M28.9905 62.1386C29.0403 61.9433 29.0299 61.7375 28.9607 61.5482C28.8915 61.359 28.7667 61.195 28.6027 61.0779C28.4388 60.9607 28.2432 60.8959 28.0417 60.8918C27.8402 60.8877 27.6422 60.9446 27.4736 61.055C27.305 61.1654 27.1737 61.3242 27.0969 61.5105C27.0201 61.6968 27.0014 61.902 27.0433 62.0991C27.0851 62.2963 27.1855 62.4762 27.3313 62.6153C27.4772 62.7543 27.6616 62.8461 27.8605 62.8786C28.1073 62.9188 28.3602 62.8652 28.5693 62.7282C28.7785 62.5912 28.9288 62.3808 28.9905 62.1386Z" fill="white"/>
<path d="M33.4507 62.4082C33.4507 62.2104 33.392 62.0171 33.2822 61.8526C33.1723 61.6882 33.0161 61.56 32.8334 61.4843C32.6506 61.4086 32.4496 61.3888 32.2556 61.4274C32.0616 61.466 31.8834 61.5612 31.7436 61.7011C31.6037 61.8409 31.5085 62.0191 31.4699 62.2131C31.4313 62.4071 31.4511 62.6082 31.5268 62.7909C31.6025 62.9736 31.7307 63.1298 31.8951 63.2397C32.0596 63.3496 32.2529 63.4082 32.4507 63.4082C32.7159 63.4082 32.9703 63.3028 33.1578 63.1153C33.3453 62.9278 33.4507 62.6734 33.4507 62.4082Z" fill="white"/>
<path d="M17.5609 39.2284C17.6088 39.3469 17.6806 39.4542 17.7718 39.5436C17.863 39.6331 17.9716 39.7028 18.0909 39.7484L20.2109 40.6084C20.1659 41.2076 20.1659 41.8093 20.2109 42.4084L18.1209 43.3284C17.886 43.4318 17.6998 43.6216 17.6009 43.8584C17.5036 44.099 17.5036 44.3679 17.6009 44.6084L19.8509 49.9184C19.9581 50.1489 20.1491 50.33 20.385 50.4247C20.6209 50.5194 20.8841 50.5208 21.1209 50.4284L23.2209 49.5384C23.6147 49.9906 24.0426 50.4119 24.5009 50.7984L23.6509 52.9084C23.5563 53.146 23.5563 53.4108 23.6509 53.6484C23.6988 53.7669 23.7706 53.8741 23.8618 53.9636C23.953 54.0531 24.0616 54.1228 24.1809 54.1684L29.5409 56.3284C29.6596 56.3718 29.7846 56.3954 29.9109 56.3984C30.1021 56.3925 30.2875 56.3319 30.4453 56.2238C30.603 56.1156 30.7264 55.9646 30.8009 55.7884L31.6609 53.6684C32.2565 53.7185 32.8553 53.7185 33.4509 53.6684L34.3409 55.7684C34.4482 56.0013 34.6409 56.1841 34.8791 56.2791C35.1173 56.374 35.3829 56.3737 35.6209 56.2784L40.9309 54.0284C41.173 53.923 41.3635 53.726 41.4609 53.4806C41.5584 53.2352 41.5548 52.9612 41.4509 52.7184L40.5609 50.6184C41.0076 50.2185 41.4253 49.7875 41.8109 49.3284L43.9209 50.1784C44.1585 50.2731 44.4233 50.2731 44.6609 50.1784C44.7794 50.1305 44.8867 50.0588 44.9761 49.9676C45.0656 49.8764 45.1353 49.7677 45.1809 49.6484L47.3409 44.3284C47.4356 44.0908 47.4356 43.826 47.3409 43.5884C47.293 43.47 47.2213 43.3627 47.1301 43.2732C47.0389 43.1838 46.9303 43.1141 46.8109 43.0684L44.6909 42.2084C44.741 41.6128 44.741 41.014 44.6909 40.4184L46.7909 39.5284C47.0238 39.4212 47.2066 39.2285 47.3016 38.9903C47.3965 38.7521 47.3962 38.4865 47.3009 38.2484L45.0509 32.9384C44.9437 32.7079 44.7528 32.5269 44.5168 32.4321C44.2809 32.3374 44.0178 32.3361 43.7809 32.4284L41.6809 33.3184C41.2846 32.8687 40.8569 32.4476 40.4009 32.0584L41.2509 29.9484C41.339 29.7104 41.3332 29.4477 41.2348 29.2137C41.1364 28.9798 40.9527 28.792 40.7209 28.6884L35.3709 26.5284C35.1329 26.4404 34.8702 26.4461 34.6362 26.5445C34.4023 26.643 34.2145 26.8267 34.1109 27.0584L33.2509 29.1784C32.652 29.1284 32.0499 29.1284 31.4509 29.1784L30.5709 27.0784C30.4675 26.8435 30.2778 26.6573 30.0409 26.5584C29.8004 26.4611 29.5315 26.4611 29.2909 26.5584L23.9809 28.8084C23.7468 28.912 23.5613 29.1015 23.4627 29.3378C23.3641 29.574 23.3599 29.8391 23.4509 30.0784L24.3409 32.1784C23.8912 32.5748 23.4701 33.0025 23.0809 33.4584L20.9709 32.6084C20.7329 32.5204 20.4702 32.5261 20.2362 32.6245C20.0023 32.723 19.8145 32.9067 19.7109 33.1384L17.5509 38.4884C17.4595 38.7273 17.4631 38.9921 17.5609 39.2284ZM21.1509 34.7684L23.0309 35.5284C23.2303 35.6034 23.4483 35.6129 23.6534 35.5553C23.8584 35.4977 24.0398 35.3762 24.1709 35.2084C24.7438 34.4541 25.4166 33.7813 26.1709 33.2084C26.3352 33.0747 26.4528 32.8922 26.5068 32.6873C26.5607 32.4824 26.5481 32.2657 26.4709 32.0684L25.6709 30.1984L29.2009 28.6984L29.9909 30.5684C30.0822 30.7675 30.2364 30.9311 30.4297 31.0341C30.623 31.137 30.8448 31.1737 31.0609 31.1384C31.9703 31.0183 32.8915 31.0183 33.8009 31.1384C34.0094 31.1556 34.2181 31.1069 34.3974 30.9993C34.5768 30.8917 34.718 30.7305 34.8009 30.5384L35.5609 28.6584L39.1109 30.0884L38.3509 31.9684C38.2759 32.1678 38.2665 32.3858 38.3241 32.5909C38.3816 32.7959 38.5031 32.9773 38.6709 33.1084C39.4252 33.6813 40.0981 34.3541 40.6709 35.1084C40.8047 35.2727 40.9871 35.3903 41.192 35.4443C41.3969 35.4982 41.6136 35.4856 41.8109 35.4084L43.6809 34.6084L45.1809 38.1384L43.3109 38.9284C43.1119 39.0197 42.9483 39.1739 42.8453 39.3672C42.7423 39.5605 42.7057 39.7823 42.7409 39.9984C42.8611 40.9078 42.8611 41.829 42.7409 42.7384C42.7238 42.9469 42.7724 43.1556 42.8801 43.3349C42.9877 43.5143 43.1489 43.6555 43.3409 43.7384L45.2209 44.4984L43.7509 48.0284L41.8709 47.2684C41.6716 47.1934 41.4535 47.184 41.2485 47.2416C41.0434 47.2991 40.8621 47.4206 40.7309 47.5884C40.1581 48.3427 39.4852 49.0156 38.7309 49.5884C38.5666 49.7222 38.449 49.9046 38.3951 50.1095C38.3412 50.3144 38.3537 50.5311 38.4309 50.7284L39.2309 52.5984L35.7009 54.0984L34.9109 52.2284C34.8196 52.0294 34.6655 51.8658 34.4722 51.7628C34.2789 51.6598 34.0571 51.6232 33.8409 51.6584C32.9315 51.7786 32.0103 51.7786 31.1009 51.6584C30.8924 51.6413 30.6838 51.6899 30.5044 51.7976C30.325 51.9052 30.1839 52.0664 30.1009 52.2584L29.3409 54.1384L25.7909 52.7084L26.5509 50.8284C26.6259 50.6291 26.6353 50.411 26.5778 50.206C26.5202 50.0009 26.3987 49.8196 26.2309 49.6884C25.4766 49.1156 24.8038 48.4427 24.2309 47.6884C24.0972 47.5241 23.9147 47.4065 23.7098 47.3526C23.5049 47.2987 23.2882 47.3112 23.0909 47.3884L21.2209 48.1884L19.7209 44.6584L21.5909 43.8684C21.7792 43.7823 21.9362 43.6399 22.0401 43.4607C22.144 43.2816 22.1897 43.0747 22.1709 42.8684C22.1709 42.8684 22.1709 42.8184 22.1709 42.7884C22.0557 41.8888 22.0557 40.9781 22.1709 40.0784C22.1881 39.8699 22.1394 39.6613 22.0318 39.4819C21.9242 39.3025 21.763 39.1614 21.5709 39.0784L19.7209 38.3284L21.1509 34.7684Z" fill="white"/>
<path d="M32.4506 49.2084C33.9953 49.2084 35.5053 48.7503 36.7896 47.8922C38.074 47.034 39.075 45.8142 39.6661 44.3871C40.2572 42.96 40.4119 41.3897 40.1106 39.8747C39.8092 38.3597 39.0654 36.9681 37.9731 35.8759C36.8809 34.7836 35.4893 34.0398 33.9743 33.7385C32.4593 33.4371 30.889 33.5918 29.4619 34.1829C28.0348 34.774 26.815 35.775 25.9568 37.0594C25.0987 38.3437 24.6406 39.8537 24.6406 41.3984C24.6406 43.4697 25.4635 45.4562 26.9281 46.9209C28.3928 48.3855 30.3793 49.2084 32.4506 49.2084ZM32.4506 35.5284C33.6144 35.5264 34.7526 35.8698 35.7211 36.5152C36.6896 37.1605 37.4448 38.0787 37.8911 39.1536C38.3374 40.2284 38.4547 41.4115 38.2281 42.5531C38.0016 43.6946 37.4413 44.7432 36.6184 45.5662C35.7955 46.3891 34.7468 46.9493 33.6053 47.1759C32.4638 47.4024 31.2807 47.2852 30.2058 46.8389C29.131 46.3926 28.2128 45.6374 27.5674 44.6689C26.9221 43.7004 26.5786 42.5622 26.5806 41.3984C26.5833 39.8424 27.2026 38.3509 28.3028 37.2506C29.4031 36.1503 30.8946 35.531 32.4506 35.5284Z" fill="white"/>
<path d="M38.1505 6.02836C38.1525 4.90058 37.8198 3.79757 37.1947 2.85889C36.5696 1.92022 35.6801 1.18808 34.6387 0.755124C33.5974 0.322171 32.451 0.207864 31.3446 0.426669C30.2383 0.645474 29.2217 1.18756 28.4235 1.98432C27.6254 2.78108 27.0815 3.7967 26.8607 4.90266C26.64 6.00863 26.7523 7.15522 27.1834 8.19734C27.6145 9.23946 28.3451 10.1303 29.2827 10.757C30.2203 11.3838 31.3227 11.7184 32.4505 11.7184C33.9597 11.7157 35.4064 11.1157 36.4745 10.0495C37.5426 8.98327 38.1452 7.53755 38.1505 6.02836ZM28.6905 6.02836C28.6885 5.28428 28.9073 4.55634 29.3193 3.9367C29.7312 3.31706 30.3178 2.83357 31.0046 2.54745C31.6915 2.26133 32.4478 2.18544 33.1779 2.32939C33.9079 2.47334 34.5788 2.83066 35.1056 3.3561C35.6325 3.88155 35.9916 4.5515 36.1375 5.28114C36.2834 6.01078 36.2095 6.7673 35.9252 7.45493C35.6409 8.14257 35.159 8.73039 34.5405 9.14399C33.9219 9.55758 33.1946 9.77836 32.4505 9.77836C31.4558 9.77574 30.5025 9.38012 29.7982 8.67772C29.0939 7.97531 28.6958 7.02303 28.6905 6.02836Z" fill="white"/>
<path d="M22.6006 21.808V23.268C22.6006 23.5332 22.7059 23.7876 22.8935 23.9751C23.081 24.1627 23.3354 24.268 23.6006 24.268H41.3306C41.5958 24.268 41.8502 24.1627 42.0377 23.9751C42.2252 23.7876 42.3306 23.5332 42.3306 23.268V21.808C42.3306 19.1956 41.2928 16.6902 39.4456 14.843C37.5984 12.9958 35.093 11.958 32.4806 11.958C29.8682 11.958 27.3628 12.9958 25.5156 14.843C23.6684 16.6902 22.6306 19.1956 22.6306 21.808H22.6006ZM32.4506 13.898C34.5476 13.9007 36.558 14.7349 38.0409 16.2177C39.5237 17.7006 40.3579 19.711 40.3606 21.808V22.328H24.5406V21.838C24.538 20.7971 24.7405 19.7659 25.1368 18.8033C25.533 17.8408 26.115 16.9658 26.8497 16.2283C27.5843 15.4909 28.4571 14.9055 29.4182 14.5057C30.3792 14.1058 31.4097 13.8993 32.4506 13.898Z" fill="white"/>
<path d="M54.6009 51.8082C55.7282 51.8082 56.8303 51.4739 57.7676 50.8476C58.705 50.2213 59.4356 49.331 59.867 48.2895C60.2984 47.248 60.4113 46.1019 60.1914 44.9962C59.9714 43.8905 59.4285 42.8749 58.6314 42.0777C57.8342 41.2805 56.8186 40.7377 55.7129 40.5177C54.6072 40.2978 53.4611 40.4107 52.4196 40.8421C51.378 41.2735 50.4878 42.0041 49.8615 42.9415C49.2352 43.8788 48.9009 44.9808 48.9009 46.1082C48.9009 47.6199 49.5014 49.0698 50.5704 50.1387C51.6393 51.2077 53.0891 51.8082 54.6009 51.8082ZM54.6009 42.3582C55.345 42.3582 56.0723 42.579 56.6909 42.9926C57.3094 43.4062 57.7913 43.994 58.0756 44.6816C58.3599 45.3693 58.4338 46.1258 58.2879 46.8554C58.142 47.5851 57.7829 48.255 57.256 48.7805C56.7292 49.3059 56.0583 49.6632 55.3283 49.8072C54.5982 49.9511 53.8419 49.8752 53.155 49.5891C52.4682 49.303 51.8816 48.8195 51.4697 48.1999C51.0577 47.5802 50.8389 46.8523 50.8409 46.1082C50.8369 45.6124 50.9313 45.1207 51.1186 44.6616C51.3059 44.2025 51.5824 43.7851 51.9321 43.4336C52.2818 43.082 52.6977 42.8033 53.1558 42.6136C53.6139 42.4239 54.105 42.3269 54.6009 42.3282V42.3582Z" fill="white"/>
<path d="M54.6007 52.0381C51.9865 52.0407 49.4801 53.0804 47.6316 54.9289C45.783 56.7775 44.7434 59.2839 44.7407 61.8981V63.3281C44.7407 63.5933 44.8461 63.8477 45.0336 64.0352C45.2212 64.2227 45.4755 64.3281 45.7407 64.3281H63.4507C63.7159 64.3281 63.9703 64.2227 64.1578 64.0352C64.3454 63.8477 64.4507 63.5933 64.4507 63.3281V61.8981C64.4507 59.2848 63.4133 56.7784 61.5663 54.9295C59.7194 53.0807 57.214 52.0407 54.6007 52.0381ZM62.5107 62.3881H46.6807V61.8981C46.6429 60.835 46.8197 59.7752 47.2004 58.7819C47.5812 57.7886 48.1581 56.8822 48.8968 56.1168C49.6355 55.3514 50.5209 54.7426 51.5 54.3268C52.4791 53.911 53.532 53.6967 54.5957 53.6967C55.6595 53.6967 56.7123 53.911 57.6915 54.3268C58.6706 54.7426 59.5559 55.3514 60.2946 56.1168C61.0333 56.8822 61.6103 57.7886 61.991 58.7819C62.3718 59.7752 62.5485 60.835 62.5107 61.8981V62.3881Z" fill="white"/>
<path d="M4.61085 46.1085C4.60887 47.2367 4.94174 48.3401 5.5673 49.279C6.19287 50.2179 7.08298 50.95 8.12493 51.3827C9.16688 51.8153 10.3138 51.929 11.4204 51.7094C12.527 51.4898 13.5436 50.9467 14.3413 50.149C15.1391 49.3512 15.6822 48.3346 15.9018 47.228C16.1214 46.1214 16.0077 44.9745 15.575 43.9325C15.1424 42.8906 14.4102 42.0005 13.4714 41.3749C12.5325 40.7494 11.4291 40.4165 10.3008 40.4185C8.79258 40.4211 7.34684 41.0214 6.28033 42.0879C5.21382 43.1545 4.61349 44.6002 4.61085 46.1085ZM14.0608 46.1085C14.0569 46.8513 13.833 47.5762 13.4175 48.1919C13.0019 48.8076 12.4133 49.2864 11.7259 49.568C11.0385 49.8495 10.2832 49.9211 9.55513 49.7738C8.82708 49.6264 8.15898 49.2668 7.63514 48.7401C7.11129 48.2135 6.75517 47.5435 6.6117 46.8147C6.46823 46.0859 6.54385 45.3309 6.82902 44.645C7.11418 43.9591 7.59611 43.3731 8.214 42.9608C8.83189 42.5485 9.55805 42.3285 10.3008 42.3285C10.7963 42.3285 11.2869 42.4264 11.7444 42.6166C12.2019 42.8068 12.6173 43.0855 12.9667 43.4368C13.3161 43.7881 13.5926 44.2049 13.7804 44.6634C13.9682 45.1219 14.0635 45.613 14.0608 46.1085Z" fill="white"/>
<path d="M1.45068 64.3283H19.1907C19.4559 64.3283 19.7103 64.223 19.8978 64.0354C20.0853 63.8479 20.1907 63.5935 20.1907 63.3283V61.8983C20.1907 59.2806 19.1508 56.7702 17.2998 54.9192C15.4488 53.0682 12.9384 52.0283 10.3207 52.0283C7.703 52.0283 5.19252 53.0682 3.34154 54.9192C1.49056 56.7702 0.450684 59.2806 0.450684 61.8983L0.450684 63.3283C0.450684 63.5935 0.55604 63.8479 0.743577 64.0354C0.931113 64.223 1.18547 64.3283 1.45068 64.3283ZM2.45068 61.8983C2.41289 60.8352 2.58964 59.7754 2.97039 58.7822C3.35114 57.7889 3.92808 56.8825 4.66678 56.117C5.40549 55.3516 6.29082 54.7428 7.26995 54.327C8.24907 53.9112 9.30193 53.6969 10.3657 53.6969C11.4294 53.6969 12.4823 53.9112 13.4614 54.327C14.4405 54.7428 15.3259 55.3516 16.0646 56.117C16.8033 56.8825 17.3802 57.7889 17.761 58.7822C18.1417 59.7754 18.3185 60.8352 18.2807 61.8983V62.3883H2.39068L2.45068 61.8983Z" fill="white"/>
</svg>
